<?xml version="1.0" encoding="utf-8"?>
<svg version="1.1" xmlns="http://www.w3.org/2000/svg" xmlns:xlink="http://www.w3.org/1999/xlink" xml:space="preserve" style="display:none">
  <symbol id="logo" viewBox="0 0 198.2 201.7">
    <g fill="currentColor">
      <path d="M81.2,200.7h6.7v-30h-6.7V200.7z M46.3,151.9l7.9,10.6h3.1v-15.9h-3.2v10.4l-7.8-10.4h-3.2v15.9h3.2V151.9z
               M82.2,146.7H68.7v3.4h5.1v12.5h3.4v-12.5h5V146.7z M61.4,192.5l-6.4-21.8h-5.3l-6.3,21.7l-5.8-21.7h-6.5l8.5,30h7.2l5.6-19.8
               l5.6,19.8h7.2l8.5-30h-6.5L61.4,192.5z M106.6,127.3h19.6c18,0,32.6-14.6,32.6-32.6v-62c0-18-14.6-32.6-32.6-32.6h-19.7
               c-0.5,0-0.8,0.4-0.8,0.8v125.5C105.6,126.9,106,127.3,106.6,127.3z M130.8,57.1c7.1,0,12.9,5.8,12.9,12.9c0,7.1-5.8,12.9-12.9,12.9
               c-7.1,0-12.9-5.8-12.9-12.9C117.9,62.9,123.7,57.1,130.8,57.1z M31.1,146.7h-3.5v15.9h3.5V146.7z M4.6,151.9l7.9,10.6h3.1v-15.9
               h-3.2v10.4l-7.8-10.4H1.4v15.9h3.2V151.9z M14,182.5l-0.2,0c-3.7-0.6-6.8-1.2-7.1-3.3c0-0.3,0-1,0.5-1.7c1-1.2,3.3-1.7,6.7-1.7
               c3.9,0,7.8,1.5,9.2,2.1l2.1-5.2c-1.5-0.6-6.3-2.3-11.6-2.3c-6.5,0-13.4,3.2-13.4,9c0,4.7,3.3,7.2,11.9,8.7c6.1,1,9.4,1.6,9.3,4.2
               c-0.1,1.4-1.2,3.8-8,3.8c-5.5,0-9.4-2-10.7-2.8L0,198.3c1.5,0.8,6.6,3.2,13.1,3.2c9.5,0,14.6-3.3,14.6-9.6
               C27.7,187.5,25.5,184.5,14,182.5z M51.3,38.2c0,6.6,5.4,12,12,12c6.6,0,12-5.4,12-12c0-6.6-5.4-12-12-12
               C56.7,26.2,51.3,31.6,51.3,38.2z M106.2,159.6H97v-3.7h8.4V153H97v-3.4h9.1v-2.9l-12.4,0v15.9l12.4,0V159.6z M180.5,146.1
               c-4.7,0-8.5,3.8-8.5,8.5c0,4.7,3.8,8.5,8.5,8.5c4.7,0,8.5-3.8,8.5-8.5C189,150,185.2,146.1,180.5,146.1z M180.5,159.6
               c-2.7,0-4.9-2.2-4.9-4.9c0-2.7,2.2-4.9,4.9-4.9c2.7,0,4.9,2.2,4.9,4.9C185.5,157.4,183.2,159.6,180.5,159.6z M181.6,182.5h-14
               v-11.8h-6.2v30h6.2v-12h14v12h6.2v-30h-6.2V182.5z M190.3,197.6h1.3v3.1h0.7v-3.1h1.2v-0.7h-3.2V197.6z M197.1,196.8l-1,2.8l-1-2.8
               h-1.1v3.8h0.7v-2.9l1,2.9l0,0h0.7l0,0l1-2.9v2.9h0.7v-3.8H197.1z M141.4,176.4c3.4,0,6.5,1.8,8.2,4.7l4.9-4.2
               c-3-4.4-7.9-7.1-13.3-7.1c-8.8,0-16,7.2-16,16c0,8.8,7.2,16,16,16c5.4,0,10.3-2.6,13.3-7.1l-4.9-4.2c-1.7,2.8-4.8,4.7-8.2,4.7
               c-5.2,0-9.5-4.2-9.5-9.3S136.2,176.4,141.4,176.4z M95.2,177.1h9.6v23.6h6.5v-23.6h9.4v-6.4H95.2V177.1z M133.6,162.6v-15.9h-3.2
               v10.4l-7.8-10.4h-3.2v15.9h3.2v-10.6l7.9,10.6H133.6z M91.9,0H64.1c-18,0-32.6,14.6-32.6,32.6v62c0,18,14.6,32.6,32.6,32.6h27.8
               c0.5,0,0.9-0.4,0.9-0.9V0.9C92.9,0.4,92.5,0,91.9,0z M82.6,117H64.1c-6,0-11.6-2.3-15.8-6.6c-4.2-4.2-6.6-9.8-6.6-15.8v-62
               c0-6,2.3-11.6,6.6-15.8c4.2-4.2,9.8-6.6,15.8-6.6h18.5V117z M153.6,146.7H147v15.9h6.6c4.5,0,8.2-3.6,8.2-7.9
               C161.8,150.2,158.1,146.7,153.6,146.7z M153.8,159.2h-3.5V150h3.5c2.5,0,4.6,2.1,4.6,4.6C158.4,157.2,156.3,159.2,153.8,159.2z"/>
    </g>
  </symbol>
</svg>
