<?xml version="1.0" encoding="UTF-8" standalone="no"?>
<!-- Created with Inkscape (http://www.inkscape.org/) -->

<svg
   xmlns:dc="http://purl.org/dc/elements/1.1/"
   xmlns:cc="http://creativecommons.org/ns#"
   xmlns:rdf="http://www.w3.org/1999/02/22-rdf-syntax-ns#"
   xmlns:svg="http://www.w3.org/2000/svg"
   xmlns="http://www.w3.org/2000/svg"
   version="1.1"
   width="420.62399"
   height="97.344002"
   id="svg3026">
  <defs
     id="defs3028" />
  <metadata
     id="metadata3031">
    <rdf:RDF>
      <cc:Work
         rdf:about="">
        <dc:format>image/svg+xml</dc:format>
        <dc:type
           rdf:resource="http://purl.org/dc/dcmitype/StillImage" />
        <dc:title></dc:title>
      </cc:Work>
    </rdf:RDF>
  </metadata>
  <g
     id="layer3">
    <rect
       width="426.28436"
       height="100.51018"
       x="-1.0101526"
       y="-1.6509477"
       id="rect3039"
       style="fill:#ffffff;fill-opacity:1;stroke:#ffffff;stroke-opacity:1" />
  </g>
  <g
     transform="translate(-2.3268571,-325.17362)"
     id="layer1">
    <g
       id="text3034"
       style="font-size:144px;font-style:normal;font-variant:normal;font-weight:normal;font-stretch:normal;text-align:start;line-height:125%;letter-spacing:0px;word-spacing:0px;writing-mode:lr-tb;text-anchor:start;fill:#000000;fill-opacity:1;stroke:none;font-family:Ricty;-inkscape-font-specification:Ricty">
      <path
         d="m 37.030857,330.35762 c 5.567955,9e-5 10.65595,1.34409 15.264,4.032 4.60794,2.59209 8.207937,6.24008 10.8,10.944 l -7.056,7.2 c -0.672058,-0.38393 -1.296058,-1.29593 -1.872,-2.736 -1.440056,-3.16792 -3.696053,-5.71192 -6.768,-7.632 -2.976047,-2.01591 -6.432044,-3.02391 -10.368,-3.024 -3.936036,9e-5 -7.728032,1.10408 -11.376,3.312 -3.648025,2.20808 -6.576022,5.37608 -8.784,9.504 -3.072017,5.85607 -4.608015,13.53606 -4.608,23.04 -1.5e-5,13.92004 2.879982,24.14403 8.64,30.672 4.511972,5.18401 10.175966,7.77601 16.992,7.776 5.663954,10e-6 11.039948,-1.82399 16.128,-5.472 l 0,-21.312 -16.272,0 0,-8.784 25.632,0 0,35.136 c -8.544058,6.24001 -17.328049,9.36 -26.352,9.36 -4.224036,0 -8.304032,-0.768 -12.24,-2.304 -3.840024,-1.63199 -7.48802,-4.12799 -10.944,-7.488 -3.456013,-3.35998 -6.2400104,-8.06398 -8.3519999,-14.112 -2.1120063,-6.14397 -3.1680052,-13.24796 -3.168,-21.312 -5.2e-6,-7.48794 0.815994,-14.11194 2.448,-19.872 1.7279906,-5.85593 3.7919886,-10.41592 6.1919999,-13.68 2.495984,-3.26392 5.375981,-5.95191 8.64,-8.064 3.359974,-2.11191 6.431971,-3.50391 9.216,-4.176 2.783966,-0.67191 5.519963,-1.00791 8.208,-1.008"
         id="path3842" />
      <path
         d="m 100.53486,328.62962 c 1.43996,-1.4399 3.21596,-2.1599 5.328,-2.16 2.11196,10e-5 3.83996,0.7201 5.184,2.16 1.43995,1.4401 2.15995,3.16809 2.16,5.184 -5e-5,2.01609 -0.72005,3.79209 -2.16,5.328 -1.44004,1.44008 -3.16804,2.16008 -5.184,2.16 -2.11204,8e-5 -3.88804,-0.71992 -5.328,-2.16 -1.440033,-1.53591 -2.160032,-3.31191 -2.160003,-5.328 -2.9e-5,-2.01591 0.71997,-3.7439 2.160003,-5.184 m -16.128003,26.496 26.352003,0 0,57.456 15.408,0 0,8.352 -42.624003,0 0,-8.352 16.848003,0 0,-49.104 -15.984003,0 0,-8.352"
         id="path3844" />
      <path
         d="m 168.21486,337.55762 11.376,-1.872 c 0.096,0.57609 0.096,1.00809 0,1.296 -4e-5,0.28809 -0.14404,0.72009 -0.432,1.296 -0.19204,0.48009 -0.33604,0.91209 -0.432,1.296 l -1.728,15.552 21.6,0 0,8.496 -21.6,0 c -0.86404,8.44805 -1.29604,17.04004 -1.296,25.776 -4e-5,7.29603 0.14396,11.52002 0.432,12.672 0.47996,3.64802 1.72796,6.33602 3.744,8.064 2.11196,1.63201 4.55995,2.44801 7.344,2.448 4.51195,1e-5 9.40794,-1.96799 14.688,-5.904 l 3.168,8.208 c -6.81606,4.89601 -13.82405,7.344 -21.024,7.344 -6.62404,0 -11.61603,-2.35199 -14.976,-7.056 -2.59203,-3.55199 -3.88803,-9.50398 -3.888,-17.856 -3e-5,-9.98396 0.47997,-21.21595 1.44,-33.696 l -15.408,0 0.144,-8.496 15.696,0 1.152,-17.568"
         id="path3846" />
      <path
         d="m 220.91886,331.22162 11.232,0 c 0.096,0.0961 0.14398,0.33609 0.144,0.72 -2e-5,0.38409 -0.14402,0.81609 -0.432,1.296 -0.28802,0.38409 -0.43202,0.86409 -0.432,1.44 l 0,34.992 35.136,0 0,-38.448 10.944,0 c 0.0959,0.0961 0.14393,0.28809 0.144,0.576 -7e-5,0.38409 -0.19207,0.81609 -0.576,1.296 -0.28807,0.38409 -0.43207,0.81609 -0.432,1.296 l 0,86.688 -10.224,0 0,-42.912 -34.992,0 0,42.768 -10.512,0 0,-89.712"
         id="path3848" />
      <path
         d="m 294.21486,355.12562 10.368,0 0,36.72 c -2e-5,6.24003 0.81598,10.99202 2.448,14.256 2.68797,5.37601 6.86397,8.06401 12.528,8.064 3.07196,1e-5 5.95196,-0.91199 8.64,-2.736 2.78395,-1.82398 4.94395,-4.17598 6.48,-7.056 1.72795,-3.26398 2.59194,-7.58397 2.592,-12.96 l 0,-36.288 10.512,0 0,59.904 c -7e-5,2.20801 0.23993,4.17601 0.72,5.904 l -10.944,0 c -0.19206,-1.15199 -0.28806,-2.83199 -0.288,-5.04 l 0.144,-5.04 c -2.11205,3.55201 -4.99205,6.38401 -8.64,8.496 -3.64804,2.112 -7.53604,3.168 -11.664,3.168 -4.32003,0 -8.35203,-1.152 -12.096,-3.456 -3.64802,-2.39999 -6.43202,-5.71199 -8.352,-9.936 -1.72801,-3.83998 -2.59201,-9.59997 -2.592,-17.28 l 0.144,-36.72"
         id="path3850" />
      <path
         d="m 392.99886,362.46962 c -3.26404,6e-5 -6.28803,0.91206 -9.072,2.736 -2.68803,1.72806 -4.65603,4.03206 -5.904,6.912 -1.15202,2.88005 -1.72802,7.48805 -1.728,13.824 -2e-5,6.33603 0.14398,10.65603 0.432,12.96 0.76798,5.47202 2.78397,9.26402 6.048,11.376 3.26397,2.01601 6.57596,3.02401 9.936,3.024 1.91996,10e-6 3.83996,-0.33599 5.76,-1.008 2.01595,-0.67199 4.12795,-1.77599 6.336,-3.312 2.20795,-1.53598 3.98395,-3.98398 5.328,-7.344 1.43994,-3.45597 2.15994,-7.53597 2.16,-12.24 -6e-5,-5.47196 -0.72006,-10.07995 -2.16,-13.824 -1.34405,-3.83995 -3.12005,-6.62394 -5.328,-8.352 -2.11205,-1.82394 -4.12805,-3.07194 -6.048,-3.744 -1.92004,-0.67194 -3.84004,-1.00794 -5.76,-1.008 m -27.216,-37.296 12.096,0 c 0.19198,0.6721 -0.048,1.2001 -0.72,1.584 -0.57602,0.4801 -0.86402,1.0081 -0.864,1.584 l 0,36.864 c 2.11198,-3.55194 4.94397,-6.38393 8.496,-8.496 3.64797,-2.11193 7.58396,-3.16793 11.808,-3.168 7.10395,7e-5 13.24794,2.92807 18.432,8.784 5.27993,5.76006 7.91993,14.06405 7.92,24.912 -7e-5,11.23203 -2.73607,19.92002 -8.208,26.064 -5.47206,6.14401 -11.90405,9.216 -19.296,9.216 -8.44803,0 -14.92803,-3.40799 -19.44,-10.224 l -3.6,8.64 -6.624,0 0,-95.76"
         id="path3852" />
    </g>
  </g>
</svg>
