<?xml version="1.0" encoding="UTF-8" standalone="no"?>
<!-- Created with Inkscape (http://www.inkscape.org/) -->

<svg
   xmlns:dc="http://purl.org/dc/elements/1.1/"
   xmlns:cc="http://creativecommons.org/ns#"
   xmlns:rdf="http://www.w3.org/1999/02/22-rdf-syntax-ns#"
   xmlns:svg="http://www.w3.org/2000/svg"
   xmlns="http://www.w3.org/2000/svg"
   version="1.1"
   width="270.72"
   height="97.344002"
   id="svg2">
  <defs
     id="defs4" />
  <metadata
     id="metadata7">
    <rdf:RDF>
      <cc:Work
         rdf:about="">
        <dc:format>image/svg+xml</dc:format>
        <dc:type
           rdf:resource="http://purl.org/dc/dcmitype/StillImage" />
        <dc:title></dc:title>
      </cc:Work>
    </rdf:RDF>
  </metadata>
  <g
     id="layer2">
    <rect
       width="283.34778"
       height="113.13708"
       x="-2.5253813"
       y="-4.1763291"
       id="rect3769"
       style="fill:#3f3f02;fill-opacity:1;stroke:#ffffff;stroke-opacity:1" />
    <rect
       width="283.34778"
       height="113.13708"
       x="-2.5253813"
       y="-4.1763291"
       id="rect3771"
       style="fill:#3f3f02;fill-opacity:1;stroke:#ffffff;stroke-opacity:1" />
    <rect
       width="283.34778"
       height="113.13708"
       x="-2.5253813"
       y="-4.1763291"
       id="rect3773"
       style="fill:#be4040;fill-opacity:1;stroke:#ffffff;stroke-opacity:1" />
  </g>
  <g
     transform="translate(-74.475426,-410.88789)"
     id="layer1">
    <g
       id="text2985"
       style="font-size:144px;font-style:normal;font-variant:normal;font-weight:normal;font-stretch:normal;text-align:start;line-height:125%;letter-spacing:0px;word-spacing:0px;writing-mode:lr-tb;text-anchor:start;fill:#ffffff;fill-opacity:1;stroke:none;font-family:Ricty;-inkscape-font-specification:Ricty">
      <path
         d="m 74.475426,416.93589 7.92,0 22.176004,43.92 22.608,-44.064 7.632,0 0,90 -9.504,0 0,-67.824 -19.44,36.144 -3.888,0 -18.144004,-35.712 0,67.392 -9.36,0 0,-89.856"
         id="path2990"
         style="fill:#ffffff;fill-opacity:1" />
      <path
         d="m 193.70743,475.83189 -2.448,0 c -11.61604,3e-5 -18.81604,0.33603 -21.6,1.008 -3.84003,0.96003 -6.76803,2.59203 -8.784,4.896 -1.92002,2.20802 -2.88002,4.60802 -2.88,7.2 -2e-5,3.07201 1.24798,5.76001 3.744,8.064 2.49597,2.20801 5.85597,3.312 10.08,3.312 6.62396,0 12.38395,-2.59199 17.28,-7.776 3.07194,-3.26398 4.60794,-7.39198 4.608,-12.384 l 0,-4.32 m -40.032,-27.216 c 6.04798,-6.14394 13.87197,-9.21593 23.472,-9.216 10.84795,7e-5 18.47994,3.64806 22.896,10.944 2.11193,3.55205 3.16793,8.73605 3.168,15.552 l 0,40.752 -9.792,0 0,-7.2 c -7.10405,5.856 -14.97604,8.784 -23.616,8.784 -6.62403,0 -12.00002,-1.824 -16.128,-5.472 -4.03201,-3.64799 -6.04801,-8.01599 -6.048,-13.104 -1e-5,-3.93598 1.24799,-7.58398 3.744,-10.944 2.59198,-3.45597 6.38398,-6.09597 11.376,-7.92 5.27997,-1.91996 14.73596,-2.87996 28.368,-2.88 l 2.16,0 0,-2.448 c -6e-5,-5.08796 -0.72006,-8.83195 -2.16,-11.232 -2.59205,-4.22395 -7.10405,-6.33594 -13.536,-6.336 -7.96803,6e-5 -14.25603,2.44805 -18.864,7.344 l -5.04,-6.624"
         id="path2992"
         style="fill:#ffffff;fill-opacity:1" />
      <path
         d="m 243.96343,414.34389 c 1.43996,-1.43991 3.21596,-2.15991 5.328,-2.16 2.11196,9e-5 3.83996,0.72009 5.184,2.16 1.43995,1.44009 2.15995,3.16809 2.16,5.184 -5e-5,2.01608 -0.72005,3.79208 -2.16,5.328 -1.44004,1.44008 -3.16804,2.16008 -5.184,2.16 -2.11204,8e-5 -3.88804,-0.71992 -5.328,-2.16 -1.44003,-1.53592 -2.16003,-3.31192 -2.16,-5.328 -3e-5,-2.01591 0.71997,-3.74391 2.16,-5.184 m -16.128,26.496 26.352,0 0,57.456 15.408,0 0,8.352 -42.624,0 0,-8.352 16.848,0 0,-49.104 -15.984,0 0,-8.352"
         id="path2994"
         style="fill:#ffffff;fill-opacity:1" />
      <path
         d="m 296.81143,410.88789 29.088,0 0,87.408 19.296,0 0,8.352 -49.248,0 0,-8.352 19.44,0 0,-79.056 -18.576,0 0,-8.352"
         id="path2996"
         style="fill:#ffffff;fill-opacity:1" />
    </g>
  </g>
</svg>
