<?xml version="1.0" encoding="UTF-8" standalone="no"?>
<!-- Created with Inkscape (http://www.inkscape.org/) -->

<svg
   xmlns:dc="http://purl.org/dc/elements/1.1/"
   xmlns:cc="http://creativecommons.org/ns#"
   xmlns:rdf="http://www.w3.org/1999/02/22-rdf-syntax-ns#"
   xmlns:svg="http://www.w3.org/2000/svg"
   xmlns="http://www.w3.org/2000/svg"
   xmlns:sodipodi="http://sodipodi.sourceforge.net/DTD/sodipodi-0.dtd"
   xmlns:inkscape="http://www.inkscape.org/namespaces/inkscape"
   width="493.48801"
   height="95.903999"
   id="svg2"
   version="1.1"
   inkscape:version="0.48.4 r9939"
   sodipodi:docname="twitter.svgz">
  <defs
     id="defs4" />
  <sodipodi:namedview
     id="base"
     pagecolor="#55abee"
     bordercolor="#666666"
     borderopacity="1.0"
     inkscape:pageopacity="1"
     inkscape:pageshadow="2"
     inkscape:zoom="2.6444412"
     inkscape:cx="246.744"
     inkscape:cy="47.952"
     inkscape:document-units="px"
     inkscape:current-layer="layer1"
     showgrid="false"
     fit-margin-top="0"
     fit-margin-left="0"
     fit-margin-right="0"
     fit-margin-bottom="0"
     inkscape:snap-bbox="true"
     inkscape:snap-global="false"
     inkscape:window-width="1920"
     inkscape:window-height="1060"
     inkscape:window-x="0"
     inkscape:window-y="20"
     inkscape:window-maximized="0" />
  <metadata
     id="metadata7">
    <rdf:RDF>
      <cc:Work
         rdf:about="">
        <dc:format>image/svg+xml</dc:format>
        <dc:type
           rdf:resource="http://purl.org/dc/dcmitype/StillImage" />
        <dc:title></dc:title>
      </cc:Work>
    </rdf:RDF>
  </metadata>
  <g
     inkscape:label="def"
     inkscape:groupmode="layer"
     id="layer1"
     transform="translate(-16.073977,-899.8483)">
    <g
       transform="translate(0,796.3622)"
       style="font-size:144px;font-style:normal;font-variant:normal;font-weight:normal;font-stretch:normal;text-align:start;line-height:125%;letter-spacing:0px;word-spacing:0px;writing-mode:lr-tb;text-anchor:start;fill:#000000;fill-opacity:1;stroke:none;font-family:Ricty;-inkscape-font-specification:Ricty"
       id="text3765">
      <path
         d="m 16.073977,108.0941 62.208,0 0,9.072 -26.496,0 0,80.928 -10.224,0 0,-80.928 -25.488,0 0,-9.072"
         style=""
         id="path3770" />
      <path
         d="m 85.913977,132.1421 10.512,0 c 0.287987,0.67207 0.191987,1.58407 -0.288,2.736 -0.192013,0.86407 -0.240013,1.77607 -0.144,2.736 l 9.648003,47.376 11.232,-46.656 6.336,0 13.968,46.512 c 4.31994,-28.51195 6.33594,-46.07994 6.048,-52.704 l 9.648,0 c -3.07207,23.23205 -6.72007,45.21602 -10.944,65.952 l -9.792,0 -12.096,-42.624 -11.52,42.624 -9.360003,0 -13.248,-65.952"
         style=""
         id="path3772" />
      <path
         d="m 187.00198,105.6461 c 1.43996,-1.4399 3.21596,-2.1599 5.328,-2.16 2.11196,1e-4 3.83996,0.7201 5.184,2.16 1.43995,1.44009 2.15995,3.16809 2.16,5.184 -5e-5,2.01609 -0.72005,3.79209 -2.16,5.328 -1.44004,1.44008 -3.16804,2.16008 -5.184,2.16 -2.11204,8e-5 -3.88804,-0.71992 -5.328,-2.16 -1.44003,-1.53591 -2.16003,-3.31191 -2.16,-5.328 -3e-5,-2.01591 0.71997,-3.74391 2.16,-5.184 m -16.128,26.496 26.352,0 0,57.456 15.408,0 0,8.352 -42.624,0 0,-8.352 16.848,0 0,-49.104 -15.984,0 0,-8.352"
         style=""
         id="path3774" />
      <path
         d="m 254.68198,114.5741 11.376,-1.872 c 0.096,0.57609 0.096,1.00809 0,1.296 -4e-5,0.28809 -0.14404,0.72009 -0.432,1.296 -0.19204,0.48009 -0.33604,0.91209 -0.432,1.296 l -1.728,15.552 21.6,0 0,8.496 -21.6,0 c -0.86404,8.44805 -1.29604,17.04004 -1.296,25.776 -4e-5,7.29603 0.14396,11.52002 0.432,12.672 0.47996,3.64802 1.72796,6.33602 3.744,8.064 2.11196,1.63201 4.55995,2.44801 7.344,2.448 4.51195,1e-5 9.40794,-1.96799 14.688,-5.904 l 3.168,8.208 c -6.81606,4.896 -13.82405,7.344 -21.024,7.344 -6.62404,0 -11.61603,-2.352 -14.976,-7.056 -2.59203,-3.55199 -3.88803,-9.50398 -3.888,-17.856 -3e-5,-9.98396 0.47997,-21.21595 1.44,-33.696 l -15.408,0 0.144,-8.496 15.696,0 1.152,-17.568"
         style=""
         id="path3776" />
      <path
         d="m 326.68198,114.5741 11.376,-1.872 c 0.096,0.57609 0.096,1.00809 0,1.296 -4e-5,0.28809 -0.14404,0.72009 -0.432,1.296 -0.19204,0.48009 -0.33604,0.91209 -0.432,1.296 l -1.728,15.552 21.6,0 0,8.496 -21.6,0 c -0.86404,8.44805 -1.29604,17.04004 -1.296,25.776 -4e-5,7.29603 0.14396,11.52002 0.432,12.672 0.47996,3.64802 1.72796,6.33602 3.744,8.064 2.11196,1.63201 4.55995,2.44801 7.344,2.448 4.51195,1e-5 9.40794,-1.96799 14.688,-5.904 l 3.168,8.208 c -6.81606,4.896 -13.82405,7.344 -21.024,7.344 -6.62404,0 -11.61603,-2.352 -14.976,-7.056 -2.59203,-3.55199 -3.88803,-9.50398 -3.888,-17.856 -3e-5,-9.98396 0.47997,-21.21595 1.44,-33.696 l -15.408,0 0.144,-8.496 15.696,0 1.152,-17.568"
         style=""
         id="path3778" />
      <path
         d="m 389.03398,158.4941 36.144,0 c 0.67194,-5.37595 -0.67206,-10.03195 -4.032,-13.968 -3.36005,-4.03194 -7.68005,-6.04794 -12.96,-6.048 -4.32004,6e-5 -8.40003,1.58406 -12.24,4.752 -3.74402,3.16806 -6.04802,8.25605 -6.912,15.264 m 19.872,-27.936 c 6.23995,7e-5 11.75995,1.87207 16.56,5.616 4.89594,3.64806 8.06393,9.55206 9.504,17.712 0.67193,4.51204 0.81593,8.73604 0.432,12.672 l -46.8,0 c 0.19198,4.70403 1.00798,8.73603 2.448,12.096 1.53598,3.36002 3.45597,5.90402 5.76,7.632 2.39997,1.63201 4.75197,2.83201 7.056,3.6 2.30396,0.76801 4.70396,1.15201 7.2,1.152 6.91195,1e-5 12.57594,-2.44799 16.992,-7.344 l 5.76,5.616 c -5.56806,6.72001 -13.44005,10.08 -23.616,10.08 -9.21603,0 -16.80003,-2.92799 -22.752,-8.784 -5.85601,-5.85598 -8.78401,-14.11197 -8.784,-24.768 -10e-6,-11.42395 2.92799,-20.15994 8.784,-26.208 5.85598,-6.04793 13.00797,-9.07193 21.456,-9.072"
         style=""
         id="path3780" />
      <path
         d="m 457.86598,132.1421 10.8,0 -0.288,12.672 c 2.11197,-4.51194 5.32797,-8.01594 9.648,-10.512 4.31996,-2.49593 8.97595,-3.74393 13.968,-3.744 6.91194,7e-5 12.76794,2.40007 17.568,7.2 l -4.752,9.936 c -0.48006,-0.38395 -1.00806,-1.00794 -1.584,-1.872 -0.48006,-0.86394 -0.76806,-1.34394 -0.864,-1.44 -2.68806,-3.26394 -6.33606,-4.89594 -10.944,-4.896 -7.58404,6e-5 -13.72804,3.69606 -18.432,11.088 -3.07203,4.89605 -4.60803,10.03204 -4.608,15.408 l 0,32.112 -10.512,0 0,-65.952"
         style=""
         id="path3782" />
    </g>
  </g>
</svg>
