<svg xmlns="http://www.w3.org/2000/svg" height="2045" style="width:2131px;height:2045px" width="2131"><defs><filter height="300%" id="a" width="300%" x="-1" y="-1"><feGaussianBlur result="blurOut" stdDeviation="2"/><feColorMatrix in="blurOut" result="blurOut2" values="0 0 0 0 0 0 0 0 0 0 0 0 0 0 0 0 0 0 .4 0"/><feOffset dx="4" dy="4" in="blurOut2" result="blurOut3"/><feBlend in="SourceGraphic" in2="blurOut3"/></filter></defs><text font-family="sans-serif" font-size="18" lengthAdjust="spacingAndGlyphs" textLength="378" x="885.5" y="15.03">3lと5lのバケツを状態とする有限オートマトン</text><path fill="#FBFB77" filter="url(#a)" stroke="#a80036" d="M1341.5 26.9v23.65h291V36.9l-10-10h-281z"/><path stroke="#a80036" d="M1622.5 26.9v10M1632.5 36.9h-10"/><text font-family="sans-serif" font-size="13" lengthAdjust="spacingAndGlyphs" textLength="270" x="1347.5" y="42.755">入力 4, 2, 5, 2, 4, 2 によって4lが集まる</text><ellipse cx="1677" cy="38.9" filter="url(#a)" rx="10" ry="10"/><rect fill="#FEFECE" filter="url(#a)" height="50" rx="12.5" ry="12.5" width="50" x="1652" y="111.9" stroke="#a80036" stroke-width="1.5"/><path stroke="#a80036" stroke-width="1.5" d="M1652 136.6h50"/><text font-family="sans-serif" font-size="14" lengthAdjust="spacingAndGlyphs" textLength="14" x="1670" y="128.59">00</text><rect fill="#FEFECE" filter="url(#a)" height="50" rx="12.5" ry="12.5" width="50" x="743" y="236.9" stroke="#a80036" stroke-width="1.5"/><path stroke="#a80036" stroke-width="1.5" d="M743 261.6h50"/><text font-family="sans-serif" font-size="14" lengthAdjust="spacingAndGlyphs" textLength="14" x="761" y="253.59">30</text><rect fill="#FEFECE" filter="url(#a)" height="50" rx="12.5" ry="12.5" width="50" x="1591" y="486.9" stroke="#a80036" stroke-width="1.5"/><path stroke="#a80036" stroke-width="1.5" d="M1591 511.6h50"/><text font-family="sans-serif" font-size="14" lengthAdjust="spacingAndGlyphs" textLength="14" x="1609" y="503.59">05</text><rect fill="#FEFECE" filter="url(#a)" height="50" rx="12.5" ry="12.5" width="50" x="824" y="1486.9" stroke="#a80036" stroke-width="1.5"/><path stroke="#a80036" stroke-width="1.5" d="M824 1511.6h50"/><text font-family="sans-serif" font-size="14" lengthAdjust="spacingAndGlyphs" textLength="14" x="842" y="1503.59">01</text><rect fill="#FEFECE" filter="url(#a)" height="50" rx="12.5" ry="12.5" width="50" x="773" y="1611.9" stroke="#a80036" stroke-width="1.5"/><path stroke="#a80036" stroke-width="1.5" d="M773 1636.6h50"/><text font-family="sans-serif" font-size="14" lengthAdjust="spacingAndGlyphs" textLength="14" x="791" y="1628.59">10</text><rect fill="#FEFECE" filter="url(#a)" height="50" rx="12.5" ry="12.5" width="50" x="775" y="1361.9" stroke="#a80036" stroke-width="1.5"/><path stroke="#a80036" stroke-width="1.5" d="M775 1386.6h50"/><text font-family="sans-serif" font-size="14" lengthAdjust="spacingAndGlyphs" textLength="14" x="793" y="1378.59">31</text><rect fill="#FEFECE" filter="url(#a)" height="50" rx="12.5" ry="12.5" width="50" x="1276" y="736.9" stroke="#a80036" stroke-width="1.5"/><path stroke="#a80036" stroke-width="1.5" d="M1276 761.6h50"/><text font-family="sans-serif" font-size="14" lengthAdjust="spacingAndGlyphs" textLength="14" x="1294" y="753.59">02</text><rect fill="#FEFECE" filter="url(#a)" height="50" rx="12.5" ry="12.5" width="50" x="1248" y="861.9" stroke="#a80036" stroke-width="1.5"/><path stroke="#a80036" stroke-width="1.5" d="M1248 886.6h50"/><text font-family="sans-serif" font-size="14" lengthAdjust="spacingAndGlyphs" textLength="14" x="1266" y="878.59">20</text><rect fill="#FEFECE" filter="url(#a)" height="50" rx="12.5" ry="12.5" width="50" x="1219" y="611.9" stroke="#a80036" stroke-width="1.5"/><path stroke="#a80036" stroke-width="1.5" d="M1219 636.6h50"/><text font-family="sans-serif" font-size="14" lengthAdjust="spacingAndGlyphs" textLength="14" x="1237" y="628.59">32</text><rect fill="#FEFECE" filter="url(#a)" height="50" rx="12.5" ry="12.5" width="50" x="332" y="1986.9" stroke="#a80036" stroke-width="1.5"/><path stroke="#a80036" stroke-width="1.5" d="M332 2011.6h50"/><text font-family="sans-serif" font-size="14" lengthAdjust="spacingAndGlyphs" textLength="14" x="350" y="2003.59">03</text><rect fill="#FEFECE" filter="url(#a)" height="50" rx="12.5" ry="12.5" width="50" x="381" y="1861.9" stroke="#a80036" stroke-width="1.5"/><path stroke="#a80036" stroke-width="1.5" d="M381 1886.6h50"/><text font-family="sans-serif" font-size="14" lengthAdjust="spacingAndGlyphs" textLength="14" x="399" y="1878.59">33</text><rect fill="#FEFECE" filter="url(#a)" height="50" rx="12.5" ry="12.5" width="50" x="694" y="361.9" stroke="#a80036" stroke-width="1.5"/><path stroke="#a80036" stroke-width="1.5" d="M694 386.6h50"/><text font-family="sans-serif" font-size="14" lengthAdjust="spacingAndGlyphs" textLength="14" x="712" y="378.59">35</text><rect fill="#FEFECE" filter="url(#a)" height="50" rx="12.5" ry="12.5" width="50" x="879" y="1236.9" stroke="#a80036" stroke-width="1.5"/><path stroke="#a80036" stroke-width="1.5" d="M879 1261.6h50"/><text font-family="sans-serif" font-size="14" lengthAdjust="spacingAndGlyphs" textLength="14" x="897" y="1253.59">04</text><rect fill="#FEFECE" filter="url(#a)" height="50" rx="12.5" ry="12.5" width="50" x="928" y="1111.9" stroke="#a80036" stroke-width="1.5"/><path stroke="#a80036" stroke-width="1.5" d="M928 1136.6h50"/><text font-family="sans-serif" font-size="14" lengthAdjust="spacingAndGlyphs" textLength="14" x="946" y="1128.59">34</text><ellipse cx="944" cy="1386.9" fill="none" filter="url(#a)" rx="10" ry="10" stroke="#000"/><ellipse cx="944.5" cy="1387.4" rx="6" ry="6"/><rect fill="#FEFECE" filter="url(#a)" height="50" rx="12.5" ry="12.5" width="50" x="633" y="1736.9" stroke="#a80036" stroke-width="1.5"/><path stroke="#a80036" stroke-width="1.5" d="M633 1761.6h50"/><text font-family="sans-serif" font-size="14" lengthAdjust="spacingAndGlyphs" textLength="14" x="651" y="1753.59">15</text><rect fill="#FEFECE" filter="url(#a)" height="50" rx="12.5" ry="12.5" width="50" x="1141" y="986.9" stroke="#a80036" stroke-width="1.5"/><path stroke="#a80036" stroke-width="1.5" d="M1141 1011.6h50"/><text font-family="sans-serif" font-size="14" lengthAdjust="spacingAndGlyphs" textLength="14" x="1159" y="1003.59">25</text><rect fill="#FEFECE" filter="url(#a)" height="50" rx="12.5" ry="12.5" width="50" x="1392" y="361.9" stroke="#a80036" stroke-width="1.5"/><path stroke="#a80036" stroke-width="1.5" d="M1392 386.6h50"/><text font-family="sans-serif" font-size="14" lengthAdjust="spacingAndGlyphs" textLength="14" x="1410" y="378.59">23</text><path d="M1677 49.019v57.552" fill="none" stroke="#a80036"/><path fill="#A80036" stroke="#a80036" d="M1677 111.722l4-9-4 4-4-4 4 9z"/><path d="M1702.278 134.616c17.495-.692 34.722.07 34.722 2.284 0 1.99-13.905 2.806-29.418 2.45" fill="none" stroke="#a80036"/><path fill="#A80036" stroke="#a80036" d="M1702.278 139.184l8.87 4.28-3.873-4.124 4.123-3.873-9.12 3.717z"/><text font-family="sans-serif" font-size="13" lengthAdjust="spacingAndGlyphs" textLength="7" x="1743" y="141.255">1</text><path d="M1702.295 133.351c31.819-2.855 69.705-1.672 69.705 3.549 0 4.935-33.856 6.262-64.438 3.98" fill="none" stroke="#a80036"/><path fill="#A80036" stroke="#a80036" d="M1702.295 140.448l8.643 4.723-3.66-4.314 4.314-3.66-9.297 3.251z"/><text font-family="sans-serif" font-size="13" lengthAdjust="spacingAndGlyphs" textLength="7" x="1778" y="141.255">2</text><path d="M1702.206 132.616c45.078-5.549 104.794-4.12 104.794 4.284 0 8.093-55.366 9.717-99.72 4.873" fill="none" stroke="#a80036"/><path fill="#A80036" stroke="#a80036" d="M1702.206 141.184l8.478 5.011-3.512-4.434 4.435-3.513-9.401 2.936z"/><text font-family="sans-serif" font-size="13" lengthAdjust="spacingAndGlyphs" textLength="7" x="1813" y="141.255">5</text><path d="M1702.221 132.12c57.801-8.468 139.779-6.874 139.779 4.78 0 11.313-77.245 13.146-134.64 5.498" fill="none" stroke="#a80036"/><path fill="#A80036" stroke="#a80036" d="M1702.221 141.68l8.36 5.207-3.408-4.515 4.515-3.408-9.467 2.716z"/><text font-family="sans-serif" font-size="13" lengthAdjust="spacingAndGlyphs" textLength="7" x="1848" y="141.255">6</text><path d="M1651.724 144.495C1602.317 159.03 1489.259 190.767 1392 206.9c-226.162 37.515-502.968 50.54-593.663 53.97" fill="none" stroke="#a80036"/><path fill="#A80036" stroke="#a80036" d="M793.14 261.064l9.143 3.662-4.146-3.849 3.848-4.146-8.845 4.333z"/><text font-family="sans-serif" font-size="13" lengthAdjust="spacingAndGlyphs" textLength="7" x="1464" y="203.755">3</text><path d="M793.139 258.443l853.402-117.355" fill="none" stroke="#a80036"/><path fill="#A80036" stroke="#a80036" d="M1651.74 140.374l-9.462-2.737 4.508 3.418-3.418 4.508 8.371-5.19z"/><text font-family="sans-serif" font-size="13" lengthAdjust="spacingAndGlyphs" textLength="7" x="1277" y="203.755">5</text><path d="M793.22 259.942c75.834-6.034 308.366-25.61 499.78-53.042 4.434-.636 263.733-48.016 353.673-64.456" fill="none" stroke="#a80036"/><path fill="#A80036" stroke="#a80036" d="M1651.843 141.499l-9.573-2.316 4.654 3.215-3.215 4.654 8.134-5.553z"/><text font-family="sans-serif" font-size="13" lengthAdjust="spacingAndGlyphs" textLength="7" x="1369" y="203.755">6</text><path d="M1702.028 139.126c31.352 4.283 83.877 16.735 107.972 52.774 65.462 97.91 71.021 171.045 0 265-19.757 26.137-114.337 43.456-163.76 50.88" fill="none" stroke="#a80036"/><path fill="#A80036" stroke="#a80036" d="M1641.022 508.551l9.489 2.64-4.543-3.372 3.372-4.542-8.318 5.274z"/><text font-family="sans-serif" font-size="13" lengthAdjust="spacingAndGlyphs" textLength="7" x="1862" y="328.755">4</text><path d="M1637.585 486.745c7.27-9.086 15.126-19.626 21.415-29.845 43.767-71.115 61.784-88.508 80-170 9.21-41.205 17.316-56.492 0-95-6.84-15.21-20.194-27.92-32.762-37.278" fill="none" stroke="#a80036"/><path fill="#A80036" stroke="#a80036" d="M1702.016 151.579l4.961 8.508-.905-5.584 5.584-.906-9.64-2.018z"/><text font-family="sans-serif" font-size="13" lengthAdjust="spacingAndGlyphs" textLength="7" x="1732" y="328.755">6</text><path d="M874.278 1506.655c17.495-1.59 34.722.159 34.722 5.245 0 4.57-13.905 6.445-29.418 5.626" fill="none" stroke="#a80036"/><path fill="#A80036" stroke="#a80036" d="M874.278 1517.145l8.69 4.634-3.703-4.276 4.276-3.703-9.263 3.345z"/><text font-family="sans-serif" font-size="13" lengthAdjust="spacingAndGlyphs" textLength="7" x="915" y="1516.255">1</text><path d="M874.295 1503.752c31.819-6.556 69.705-3.84 69.705 8.148 0 11.333-33.856 14.38-64.438 9.14" fill="none" stroke="#a80036"/><path fill="#A80036" stroke="#a80036" d="M874.295 1520.048l8.104 5.597-3.19-4.671 4.671-3.19-9.585 2.264z"/><text font-family="sans-serif" font-size="13" lengthAdjust="spacingAndGlyphs" textLength="7" x="950" y="1516.255">5</text><path d="M823.848 1532.28c-9.67 9.405-19.635 21.417-24.848 34.62-4.882 12.364-5.775 26.941-5.196 39.583" fill="none" stroke="#a80036"/><path fill="#A80036" stroke="#a80036" d="M794.135 1611.77l3.43-9.232-3.743 4.242-4.242-3.742 4.554 8.732z"/><text font-family="sans-serif" font-size="13" lengthAdjust="spacingAndGlyphs" textLength="7" x="800" y="1578.755">2</text><path d="M808.305 1611.642l28.454-69.74" fill="none" stroke="#a80036"/><path fill="#A80036" stroke="#a80036" d="M838.68 1537.196l-7.104 6.822 5.214-2.193 2.193 5.215-.304-9.844z"/><text font-family="sans-serif" font-size="13" lengthAdjust="spacingAndGlyphs" textLength="7" x="827" y="1578.755">1</text><path d="M839.099 1486.642l-27.338-69.74" fill="none" stroke="#a80036"/><path fill="#A80036" stroke="#a80036" d="M809.916 1412.196l-.44 9.839 2.265-5.184 5.184 2.264-7.01-6.92z"/><text font-family="sans-serif" font-size="13" lengthAdjust="spacingAndGlyphs" textLength="7" x="828" y="1453.755">3</text><path d="M797.732 1411.992c-.337 13.708.746 30.73 6.268 44.908 3.81 9.78 10.057 19.135 16.701 27.266" fill="none" stroke="#a80036"/><path fill="#A80036" stroke="#a80036" d="M823.986 1488.056l-2.75-9.457-.476 5.637-5.637-.476 8.863 4.296z"/><text font-family="sans-serif" font-size="13" lengthAdjust="spacingAndGlyphs" textLength="7" x="805" y="1453.755">5</text><path d="M874.293 1510.826c139.102-6.23 804.707-40.41 804.707-123.926v-187.5c0-281.954-3.166-354.297-49-632.5-1.34-8.132-3.298-16.82-5.329-24.835" fill="none" stroke="#a80036"/><path fill="#A80036" stroke="#a80036" d="M1623.403 537.173l-1.613 9.716 2.868-4.876 4.876 2.868-6.131-7.708z"/><text font-family="sans-serif" font-size="13" lengthAdjust="spacingAndGlyphs" textLength="7" x="1679" y="1016.255">4</text><path d="M874.038 1511.135C1019.556 1506.367 1750 1477.902 1750 1386.9v-187.5c0-136.818-54.961-434.15-83-587.5-3.685-20.154-1.466-26.374-10-45-4.06-8.862-9.715-17.679-15.53-25.574" fill="none" stroke="#a80036"/><path fill="#A80036" stroke="#a80036" d="M1638.233 537.04l2.233 9.593.78-5.603 5.604.78-8.617-4.77z"/><text font-family="sans-serif" font-size="13" lengthAdjust="spacingAndGlyphs" textLength="7" x="1737" y="1016.255">6</text><path d="M1326.278 756.655c17.495-1.59 34.722.159 34.722 5.245 0 4.57-13.905 6.445-29.418 5.626" fill="none" stroke="#a80036"/><path fill="#A80036" stroke="#a80036" d="M1326.278 767.145l8.69 4.634-3.703-4.276 4.276-3.703-9.263 3.345z"/><text font-family="sans-serif" font-size="13" lengthAdjust="spacingAndGlyphs" textLength="7" x="1367" y="766.255">1</text><path d="M1326.295 753.752c31.819-6.556 69.705-3.84 69.705 8.148 0 11.333-33.856 14.38-64.438 9.14" fill="none" stroke="#a80036"/><path fill="#A80036" stroke="#a80036" d="M1326.295 770.048l8.104 5.597-3.19-4.671 4.671-3.19-9.585 2.264z"/><text font-family="sans-serif" font-size="13" lengthAdjust="spacingAndGlyphs" textLength="7" x="1402" y="766.255">5</text><path d="M1295.334 787.196l-15.562 69.472" fill="none" stroke="#a80036"/><path fill="#A80036" stroke="#a80036" d="M1278.658 861.642l5.87-7.908-4.777 3.029-3.03-4.778 1.937 9.657z"/><text font-family="sans-serif" font-size="13" lengthAdjust="spacingAndGlyphs" textLength="7" x="1289" y="828.755">2</text><path d="M1267.166 861.873c-2.152-13.535-3.199-30.413.834-44.973 2.433-8.783 6.683-17.572 11.34-25.465" fill="none" stroke="#a80036"/><path fill="#A80036" stroke="#a80036" d="M1281.96 787.148l-8.107 5.594 5.5-1.327 1.327 5.499 1.28-9.766z"/><text font-family="sans-serif" font-size="13" lengthAdjust="spacingAndGlyphs" textLength="7" x="1269" y="828.755">1</text><path d="M1275.76 743.32c-10.912-9.553-22.58-22.181-28.76-36.42-5.297-12.204-6.616-26.758-6.388-39.425" fill="none" stroke="#a80036"/><path fill="#A80036" stroke="#a80036" d="M1240.797 662.173l-4.312 8.855 4.137-3.858 3.858 4.138-3.683-9.135z"/><text font-family="sans-serif" font-size="13" lengthAdjust="spacingAndGlyphs" textLength="7" x="1248" y="703.755">3</text><path d="M1255.535 662.196l31.802 69.74" fill="none" stroke="#a80036"/><path fill="#A80036" stroke="#a80036" d="M1289.482 736.642l-.094-9.849-1.98 5.3-5.3-1.98 7.374 6.529z"/><text font-family="sans-serif" font-size="13" lengthAdjust="spacingAndGlyphs" textLength="7" x="1276" y="703.755">5</text><path d="M1326.1 753.95c40.361-13.723 120.65-44.99 174.9-92.05 41.158-35.704 77.305-88.197 97.627-120.679" fill="none" stroke="#a80036"/><path fill="#A80036" stroke="#a80036" d="M1601.267 536.97l-8.147 5.535 5.509-1.287 1.287 5.508 1.351-9.755z"/><text font-family="sans-serif" font-size="13" lengthAdjust="spacingAndGlyphs" textLength="7" x="1549" y="641.255">4</text><path d="M1321.267 736.838c30.931-37.855 92.289-111.41 148.733-169.938 49.771-51.608 80.777-48.722 118-110 58.12-95.68 79.273-230.276 86.102-289.736" fill="none" stroke="#a80036"/><path fill="#A80036" stroke="#a80036" d="M1674.682 161.988l-4.977 8.499 4.42-3.53 3.53 4.42-2.973-9.389z"/><text font-family="sans-serif" font-size="13" lengthAdjust="spacingAndGlyphs" textLength="7" x="1597" y="453.755">6</text><path d="M382.278 2006.655c17.495-1.59 34.722.159 34.722 5.245 0 4.57-13.905 6.445-29.418 5.626" fill="none" stroke="#a80036"/><path fill="#A80036" stroke="#a80036" d="M382.278 2017.145l8.69 4.634-3.703-4.276 4.276-3.703-9.263 3.345z"/><text font-family="sans-serif" font-size="13" lengthAdjust="spacingAndGlyphs" textLength="7" x="423" y="2016.255">1</text><path d="M382.295 2003.752c31.819-6.556 69.705-3.84 69.705 8.148 0 11.333-33.856 14.38-64.438 9.14" fill="none" stroke="#a80036"/><path fill="#A80036" stroke="#a80036" d="M382.295 2020.048l8.104 5.597-3.19-4.671 4.671-3.19-9.585 2.264z"/><text font-family="sans-serif" font-size="13" lengthAdjust="spacingAndGlyphs" textLength="7" x="458" y="2016.255">5</text><path d="M331.696 2009.591C268.38 2003.447 104.898 1985.206 59 1956.9c-33.214-20.484-53-30.978-53-70v-1500c0-39.023 18.756-51.289 53-70 60.243-32.917 550.989-50.153 678.707-54.108" fill="none" stroke="#a80036"/><path fill="#A80036" stroke="#a80036" d="M742.807 262.635l-9.119-3.721 4.122 3.875-3.875 4.12 8.872-4.274z"/><text font-family="sans-serif" font-size="13" lengthAdjust="spacingAndGlyphs" textLength="7" x="7" y="1141.255">2</text><path d="M742.882 263.778C619.659 273.317 85 318.64 85 386.9v1500c0 52.782 171.244 100.5 241.983 117.96" fill="none" stroke="#a80036"/><path fill="#A80036" stroke="#a80036" d="M331.898 2006.065l-7.789-6.027 2.933 4.837-4.837 2.933 9.693-1.743z"/><text font-family="sans-serif" font-size="13" lengthAdjust="spacingAndGlyphs" textLength="7" x="86" y="1141.255">1</text><path d="M353.247 1986.814c-1.049-13.706-.683-30.727 4.753-44.914 4.13-10.78 11.4-20.853 19.05-29.356" fill="none" stroke="#a80036"/><path fill="#A80036" stroke="#a80036" d="M380.824 1908.5l-9.065 3.85 5.654-.195.195 5.653 3.216-9.309z"/><text font-family="sans-serif" font-size="13" lengthAdjust="spacingAndGlyphs" textLength="7" x="359" y="1953.755">3</text><path d="M396.084 1912.196l-27.338 69.74" fill="none" stroke="#a80036"/><path fill="#A80036" stroke="#a80036" d="M366.901 1986.642l7.009-6.92-5.184 2.265-2.264-5.184.44 9.839z"/><text font-family="sans-serif" font-size="13" lengthAdjust="spacingAndGlyphs" textLength="7" x="386" y="1953.755">5</text><path d="M331.935 2001.47C294.158 1983.881 227 1944.51 227 1886.9v-1375c0-95.767 354.592-119.02 461.714-123.86" fill="none" stroke="#a80036"/><path fill="#A80036" stroke="#a80036" d="M693.925 387.81l-9.167-3.6 4.172 3.82-3.82 4.172 8.815-4.392z"/><text font-family="sans-serif" font-size="13" lengthAdjust="spacingAndGlyphs" textLength="7" x="228" y="1203.755">4</text><path d="M382.29 2011.483C598.08 2007.76 2122 1978.24 2122 1886.9v-1625c0-86.326-314.314-115.84-414.624-123.062" fill="none" stroke="#a80036"/><path fill="#A80036" stroke="#a80036" d="M1702.2 138.472l8.695 4.626-3.707-4.273 4.272-3.707-9.26 3.354z"/><text font-family="sans-serif" font-size="13" lengthAdjust="spacingAndGlyphs" textLength="7" x="2123" y="1078.755">6</text><path d="M882.954 1287.196l-58.692 70.543" fill="none" stroke="#a80036"/><path fill="#A80036" stroke="#a80036" d="M821.015 1361.642l8.83-4.36-5.633.516-.516-5.633-2.681 9.477z"/><text font-family="sans-serif" font-size="13" lengthAdjust="spacingAndGlyphs" textLength="7" x="859" y="1328.755">1</text><path d="M825.275 1372.458c15.412-9.83 34.603-24.029 47.725-40.558 9.421-11.867 16.599-27.046 21.663-40.234" fill="none" stroke="#a80036"/><path fill="#A80036" stroke="#a80036" d="M896.433 1286.907l-6.887 7.04 5.144-2.354 2.354 5.144-.61-9.83z"/><text font-family="sans-serif" font-size="13" lengthAdjust="spacingAndGlyphs" textLength="7" x="883" y="1328.755">1</text><path d="M929.278 1256.655c17.495-1.59 34.722.159 34.722 5.245 0 4.57-13.905 6.445-29.418 5.626" fill="none" stroke="#a80036"/><path fill="#A80036" stroke="#a80036" d="M929.278 1267.145l8.69 4.634-3.703-4.276 4.276-3.703-9.263 3.345z"/><text font-family="sans-serif" font-size="13" lengthAdjust="spacingAndGlyphs" textLength="7" x="970" y="1266.255">2</text><path d="M929.295 1253.752c31.819-6.556 69.705-3.84 69.705 8.148 0 11.333-33.856 14.38-64.438 9.14" fill="none" stroke="#a80036"/><path fill="#A80036" stroke="#a80036" d="M929.295 1270.048l8.104 5.597-3.19-4.671 4.671-3.19-9.585 2.264z"/><text font-family="sans-serif" font-size="13" lengthAdjust="spacingAndGlyphs" textLength="7" x="1005" y="1266.255">5</text><path d="M900.247 1236.814c-1.049-13.706-.683-30.727 4.753-44.914 4.13-10.78 11.4-20.853 19.05-29.356" fill="none" stroke="#a80036"/><path fill="#A80036" stroke="#a80036" d="M927.824 1158.5l-9.065 3.85 5.654-.195.195 5.653 3.216-9.309z"/><text font-family="sans-serif" font-size="13" lengthAdjust="spacingAndGlyphs" textLength="7" x="906" y="1203.755">3</text><path d="M943.084 1162.196l-27.338 69.74" fill="none" stroke="#a80036"/><path fill="#A80036" stroke="#a80036" d="M913.901 1236.642l7.009-6.92-5.184 2.265-2.264-5.184.44 9.839z"/><text font-family="sans-serif" font-size="13" lengthAdjust="spacingAndGlyphs" textLength="7" x="932" y="1203.755">5</text><path d="M890.36 1236.673C849.678 1159.003 732 915.638 732 699.4V511.9c0-32.388-4.37-69.244-8.044-94.496" fill="none" stroke="#a80036"/><path fill="#A80036" stroke="#a80036" d="M723.185 412.197l-2.638 9.489 3.37-4.543 4.544 3.37-5.276-8.316z"/><text font-family="sans-serif" font-size="13" lengthAdjust="spacingAndGlyphs" textLength="7" x="745" y="828.755">4</text><path d="M878.792 1253.72c-38.325-13.56-111.562-44.036-156.792-91.82-93.197-98.46-132-139.427-132-275V574.4c0-161.72 6.891-240.112 136-337.5 75.316-56.811 766.636-91.574 920.671-98.654" fill="none" stroke="#a80036"/><path fill="#A80036" stroke="#a80036" d="M1651.922 138.006l-9.173-3.584 4.178 3.813-3.812 4.178 8.807-4.407z"/><text font-family="sans-serif" font-size="13" lengthAdjust="spacingAndGlyphs" textLength="7" x="591" y="703.755">6</text><path d="M912.306 1287.07c3.07 9.358 6.564 20.072 9.694 29.83 6.099 19.014 12.977 40.987 17.394 55.167" fill="none" stroke="#a80036"/><path fill="#A80036" stroke="#a80036" d="M940.904 1376.92l1.145-9.783-2.631 5.008-5.008-2.63 6.494 7.404z"/><path d="M1641.278 508.403c17.495-1.06 34.722.106 34.722 3.497 0 3.046-13.905 4.296-29.418 3.75" fill="none" stroke="#a80036"/><path fill="#A80036" stroke="#a80036" d="M1641.278 515.396l8.798 4.426-3.804-4.186 4.187-3.804-9.181 3.564z"/><text font-family="sans-serif" font-size="13" lengthAdjust="spacingAndGlyphs" textLength="7" x="1682" y="516.255">1</text><path d="M1641.295 506.468c31.819-4.371 69.705-2.56 69.705 5.432 0 7.555-33.856 9.586-64.438 6.094" fill="none" stroke="#a80036"/><path fill="#A80036" stroke="#a80036" d="M1641.295 517.332l8.431 5.09-3.47-4.467 4.467-3.47-9.428 2.847z"/><text font-family="sans-serif" font-size="13" lengthAdjust="spacingAndGlyphs" textLength="7" x="1717" y="516.255">4</text><path d="M1641.206 505.341c45.078-8.494 104.794-6.307 104.794 6.559 0 12.389-55.366 14.875-99.72 7.46" fill="none" stroke="#a80036"/><path fill="#A80036" stroke="#a80036" d="M1641.206 518.459l8.161 5.512-3.238-4.638 4.638-3.238-9.561 2.364z"/><text font-family="sans-serif" font-size="13" lengthAdjust="spacingAndGlyphs" textLength="7" x="1752" y="516.255">5</text><path d="M1590.779 522.304C1555.705 536.597 1490.07 562.717 1433 581.9c-55.492 18.652-121.35 36.97-158.85 47.048" fill="none" stroke="#a80036"/><path fill="#A80036" stroke="#a80036" d="M1269.273 630.255l9.729 1.534-4.9-2.828 2.829-4.9-7.658 6.194z"/><text font-family="sans-serif" font-size="13" lengthAdjust="spacingAndGlyphs" textLength="7" x="1474" y="578.755">2</text><path d="M1269.003 626.37c40.645-17.048 119.385-49.764 147.997-59.47 58.96-20.003 129.527-38.182 168.804-47.804" fill="none" stroke="#a80036"/><path fill="#A80036" stroke="#a80036" d="M1590.902 517.852l-9.692-1.752 4.834 2.938-2.938 4.834 7.796-6.02z"/><text font-family="sans-serif" font-size="13" lengthAdjust="spacingAndGlyphs" textLength="7" x="1418" y="578.755">1</text><path d="M1590.678 507.422c-66.617-11.698-252.326-43.767-407.678-65.522-163.182-22.851-359.53-44.066-433.678-51.855" fill="none" stroke="#a80036"/><path fill="#A80036" stroke="#a80036" d="M744.197 389.508l8.534 4.916-3.562-4.395 4.396-3.56-9.368 3.039z"/><text font-family="sans-serif" font-size="13" lengthAdjust="spacingAndGlyphs" textLength="7" x="1279" y="453.755">3</text><path d="M744.116 388.223c80.508 4.47 339.23 20.616 550.884 53.677 108.041 16.876 234.287 47.734 290.879 62.167" fill="none" stroke="#a80036"/><path fill="#A80036" stroke="#a80036" d="M1590.81 505.328l-7.728-6.105 2.884 4.866-4.866 2.884 9.71-1.645z"/><text font-family="sans-serif" font-size="13" lengthAdjust="spacingAndGlyphs" textLength="7" x="1375" y="453.755">5</text><path d="M823.278 1631.655c17.495-1.59 34.722.159 34.722 5.245 0 4.57-13.905 6.445-29.418 5.626" fill="none" stroke="#a80036"/><path fill="#A80036" stroke="#a80036" d="M823.278 1642.145l8.69 4.634-3.703-4.276 4.276-3.703-9.263 3.345z"/><text font-family="sans-serif" font-size="13" lengthAdjust="spacingAndGlyphs" textLength="7" x="864" y="1641.255">2</text><path d="M823.295 1628.752c31.819-6.556 69.705-3.84 69.705 8.148 0 11.333-33.856 14.38-64.438 9.14" fill="none" stroke="#a80036"/><path fill="#A80036" stroke="#a80036" d="M823.295 1645.048l8.104 5.597-3.19-4.671 4.671-3.19-9.585 2.264z"/><text font-family="sans-serif" font-size="13" lengthAdjust="spacingAndGlyphs" textLength="7" x="899" y="1641.255">6</text><path d="M772.848 1634.784C683.396 1626.58 386 1593.188 386 1511.9v-187.5c0-111.183-9-138.817-9-250V386.9c0-160.072 194.105-49.493 346-100 5.064-1.684 10.215-3.943 15.136-6.417" fill="none" stroke="#a80036"/><path fill="#A80036" stroke="#a80036" d="M742.581 278.161l-9.83.622 5.398 1.693-1.693 5.398 6.125-7.713z"/><text font-family="sans-serif" font-size="13" lengthAdjust="spacingAndGlyphs" textLength="7" x="378" y="953.755">3</text><path d="M772.97 1659.247l-85.712 76.53" fill="none" stroke="#a80036"/><path fill="#A80036" stroke="#a80036" d="M683.284 1739.324l9.378-3.01-5.648-.32.32-5.647-4.05 8.977z"/><text font-family="sans-serif" font-size="13" lengthAdjust="spacingAndGlyphs" textLength="7" x="737" y="1703.755">4</text><path d="M669.88 1736.778c7.693-14.38 18.762-32.055 32.12-44.878 19.243-18.472 45.857-33.087 66.184-42.595" fill="none" stroke="#a80036"/><path fill="#A80036" stroke="#a80036" d="M772.944 1647.117l-9.848.124 5.305 1.964-1.964 5.305 6.507-7.393z"/><text font-family="sans-serif" font-size="13" lengthAdjust="spacingAndGlyphs" textLength="7" x="703" y="1703.755">6</text><path d="M823.319 1636.176c120.332-4.157 644.99-30.405 1040.681-179.276 224.984-84.646 187-267.12 187-507.5V261.9c0-72.326-254.773-110.414-343.763-121.512" fill="none" stroke="#a80036"/><path fill="#A80036" stroke="#a80036" d="M1702.12 139.757l8.443 5.071-3.48-4.46 4.459-3.48-9.422 2.869z"/><text font-family="sans-serif" font-size="13" lengthAdjust="spacingAndGlyphs" textLength="7" x="2052" y="891.255">5</text><path d="M683.278 1756.655c17.495-1.59 34.722.159 34.722 5.245 0 4.57-13.905 6.445-29.418 5.626" fill="none" stroke="#a80036"/><path fill="#A80036" stroke="#a80036" d="M683.278 1767.145l8.69 4.634-3.703-4.276 4.276-3.703-9.263 3.345z"/><text font-family="sans-serif" font-size="13" lengthAdjust="spacingAndGlyphs" textLength="7" x="724" y="1766.255">1</text><path d="M683.295 1753.752c31.819-6.556 69.705-3.84 69.705 8.148 0 11.333-33.856 14.38-64.438 9.14" fill="none" stroke="#a80036"/><path fill="#A80036" stroke="#a80036" d="M683.295 1770.048l8.104 5.597-3.19-4.671 4.671-3.19-9.585 2.264z"/><text font-family="sans-serif" font-size="13" lengthAdjust="spacingAndGlyphs" textLength="7" x="759" y="1766.255">4</text><path d="M632.916 1774.342l-196.86 97.65" fill="none" stroke="#a80036"/><path fill="#A80036" stroke="#a80036" d="M431.357 1874.322l9.84-.416-5.361-1.806 1.806-5.36-6.285 7.582z"/><text font-family="sans-serif" font-size="13" lengthAdjust="spacingAndGlyphs" textLength="7" x="549" y="1828.755">2</text><path d="M431.237 1880.792c32.226-8.38 89.156-25.15 133.763-48.892 22.887-12.182 46.192-29.735 63.747-44.216" fill="none" stroke="#a80036"/><path fill="#A80036" stroke="#a80036" d="M632.63 1784.455l-9.478 2.68 5.633.517-.517 5.634 4.361-8.831z"/><text font-family="sans-serif" font-size="13" lengthAdjust="spacingAndGlyphs" textLength="7" x="591" y="1828.755">1</text><path d="M632.828 1744.655C592.772 1714.946 519 1649.972 519 1574.4V511.9c0-78.936 113.417-109.872 169.434-120.338" fill="none" stroke="#a80036"/><path fill="#A80036" stroke="#a80036" d="M693.67 390.613l-9.57-2.33 4.65 3.222-3.222 4.65 8.142-5.542z"/><text font-family="sans-serif" font-size="13" lengthAdjust="spacingAndGlyphs" textLength="7" x="520" y="1078.755">3</text><path d="M683.192 1760.595C854.203 1751.58 1838 1697.093 1838 1636.9v-1000c0-86.944-130.887-114.067-191.66-121.975" fill="none" stroke="#a80036"/><path fill="#A80036" stroke="#a80036" d="M1641.035 514.26l8.433 5.088-3.472-4.466 4.466-3.472-9.427 2.85z"/><text font-family="sans-serif" font-size="13" lengthAdjust="spacingAndGlyphs" textLength="7" x="1839" y="1141.255">5</text><path d="M1298.278 881.655c17.495-1.59 34.722.159 34.722 5.245 0 4.57-13.905 6.445-29.418 5.626" fill="none" stroke="#a80036"/><path fill="#A80036" stroke="#a80036" d="M1298.278 892.145l8.69 4.634-3.703-4.276 4.276-3.703-9.263 3.345z"/><text font-family="sans-serif" font-size="13" lengthAdjust="spacingAndGlyphs" textLength="7" x="1339" y="891.255">2</text><path d="M1298.295 878.752c31.819-6.556 69.705-3.84 69.705 8.148 0 11.333-33.856 14.38-64.438 9.14" fill="none" stroke="#a80036"/><path fill="#A80036" stroke="#a80036" d="M1298.295 895.048l8.104 5.597-3.19-4.671 4.671-3.19-9.585 2.264z"/><text font-family="sans-serif" font-size="13" lengthAdjust="spacingAndGlyphs" textLength="7" x="1374" y="891.255">6</text><path d="M1247.935 872.033c-43.439-27.114-132.504-88.89-178.935-165.133-92.958-152.644 27.208-262.467-98-390-24.051-24.498-122.297-42.682-172.764-50.61" fill="none" stroke="#a80036"/><path fill="#A80036" stroke="#a80036" d="M793.21 265.51l8.28 5.334-3.338-4.567 4.566-3.338-9.507 2.571z"/><text font-family="sans-serif" font-size="13" lengthAdjust="spacingAndGlyphs" textLength="7" x="1031" y="578.755">3</text><path d="M1261.937 912.012c-6.875 14.036-16.562 31.37-27.937 44.888-11.067 13.152-25.643 25.427-38.46 35.029" fill="none" stroke="#a80036"/><path fill="#A80036" stroke="#a80036" d="M1191.268 995.08l9.617-2.124-5.594-.844.845-5.593-4.868 8.561z"/><text font-family="sans-serif" font-size="13" lengthAdjust="spacingAndGlyphs" textLength="7" x="1245" y="953.755">4</text><path d="M1186.922 986.866c11.234-13.388 25.35-30.127 38.078-44.966a4024.111 4024.111 0 0 1 22.411-25.869" fill="none" stroke="#a80036"/><path fill="#A80036" stroke="#a80036" d="M1250.925 912.011l-8.934 4.145 5.644-.38.38 5.644 2.91-9.409z"/><text font-family="sans-serif" font-size="13" lengthAdjust="spacingAndGlyphs" textLength="7" x="1226" y="953.755">6</text><path d="M1298.106 882.343C1409.362 861.597 1855.919 772.301 1935 661.9c57.108-79.726 35.476-137.152-17-220-50.778-80.167-124.867-34.995-183-110-10.224-13.191-36.967-113.2-50.264-164.639" fill="none" stroke="#a80036"/><path fill="#A80036" stroke="#a80036" d="M1683.415 162.139l-1.625 9.714 2.874-4.873 4.872 2.875-6.12-7.716z"/><text font-family="sans-serif" font-size="13" lengthAdjust="spacingAndGlyphs" textLength="7" x="1965" y="516.255">5</text><path d="M1442.217 393.209c28.87 8.048 76.69 23.962 111.783 48.69 15.755 11.103 30.23 26.962 41.226 40.778" fill="none" stroke="#a80036"/><path fill="#A80036" stroke="#a80036" d="M1598.524 486.892l-2.396-9.553-.685 5.615-5.616-.685 8.697 4.623z"/><text font-family="sans-serif" font-size="13" lengthAdjust="spacingAndGlyphs" textLength="7" x="1572" y="453.755">1</text><path d="M1408.673 412.186C1394.778 451.637 1363.89 528.807 1319 581.9c-12.66 14.973-30.186 28.117-45.112 37.798" fill="none" stroke="#a80036"/><path fill="#A80036" stroke="#a80036" d="M1269.347 622.59l9.74-1.46-5.522-1.226 1.225-5.523-5.443 8.209z"/><text font-family="sans-serif" font-size="13" lengthAdjust="spacingAndGlyphs" textLength="7" x="1378" y="516.255">2</text><path d="M1391.867 404.284C1342.83 439.15 1232.997 522.02 1162 611.9c-96.81 122.558-92.639 172.612-183 300-78.936 111.282-389 338.565-389 475v187.5c0 120.816-103.386 236.095-155.165 286.255" fill="none" stroke="#a80036"/><path fill="#A80036" stroke="#a80036" d="M431.199 1864.153l9.259-3.357-5.656-.11.11-5.655-3.713 9.122z"/><text font-family="sans-serif" font-size="13" lengthAdjust="spacingAndGlyphs" textLength="7" x="783" y="1141.255">3</text><path d="M1398.92 411.958c-29 39.143-88.97 115.903-150.92 169.942-18.393 16.045-30.433 11.2-46 30-26.82 32.39-36 45.448-36 87.5v281.904" fill="none" stroke="#a80036"/><path fill="#A80036" stroke="#a80036" d="M1166 986.523l4-9-4 4-4-4 4 9z"/><text font-family="sans-serif" font-size="13" lengthAdjust="spacingAndGlyphs" textLength="7" x="1167" y="703.755">4</text><path d="M1442.323 388.714c61.265 5.455 220.336 26.093 327.677 98.186 93.686 62.922 139 99.645 139 212.5v312.5c0 277.82 11 347.18 11 625v250c0 79.891-1314.677 118.382-1532.576 124.213" fill="none" stroke="#a80036"/><path fill="#A80036" stroke="#a80036" d="M382.184 2011.252l9.103 3.76-4.105-3.893 3.892-4.105-8.89 4.238z"/><text font-family="sans-serif" font-size="13" lengthAdjust="spacingAndGlyphs" textLength="7" x="1912" y="1203.755">5</text><path d="M1425.124 412.043c19.9 66.531 64.437 250.585-7.124 374.857-25.744 44.706-80.528 73.918-114.897 88.641" fill="none" stroke="#a80036"/><path fill="#A80036" stroke="#a80036" d="M1298.186 877.609l9.847.199-5.238-2.137 2.137-5.238-6.746 7.176z"/><text font-family="sans-serif" font-size="13" lengthAdjust="spacingAndGlyphs" textLength="7" x="1458" y="641.255">6</text><path d="M1191.278 1006.655c17.495-1.59 34.722.159 34.722 5.245 0 4.57-13.905 6.445-29.418 5.626" fill="none" stroke="#a80036"/><path fill="#A80036" stroke="#a80036" d="M1191.278 1017.145l8.69 4.634-3.703-4.276 4.276-3.703-9.263 3.345z"/><text font-family="sans-serif" font-size="13" lengthAdjust="spacingAndGlyphs" textLength="7" x="1232" y="1016.255">1</text><path d="M1191.295 1003.752c31.819-6.556 69.705-3.84 69.705 8.148 0 11.333-33.856 14.38-64.438 9.14" fill="none" stroke="#a80036"/><path fill="#A80036" stroke="#a80036" d="M1191.295 1020.048l8.104 5.597-3.19-4.671 4.671-3.19-9.585 2.264z"/><text font-family="sans-serif" font-size="13" lengthAdjust="spacingAndGlyphs" textLength="7" x="1267" y="1016.255">4</text><path d="M1140.61 1024.37c-21.49 10.751-52.958 26.957-79.61 42.53-27.13 15.852-57.043 35.41-78.495 49.82" fill="none" stroke="#a80036"/><path fill="#A80036" stroke="#a80036" d="M978.331 1119.531l9.7-1.709-5.553-1.083 1.084-5.553-5.231 8.345z"/><text font-family="sans-serif" font-size="13" lengthAdjust="spacingAndGlyphs" textLength="7" x="1062" y="1078.755">2</text><path d="M978.385 1127.3c25.07-9.924 64.118-26.583 95.615-45.4 22.265-13.302 45.495-31.011 63.041-45.29" fill="none" stroke="#a80036"/><path fill="#A80036" stroke="#a80036" d="M1140.922 1033.434l-9.498 2.606 5.63.561-.562 5.629 4.43-8.796z"/><text font-family="sans-serif" font-size="13" lengthAdjust="spacingAndGlyphs" textLength="7" x="1096" y="1078.755">1</text><path d="M1140.917 1000.303C1091.797 976.255 982.852 916.09 927 831.9c-98.8-148.93 13.915-250.657-98-390-20.18-25.126-54.803-39.743-79.823-47.509" fill="none" stroke="#a80036"/><path fill="#A80036" stroke="#a80036" d="M744.309 392.928l7.468 6.42-2.68-4.98 4.982-2.68-9.77 1.24z"/><text font-family="sans-serif" font-size="13" lengthAdjust="spacingAndGlyphs" textLength="7" x="884" y="703.755">3</text><path d="M1191.242 1005.464c44.17-12.24 136.678-42.33 198.758-93.564 104.605-86.33 107.378-132.432 175-250 19.532-33.958 24.852-42.757 37-80 4.136-12.681 7.27-27.072 9.511-39.493" fill="none" stroke="#a80036"/><path fill="#A80036" stroke="#a80036" d="M1612.418 537.215l-5.49 8.177 4.63-3.252 3.252 4.629-2.392-9.554z"/><text font-family="sans-serif" font-size="13" lengthAdjust="spacingAndGlyphs" textLength="7" x="1525" y="766.255">5</text><path d="M793.278 256.655c17.495-1.59 34.722.159 34.722 5.245 0 4.57-13.905 6.445-29.418 5.626" fill="none" stroke="#a80036"/><path fill="#A80036" stroke="#a80036" d="M793.278 267.145l8.69 4.634-3.703-4.276 4.276-3.703-9.263 3.345z"/><text font-family="sans-serif" font-size="13" lengthAdjust="spacingAndGlyphs" textLength="7" x="834" y="266.255">2</text><path d="M793.295 253.752c31.819-6.556 69.705-3.84 69.705 8.148 0 11.333-33.856 14.38-64.438 9.14" fill="none" stroke="#a80036"/><path fill="#A80036" stroke="#a80036" d="M793.295 270.048l8.104 5.597-3.19-4.671 4.671-3.19-9.585 2.264z"/><text font-family="sans-serif" font-size="13" lengthAdjust="spacingAndGlyphs" textLength="7" x="869" y="266.255">3</text><path d="M758.084 287.195l-27.338 69.742" fill="none" stroke="#a80036"/><path fill="#A80036" stroke="#a80036" d="M728.901 361.642l7.009-6.92-5.184 2.265-2.264-5.184.44 9.839z"/><text font-family="sans-serif" font-size="13" lengthAdjust="spacingAndGlyphs" textLength="7" x="747" y="328.755">4</text><path d="M716.732 361.808c-.337-13.708.746-30.73 6.268-44.908 3.81-9.78 10.057-19.135 16.701-27.266" fill="none" stroke="#a80036"/><path fill="#A80036" stroke="#a80036" d="M742.986 285.744l-8.863 4.295 5.637-.475.476 5.637 2.75-9.457z"/><text font-family="sans-serif" font-size="13" lengthAdjust="spacingAndGlyphs" textLength="7" x="724" y="328.755">6</text><path d="M825.278 1381.655c17.495-1.59 34.722.159 34.722 5.245 0 4.57-13.905 6.445-29.418 5.626" fill="none" stroke="#a80036"/><path fill="#A80036" stroke="#a80036" d="M825.278 1392.145l8.69 4.634-3.703-4.276 4.276-3.703-9.263 3.345z"/><text font-family="sans-serif" font-size="13" lengthAdjust="spacingAndGlyphs" textLength="7" x="866" y="1391.255">2</text><path d="M825.295 1378.752c31.819-6.556 69.705-3.84 69.705 8.148 0 11.333-33.856 14.38-64.438 9.14" fill="none" stroke="#a80036"/><path fill="#A80036" stroke="#a80036" d="M825.295 1395.048l8.104 5.597-3.19-4.671 4.671-3.19-9.585 2.264z"/><text font-family="sans-serif" font-size="13" lengthAdjust="spacingAndGlyphs" textLength="7" x="901" y="1391.255">3</text><path d="M789.394 1361.754c-16.888-41.067-49.777-125.426-67.394-199.854-47.756-201.761-61-255.164-61-462.5V511.9c0-35.134 19.088-71.095 35.363-95.37" fill="none" stroke="#a80036"/><path fill="#A80036" stroke="#a80036" d="M699.364 412.135l-8.38 5.176 5.56-1.047 1.047 5.559 1.773-9.688z"/><text font-family="sans-serif" font-size="13" lengthAdjust="spacingAndGlyphs" textLength="7" x="672" y="891.255">4</text><path d="M774.967 1378.646C694.55 1350.39 448 1249.483 448 1074.4V386.9c0-61.864 210.125-105.547 289.832-119.892" fill="none" stroke="#a80036"/><path fill="#A80036" stroke="#a80036" d="M742.89 266.106l-9.563-2.358 4.64 3.236-3.235 4.64 8.158-5.519z"/><text font-family="sans-serif" font-size="13" lengthAdjust="spacingAndGlyphs" textLength="7" x="449" y="828.755">6</text><path d="M1269.278 631.655c17.495-1.59 34.722.159 34.722 5.245 0 4.57-13.905 6.445-29.418 5.626" fill="none" stroke="#a80036"/><path fill="#A80036" stroke="#a80036" d="M1269.278 642.145l8.69 4.634-3.703-4.276 4.276-3.703-9.263 3.345z"/><text font-family="sans-serif" font-size="13" lengthAdjust="spacingAndGlyphs" textLength="7" x="1310" y="641.255">2</text><path d="M1269.295 628.752c31.819-6.556 69.705-3.84 69.705 8.148 0 11.333-33.856 14.38-64.438 9.14" fill="none" stroke="#a80036"/><path fill="#A80036" stroke="#a80036" d="M1269.295 645.048l8.104 5.597-3.19-4.671 4.671-3.19-9.585 2.264z"/><text font-family="sans-serif" font-size="13" lengthAdjust="spacingAndGlyphs" textLength="7" x="1345" y="641.255">3</text><path d="M1218.623 623.855c-21.155-10.965-52.022-27.171-78.623-41.955-107.938-59.99-126.822-90.602-240-140-51.067-22.289-113.942-39.191-150.547-48.057" fill="none" stroke="#a80036"/><path fill="#A80036" stroke="#a80036" d="M744.248 392.593l7.818 5.99-2.956-4.823 4.823-2.955-9.685 1.788z"/><text font-family="sans-serif" font-size="13" lengthAdjust="spacingAndGlyphs" textLength="7" x="1065" y="516.255">4</text><path d="M1235.892 611.61c-21.08-61.408-83.768-218.9-193.892-294.71-39.454-27.161-181.045-45.143-243.749-51.947" fill="none" stroke="#a80036"/><path fill="#A80036" stroke="#a80036" d="M793.154 264.405l8.521 4.939-3.55-4.405 4.404-3.55-9.375 3.016z"/><text font-family="sans-serif" font-size="13" lengthAdjust="spacingAndGlyphs" textLength="7" x="1164" y="453.755">6</text><path d="M431.278 1881.655c17.495-1.59 34.722.159 34.722 5.245 0 4.57-13.905 6.445-29.418 5.626" fill="none" stroke="#a80036"/><path fill="#A80036" stroke="#a80036" d="M431.278 1892.145l8.69 4.634-3.703-4.276 4.276-3.703-9.263 3.345z"/><text font-family="sans-serif" font-size="13" lengthAdjust="spacingAndGlyphs" textLength="7" x="472" y="1891.255">2</text><path d="M431.295 1878.752c31.819-6.556 69.705-3.84 69.705 8.148 0 11.333-33.856 14.38-64.438 9.14" fill="none" stroke="#a80036"/><path fill="#A80036" stroke="#a80036" d="M431.295 1895.048l8.104 5.597-3.19-4.671 4.671-3.19-9.585 2.264z"/><text font-family="sans-serif" font-size="13" lengthAdjust="spacingAndGlyphs" textLength="7" x="507" y="1891.255">3</text><path d="M380.651 1868.335C353.725 1846.263 315 1806.728 315 1761.9v-562.5c0-111.183-9-138.817-9-250V511.9c0-79.957 287.158-113.483 382.583-122.416" fill="none" stroke="#a80036"/><path fill="#A80036" stroke="#a80036" d="M693.787 389.003l-9.33-3.155 4.35 3.615-3.614 4.351 8.594-4.81z"/><text font-family="sans-serif" font-size="13" lengthAdjust="spacingAndGlyphs" textLength="7" x="316" y="1141.255">4</text><path d="M380.653 1885.868C317.096 1881.79 156 1861.62 156 1761.9v-1375c0-60.04 457.987-109.745 581.58-122.066" fill="none" stroke="#a80036"/><path fill="#A80036" stroke="#a80036" d="M742.868 264.31l-9.351-3.093 4.375 3.586-3.585 4.375 8.56-4.869z"/><text font-family="sans-serif" font-size="13" lengthAdjust="spacingAndGlyphs" textLength="7" x="157" y="1078.755">6</text><path d="M978.278 1131.655c17.495-1.59 34.722.159 34.722 5.245 0 4.57-13.905 6.445-29.418 5.626" fill="none" stroke="#a80036"/><path fill="#A80036" stroke="#a80036" d="M978.278 1142.145l8.69 4.634-3.703-4.276 4.276-3.703-9.263 3.345z"/><text font-family="sans-serif" font-size="13" lengthAdjust="spacingAndGlyphs" textLength="7" x="1019" y="1141.255">2</text><path d="M978.295 1128.752c31.819-6.556 69.705-3.84 69.705 8.148 0 11.333-33.856 14.38-64.438 9.14" fill="none" stroke="#a80036"/><path fill="#A80036" stroke="#a80036" d="M978.295 1145.048l8.104 5.597-3.19-4.671 4.671-3.19-9.585 2.264z"/><text font-family="sans-serif" font-size="13" lengthAdjust="spacingAndGlyphs" textLength="7" x="1054" y="1141.255">3</text><path d="M939.97 1111.849c-4.495-9.253-9.313-19.928-12.97-29.95-100.846-276.37-44.36-373.512-169-640-4.1-8.767-9.621-17.608-15.216-25.562" fill="none" stroke="#a80036"/><path fill="#A80036" stroke="#a80036" d="M739.676 412.016l2.008 9.642.912-5.583 5.582.912-8.502-4.97z"/><text font-family="sans-serif" font-size="13" lengthAdjust="spacingAndGlyphs" textLength="7" x="856" y="766.255">4</text><path d="M953 1111.523V1011.9 824.4c0-206.442 60.467-283.858-43-462.5-25.35-43.77-78.45-73.115-112.048-88.147" fill="none" stroke="#a80036"/><path fill="#A80036" stroke="#a80036" d="M793.142 271.64l6.63 7.283-2.052-5.272 5.271-2.052-9.849.04z"/><text font-family="sans-serif" font-size="13" lengthAdjust="spacingAndGlyphs" textLength="7" x="961" y="703.755">6</text><path d="M927.858 1157.676c-11.23 9.835-24.284 22.07-34.858 34.224-39.96 45.925-46.816 64.82-56 125-1.006 6.59-3.797 9.52 0 15 21.63 31.211 47.684 10.06 80 30 5.946 3.67 11.74 8.766 16.426 13.402" fill="none" stroke="#a80036"/><path fill="#A80036" stroke="#a80036" d="M937.081 1379.045l-3.425-9.234-.068 5.657-5.656-.068 9.15 3.645z"/><path d="M744.278 384.277c17.495-.794 34.722.08 34.722 2.623 0 2.285-13.905 3.222-29.418 2.813" fill="none" stroke="#a80036"/><path fill="#A80036" stroke="#a80036" d="M744.278 389.522l8.85 4.32-3.854-4.14 4.141-3.854-9.137 3.674z"/><text font-family="sans-serif" font-size="13" lengthAdjust="spacingAndGlyphs" textLength="7" x="785" y="391.255">1</text><path d="M744.295 382.826c31.819-3.278 69.705-1.92 69.705 4.074 0 5.666-33.856 7.19-64.438 4.57" fill="none" stroke="#a80036"/><path fill="#A80036" stroke="#a80036" d="M744.295 390.974l8.585 4.827-3.607-4.358 4.357-3.607-9.335 3.138z"/><text font-family="sans-serif" font-size="13" lengthAdjust="spacingAndGlyphs" textLength="7" x="820" y="391.255">2</text><path d="M744.206 381.98C789.284 375.61 849 377.25 849 386.9c0 9.292-55.366 11.157-99.72 5.595" fill="none" stroke="#a80036"/><path fill="#A80036" stroke="#a80036" d="M744.206 391.819l8.393 5.153-3.437-4.493 4.493-3.436-9.45 2.776z"/><text font-family="sans-serif" font-size="13" lengthAdjust="spacingAndGlyphs" textLength="7" x="855" y="391.255">3</text><path d="M744.221 381.412C802.022 371.69 884 373.519 884 386.9c0 12.989-77.245 15.093-134.64 6.313" fill="none" stroke="#a80036"/><path fill="#A80036" stroke="#a80036" d="M744.221 392.388l8.253 5.375-3.316-4.583 4.583-3.315-9.52 2.523z"/><text font-family="sans-serif" font-size="13" lengthAdjust="spacingAndGlyphs" textLength="7" x="890" y="391.255">4</text></svg>