<svg width="160mm" height="90mm" viewBox="0 0 16000 9000" xmlns="http://www.w3.org/2000/svg" stroke-width="28.222" stroke-linejoin="round"><path fill="#FFF" d="M8000 8999H0V0h15999v8999H8000z"/><path fill="none" stroke="#B3B3B3" d="M8219 8164H760V383h14919v7781H8219zM15679 8163H760M15679 7051H760M15679 5939H760M15679 4827H760M15679 3717H760M15679 2605H760M15679 1493H760M15679 382H760M760 8313v-150M760 8313v-150M4490 8313v-150M4490 8313v-150M8219 8313v-150M8219 8313v-150M11949 8313v-150M11949 8313v-150M15679 8313v-150M15679 8313v-150M760 8163h14919M610 8163h150M610 8163h150M610 7051h150M610 7051h150M610 5939h150M610 5939h150M610 4827h150M610 4827h150M610 3717h150M610 3717h150M610 2605h150M610 2605h150M610 1493h150M610 1493h150M610 382h150M610 382h150M760 8163V382"/><path fill="#004586" d="M12881 8163h1865V1776h-1865v6387zM9151 8163h1865v-560H9151v560zM5422 8163h1865v-430H5422v430zM1692 8163h1865v-35H1692v35z"/><text class="TextShape"><tspan class="TextParagraph" font-family="Liberation Sans, sans-serif" font-size="353" font-weight="400"><tspan class="TextPosition" x="2260" y="8737"><tspan>Rust</tspan></tspan></tspan></text><text class="TextShape"><tspan class="TextParagraph" font-family="Liberation Sans, sans-serif" font-size="353" font-weight="400"><tspan class="TextPosition" x="5801" y="8737"><tspan>Python</tspan></tspan></tspan></text><text class="TextShape"><tspan class="TextParagraph" font-family="Liberation Sans, sans-serif" font-size="353" font-weight="400"><tspan class="TextPosition" x="9679" y="8737"><tspan>Ruby</tspan></tspan></tspan></text><text class="TextShape"><tspan class="TextParagraph" font-family="Liberation Sans, sans-serif" font-size="353" font-weight="400"><tspan class="TextPosition" x="13409" y="8737"><tspan>Perl6</tspan></tspan></tspan></text><text class="TextShape"><tspan class="TextParagraph" font-family="Liberation Sans, sans-serif" font-size="353" font-weight="400"><tspan class="TextPosition" x="321" y="8286"><tspan>0</tspan></tspan></tspan></text><text class="TextShape"><tspan class="TextParagraph" font-family="Liberation Sans, sans-serif" font-size="353" font-weight="400"><tspan class="TextPosition" x="321" y="7174"><tspan>1</tspan></tspan></tspan></text><text class="TextShape"><tspan class="TextParagraph" font-family="Liberation Sans, sans-serif" font-size="353" font-weight="400"><tspan class="TextPosition" x="321" y="6062"><tspan>2</tspan></tspan></tspan></text><text class="TextShape"><tspan class="TextParagraph" font-family="Liberation Sans, sans-serif" font-size="353" font-weight="400"><tspan class="TextPosition" x="321" y="4950"><tspan>3</tspan></tspan></tspan></text><text class="TextShape"><tspan class="TextParagraph" font-family="Liberation Sans, sans-serif" font-size="353" font-weight="400"><tspan class="TextPosition" x="321" y="3839"><tspan>4</tspan></tspan></tspan></text><text class="TextShape"><tspan class="TextParagraph" font-family="Liberation Sans, sans-serif" font-size="353" font-weight="400"><tspan class="TextPosition" x="321" y="2727"><tspan>5</tspan></tspan></tspan></text><text class="TextShape"><tspan class="TextParagraph" font-family="Liberation Sans, sans-serif" font-size="353" font-weight="400"><tspan class="TextPosition" x="321" y="1615"><tspan>6</tspan></tspan></tspan></text><text class="TextShape"><tspan class="TextParagraph" font-family="Liberation Sans, sans-serif" font-size="353" font-weight="400"><tspan class="TextPosition" x="321" y="504"><tspan>7</tspan></tspan></tspan></text></svg>