<?xml version="1.0" encoding="utf-8" standalone="no"?>
<!DOCTYPE svg PUBLIC "-//W3C//DTD SVG 1.1//EN"
  "http://www.w3.org/Graphics/SVG/1.1/DTD/svg11.dtd">
<svg xmlns:xlink="http://www.w3.org/1999/xlink" width="720pt" height="432pt" viewBox="0 0 720 432" xmlns="http://www.w3.org/2000/svg" version="1.1">
 <metadata>
  <rdf:RDF xmlns:dc="http://purl.org/dc/elements/1.1/" xmlns:cc="http://creativecommons.org/ns#" xmlns:rdf="http://www.w3.org/1999/02/22-rdf-syntax-ns#">
   <cc:Work>
    <dc:type rdf:resource="http://purl.org/dc/dcmitype/StillImage"/>
    <dc:date>2023-12-26T14:00:15.492626</dc:date>
    <dc:format>image/svg+xml</dc:format>
    <dc:creator>
     <cc:Agent>
      <dc:title>Matplotlib v3.8.2, https://matplotlib.org/</dc:title>
     </cc:Agent>
    </dc:creator>
   </cc:Work>
  </rdf:RDF>
 </metadata>
 <defs>
  <style type="text/css">*{stroke-linejoin: round; stroke-linecap: butt}</style>
 </defs>
 <g id="figure_1">
  <g id="patch_1">
   <path d="M 0 432 
L 720 432 
L 720 0 
L 0 0 
z
" style="fill: #ffffff"/>
  </g>
  <g id="axes_1">
   <g id="patch_2">
    <path d="M 90 384.48 
L 648 384.48 
L 648 51.84 
L 90 51.84 
z
" style="fill: #ffffff"/>
   </g>
   <g id="PathCollection_1">
    <defs>
     <path id="m2db39b7037" d="M 0 3 
C 0.795609 3 1.55874 2.683901 2.12132 2.12132 
C 2.683901 1.55874 3 0.795609 3 0 
C 3 -0.795609 2.683901 -1.55874 2.12132 -2.12132 
C 1.55874 -2.683901 0.795609 -3 0 -3 
C -0.795609 -3 -1.55874 -2.683901 -2.12132 -2.12132 
C -2.683901 -1.55874 -3 -0.795609 -3 0 
C -3 0.795609 -2.683901 1.55874 -2.12132 2.12132 
C -1.55874 2.683901 -0.795609 3 0 3 
z
" style="stroke: #ff0000"/>
    </defs>
    <g clip-path="url(#pee5f16f48e)">
     <use xlink:href="#m2db39b7037" x="115.363636" y="369.36" style="fill: #ff0000; stroke: #ff0000"/>
     <use xlink:href="#m2db39b7037" x="191.454545" y="359.019754" style="fill: #ff0000; stroke: #ff0000"/>
     <use xlink:href="#m2db39b7037" x="267.545455" y="348.679509" style="fill: #ff0000; stroke: #ff0000"/>
     <use xlink:href="#m2db39b7037" x="419.727273" y="327.999017" style="fill: #ff0000; stroke: #ff0000"/>
     <use xlink:href="#m2db39b7037" x="495.818182" y="276.297789" style="fill: #ff0000; stroke: #ff0000"/>
     <use xlink:href="#m2db39b7037" x="571.909091" y="172.895332" style="fill: #ff0000; stroke: #ff0000"/>
     <use xlink:href="#m2db39b7037" x="622.636364" y="69.492875" style="fill: #ff0000; stroke: #ff0000"/>
    </g>
   </g>
   <g id="matplotlib.axis_1">
    <g id="xtick_1">
     <g id="line2d_1">
      <path d="M 115.363636 384.48 
L 115.363636 51.84 
" clip-path="url(#pee5f16f48e)" style="fill: none; stroke: #b0b0b0; stroke-width: 0.8; stroke-linecap: square"/>
     </g>
     <g id="line2d_2">
      <defs>
       <path id="m7fbe4bb799" d="M 0 0 
L 0 3.5 
" style="stroke: #000000; stroke-width: 0.8"/>
      </defs>
      <g>
       <use xlink:href="#m7fbe4bb799" x="115.363636" y="384.48" style="stroke: #000000; stroke-width: 0.8"/>
      </g>
     </g>
     <g id="text_1">
      <!-- 0.0 -->
      <g transform="translate(107.45348 398.853437) scale(0.1 -0.1)">
       <defs>
        <path id="HackGenConsoleNF-Regular-30" d="M 1688 -88 
Q 1000 -88 663 494 
Q 319 1069 325 2256 
Q 325 3444 662 4025 
Q 1000 4606 1688 4606 
Q 2025 4606 2281 4468 
Q 2538 4331 2713 4025 
Q 3056 3444 3050 2256 
Q 3050 1081 2713 500 
Q 2538 200 2281 56 
Q 2025 -88 1688 -88 
z
M 1688 413 
Q 2106 413 2294 838 
Q 2475 1250 2475 2256 
Q 2475 3263 2294 3688 
Q 2106 4113 1688 4113 
Q 1275 4113 1088 3688 
Q 900 3250 900 2256 
Q 900 1275 1088 838 
Q 1275 413 1688 413 
z
M 1688 1744 
Q 1544 1744 1450 1894 
Q 1350 2025 1350 2256 
Q 1350 2488 1447 2628 
Q 1544 2769 1688 2769 
Q 1831 2769 1928 2628 
Q 2025 2488 2025 2256 
Q 2025 2025 1928 1884 
Q 1831 1744 1688 1744 
z
" transform="scale(0.015625)"/>
        <path id="HackGenConsoleNF-Regular-2e" d="M 1675 -100 
Q 1469 -100 1337 59 
Q 1206 219 1206 463 
Q 1206 713 1340 866 
Q 1475 1019 1675 1019 
Q 1881 1019 2022 862 
Q 2163 706 2163 463 
Q 2163 213 2022 56 
Q 1881 -100 1675 -100 
z
" transform="scale(0.015625)"/>
       </defs>
       <use xlink:href="#HackGenConsoleNF-Regular-30"/>
       <use xlink:href="#HackGenConsoleNF-Regular-2e" x="52.734375"/>
       <use xlink:href="#HackGenConsoleNF-Regular-30" x="105.46875"/>
      </g>
     </g>
    </g>
    <g id="xtick_2">
     <g id="line2d_3">
      <path d="M 178.772727 384.48 
L 178.772727 51.84 
" clip-path="url(#pee5f16f48e)" style="fill: none; stroke: #b0b0b0; stroke-width: 0.8; stroke-linecap: square"/>
     </g>
     <g id="line2d_4">
      <g>
       <use xlink:href="#m7fbe4bb799" x="178.772727" y="384.48" style="stroke: #000000; stroke-width: 0.8"/>
      </g>
     </g>
     <g id="text_2">
      <!-- 2.5 -->
      <g transform="translate(170.862571 398.853437) scale(0.1 -0.1)">
       <defs>
        <path id="HackGenConsoleNF-Regular-32" d="M 413 406 
Q 413 513 475 594 
Q 631 775 850 1025 
Q 1069 1275 1313 1569 
Q 1500 1794 1594 1909 
Q 1688 2025 1738 2084 
Q 1788 2144 1844 2219 
Q 1988 2413 2075 2547 
Q 2163 2681 2219 2813 
Q 2319 3044 2306 3288 
Q 2300 3663 2106 3881 
Q 1900 4100 1550 4094 
Q 1056 4088 444 3688 
L 444 4306 
Q 731 4450 1006 4538 
Q 1281 4613 1544 4606 
Q 1831 4606 2078 4522 
Q 2325 4438 2513 4256 
Q 2675 4100 2775 3865 
Q 2875 3631 2875 3338 
Q 2875 3038 2756 2738 
Q 2694 2588 2600 2447 
Q 2506 2306 2356 2113 
Q 2281 2013 2172 1872 
Q 2063 1731 1913 1556 
Q 1806 1438 1718 1338 
Q 1631 1238 1534 1128 
Q 1438 1019 1300 875 
Q 1181 731 994 513 
L 2906 513 
L 2906 0 
L 413 0 
L 413 406 
z
" transform="scale(0.015625)"/>
        <path id="HackGenConsoleNF-Regular-35" d="M 1438 -88 
Q 1319 -88 1162 -75 
Q 1006 -63 875 -38 
Q 731 -13 615 25 
Q 500 63 388 106 
L 388 725 
Q 644 575 894 506 
Q 1144 425 1400 425 
Q 1881 425 2125 694 
Q 2375 963 2375 1444 
Q 2375 1713 2306 1900 
Q 2238 2088 2119 2206 
Q 2006 2325 1825 2400 
Q 1644 2475 1394 2475 
Q 1181 2475 969 2425 
Q 756 2363 569 2256 
L 569 4525 
L 2644 4525 
L 2644 4013 
L 1069 4013 
L 1069 2900 
Q 1188 2950 1306 2969 
Q 1413 2994 1550 2994 
Q 1881 2994 2137 2878 
Q 2394 2763 2563 2575 
Q 2931 2156 2931 1456 
Q 2931 731 2544 319 
Q 2356 119 2084 15 
Q 1813 -88 1438 -88 
z
" transform="scale(0.015625)"/>
       </defs>
       <use xlink:href="#HackGenConsoleNF-Regular-32"/>
       <use xlink:href="#HackGenConsoleNF-Regular-2e" x="52.734375"/>
       <use xlink:href="#HackGenConsoleNF-Regular-35" x="105.46875"/>
      </g>
     </g>
    </g>
    <g id="xtick_3">
     <g id="line2d_5">
      <path d="M 242.181818 384.48 
L 242.181818 51.84 
" clip-path="url(#pee5f16f48e)" style="fill: none; stroke: #b0b0b0; stroke-width: 0.8; stroke-linecap: square"/>
     </g>
     <g id="line2d_6">
      <g>
       <use xlink:href="#m7fbe4bb799" x="242.181818" y="384.48" style="stroke: #000000; stroke-width: 0.8"/>
      </g>
     </g>
     <g id="text_3">
      <!-- 5.0 -->
      <g transform="translate(234.271662 398.853437) scale(0.1 -0.1)">
       <use xlink:href="#HackGenConsoleNF-Regular-35"/>
       <use xlink:href="#HackGenConsoleNF-Regular-2e" x="52.734375"/>
       <use xlink:href="#HackGenConsoleNF-Regular-30" x="105.46875"/>
      </g>
     </g>
    </g>
    <g id="xtick_4">
     <g id="line2d_7">
      <path d="M 305.590909 384.48 
L 305.590909 51.84 
" clip-path="url(#pee5f16f48e)" style="fill: none; stroke: #b0b0b0; stroke-width: 0.8; stroke-linecap: square"/>
     </g>
     <g id="line2d_8">
      <g>
       <use xlink:href="#m7fbe4bb799" x="305.590909" y="384.48" style="stroke: #000000; stroke-width: 0.8"/>
      </g>
     </g>
     <g id="text_4">
      <!-- 7.5 -->
      <g transform="translate(297.680753 398.853437) scale(0.1 -0.1)">
       <defs>
        <path id="HackGenConsoleNF-Regular-37" d="M 2344 4013 
L 381 4013 
L 381 4525 
L 2963 4525 
L 2963 4269 
L 1488 0 
L 913 0 
L 2344 4013 
z
" transform="scale(0.015625)"/>
       </defs>
       <use xlink:href="#HackGenConsoleNF-Regular-37"/>
       <use xlink:href="#HackGenConsoleNF-Regular-2e" x="52.734375"/>
       <use xlink:href="#HackGenConsoleNF-Regular-35" x="105.46875"/>
      </g>
     </g>
    </g>
    <g id="xtick_5">
     <g id="line2d_9">
      <path d="M 369 384.48 
L 369 51.84 
" clip-path="url(#pee5f16f48e)" style="fill: none; stroke: #b0b0b0; stroke-width: 0.8; stroke-linecap: square"/>
     </g>
     <g id="line2d_10">
      <g>
       <use xlink:href="#m7fbe4bb799" x="369" y="384.48" style="stroke: #000000; stroke-width: 0.8"/>
      </g>
     </g>
     <g id="text_5">
      <!-- 10.0 -->
      <g transform="translate(358.453125 398.853437) scale(0.1 -0.1)">
       <defs>
        <path id="HackGenConsoleNF-Regular-31" d="M 738 513 
L 1600 513 
L 1600 3756 
L 944 2938 
L 644 3344 
L 1594 4525 
L 2150 4525 
L 2150 513 
L 3000 513 
L 3000 0 
L 738 0 
L 738 513 
z
" transform="scale(0.015625)"/>
       </defs>
       <use xlink:href="#HackGenConsoleNF-Regular-31"/>
       <use xlink:href="#HackGenConsoleNF-Regular-30" x="52.734375"/>
       <use xlink:href="#HackGenConsoleNF-Regular-2e" x="105.46875"/>
       <use xlink:href="#HackGenConsoleNF-Regular-30" x="158.203125"/>
      </g>
     </g>
    </g>
    <g id="xtick_6">
     <g id="line2d_11">
      <path d="M 432.409091 384.48 
L 432.409091 51.84 
" clip-path="url(#pee5f16f48e)" style="fill: none; stroke: #b0b0b0; stroke-width: 0.8; stroke-linecap: square"/>
     </g>
     <g id="line2d_12">
      <g>
       <use xlink:href="#m7fbe4bb799" x="432.409091" y="384.48" style="stroke: #000000; stroke-width: 0.8"/>
      </g>
     </g>
     <g id="text_6">
      <!-- 12.5 -->
      <g transform="translate(421.862216 398.853437) scale(0.1 -0.1)">
       <use xlink:href="#HackGenConsoleNF-Regular-31"/>
       <use xlink:href="#HackGenConsoleNF-Regular-32" x="52.734375"/>
       <use xlink:href="#HackGenConsoleNF-Regular-2e" x="105.46875"/>
       <use xlink:href="#HackGenConsoleNF-Regular-35" x="158.203125"/>
      </g>
     </g>
    </g>
    <g id="xtick_7">
     <g id="line2d_13">
      <path d="M 495.818182 384.48 
L 495.818182 51.84 
" clip-path="url(#pee5f16f48e)" style="fill: none; stroke: #b0b0b0; stroke-width: 0.8; stroke-linecap: square"/>
     </g>
     <g id="line2d_14">
      <g>
       <use xlink:href="#m7fbe4bb799" x="495.818182" y="384.48" style="stroke: #000000; stroke-width: 0.8"/>
      </g>
     </g>
     <g id="text_7">
      <!-- 15.0 -->
      <g transform="translate(485.271307 398.853437) scale(0.1 -0.1)">
       <use xlink:href="#HackGenConsoleNF-Regular-31"/>
       <use xlink:href="#HackGenConsoleNF-Regular-35" x="52.734375"/>
       <use xlink:href="#HackGenConsoleNF-Regular-2e" x="105.46875"/>
       <use xlink:href="#HackGenConsoleNF-Regular-30" x="158.203125"/>
      </g>
     </g>
    </g>
    <g id="xtick_8">
     <g id="line2d_15">
      <path d="M 559.227273 384.48 
L 559.227273 51.84 
" clip-path="url(#pee5f16f48e)" style="fill: none; stroke: #b0b0b0; stroke-width: 0.8; stroke-linecap: square"/>
     </g>
     <g id="line2d_16">
      <g>
       <use xlink:href="#m7fbe4bb799" x="559.227273" y="384.48" style="stroke: #000000; stroke-width: 0.8"/>
      </g>
     </g>
     <g id="text_8">
      <!-- 17.5 -->
      <g transform="translate(548.680398 398.853437) scale(0.1 -0.1)">
       <use xlink:href="#HackGenConsoleNF-Regular-31"/>
       <use xlink:href="#HackGenConsoleNF-Regular-37" x="52.734375"/>
       <use xlink:href="#HackGenConsoleNF-Regular-2e" x="105.46875"/>
       <use xlink:href="#HackGenConsoleNF-Regular-35" x="158.203125"/>
      </g>
     </g>
    </g>
    <g id="xtick_9">
     <g id="line2d_17">
      <path d="M 622.636364 384.48 
L 622.636364 51.84 
" clip-path="url(#pee5f16f48e)" style="fill: none; stroke: #b0b0b0; stroke-width: 0.8; stroke-linecap: square"/>
     </g>
     <g id="line2d_18">
      <g>
       <use xlink:href="#m7fbe4bb799" x="622.636364" y="384.48" style="stroke: #000000; stroke-width: 0.8"/>
      </g>
     </g>
     <g id="text_9">
      <!-- 20.0 -->
      <g transform="translate(612.089489 398.853437) scale(0.1 -0.1)">
       <use xlink:href="#HackGenConsoleNF-Regular-32"/>
       <use xlink:href="#HackGenConsoleNF-Regular-30" x="52.734375"/>
       <use xlink:href="#HackGenConsoleNF-Regular-2e" x="105.46875"/>
       <use xlink:href="#HackGenConsoleNF-Regular-30" x="158.203125"/>
      </g>
     </g>
    </g>
    <g id="text_10">
     <!-- 年齢 -->
     <g transform="translate(358.453125 412.24875) scale(0.1 -0.1)">
      <defs>
       <path id="HackGenConsoleNF-Regular-5e74" d="M 2025 1463 
Q 2025 1431 2050 1431 
L 3431 1431 
Q 3456 1431 3456 1463 
L 3456 2675 
Q 3456 2700 3431 2700 
L 2050 2700 
Q 2025 2700 2025 2675 
L 2025 1463 
z
M 6031 1431 
Q 6125 1431 6190 1368 
Q 6256 1306 6256 1213 
L 6256 1194 
Q 6256 1100 6190 1037 
Q 6125 975 6031 975 
L 3969 975 
Q 3938 975 3938 944 
L 3938 -269 
Q 3938 -363 3872 -428 
Q 3806 -494 3719 -494 
L 3681 -494 
Q 3588 -494 3522 -428 
Q 3456 -363 3456 -269 
L 3456 944 
Q 3456 975 3431 975 
L 725 975 
Q 631 975 565 1037 
Q 500 1100 500 1194 
L 500 1213 
Q 500 1306 565 1368 
Q 631 1431 725 1431 
L 1525 1431 
Q 1550 1431 1550 1463 
L 1550 2925 
Q 1550 3019 1615 3084 
Q 1681 3150 1775 3150 
L 3431 3150 
Q 3456 3150 3456 3175 
L 3456 4094 
Q 3456 4119 3431 4119 
L 1931 4119 
Q 1900 4119 1888 4100 
Q 1525 3488 1088 3019 
Q 1025 2950 928 2947 
Q 831 2944 756 3000 
Q 756 3000 706 3038 
Q 638 3088 631 3172 
Q 625 3256 681 3313 
Q 1444 4063 1881 5163 
Q 1919 5250 2000 5294 
Q 2056 5325 2119 5325 
Q 2144 5325 2175 5319 
L 2225 5306 
Q 2313 5288 2350 5209 
Q 2388 5131 2356 5050 
Q 2269 4838 2156 4606 
Q 2144 4581 2175 4581 
L 5738 4581 
Q 5831 4581 5897 4515 
Q 5963 4450 5963 4363 
L 5963 4344 
Q 5963 4250 5897 4184 
Q 5831 4119 5738 4119 
L 3969 4119 
Q 3938 4119 3938 4094 
L 3938 3175 
Q 3938 3150 3969 3150 
L 5594 3150 
Q 5681 3150 5747 3084 
Q 5813 3019 5813 2925 
Q 5813 2831 5747 2765 
Q 5681 2700 5594 2700 
L 3969 2700 
Q 3938 2700 3938 2675 
L 3938 1463 
Q 3938 1431 3969 1431 
L 6031 1431 
z
" transform="scale(0.015625)"/>
       <path id="HackGenConsoleNF-Regular-9f62" d="M 3006 325 
Q 3038 325 3038 356 
L 3038 2894 
Q 3038 2975 3094 3034 
Q 3150 3094 3231 3094 
Q 3313 3094 3369 3034 
Q 3425 2975 3425 2894 
L 3425 -219 
Q 3425 -300 3369 -359 
Q 3313 -419 3231 -419 
Q 3150 -419 3094 -359 
Q 3038 -300 3038 -219 
L 3038 -88 
Q 3038 -56 3006 -56 
L 1088 -56 
Q 1056 -56 1056 -88 
L 1056 -300 
Q 1056 -375 1003 -428 
Q 950 -481 875 -481 
Q 800 -481 747 -428 
Q 694 -375 694 -300 
L 694 2906 
Q 694 2981 747 3037 
Q 800 3094 875 3094 
Q 950 3094 1003 3037 
Q 1056 2981 1056 2906 
L 1056 356 
Q 1056 325 1088 325 
L 3006 325 
z
M 2172 500 
Q 2125 456 2059 456 
Q 1994 456 1947 500 
Q 1900 544 1900 613 
L 1900 1438 
Q 1900 1444 1900 1444 
L 1888 1444 
Q 1681 1031 1431 763 
Q 1388 719 1325 731 
Q 1263 744 1231 800 
Q 1200 856 1200 913 
Q 1200 994 1275 1063 
Q 1556 1344 1763 1763 
Q 1775 1788 1750 1788 
L 1350 1788 
Q 1288 1788 1244 1831 
Q 1200 1875 1200 1937 
Q 1200 2000 1244 2047 
Q 1288 2094 1350 2094 
L 1875 2094 
Q 1900 2094 1900 2119 
L 1900 2888 
Q 1900 2956 1947 3000 
Q 1994 3044 2059 3044 
Q 2125 3044 2172 3000 
Q 2219 2956 2219 2888 
L 2219 2119 
Q 2219 2094 2244 2094 
L 2750 2094 
Q 2813 2094 2856 2047 
Q 2900 2000 2900 1937 
Q 2900 1875 2856 1831 
Q 2813 1788 2750 1788 
L 2238 1788 
Q 2219 1788 2219 1766 
Q 2219 1744 2231 1725 
Q 2500 1500 2813 1225 
Q 2863 1181 2866 1115 
Q 2869 1050 2831 1000 
Q 2794 950 2734 950 
Q 2675 950 2638 994 
Q 2519 1125 2238 1406 
Q 2231 1413 2225 1409 
Q 2219 1406 2219 1400 
L 2219 613 
Q 2219 544 2172 500 
z
M 1288 2719 
Q 1269 2763 1284 2809 
Q 1300 2856 1350 2869 
Q 1388 2881 1413 2881 
Q 1488 2881 1531 2806 
Q 1631 2625 1700 2400 
Q 1719 2344 1691 2291 
Q 1663 2238 1606 2219 
Q 1556 2200 1506 2225 
Q 1456 2250 1444 2306 
Q 1388 2506 1288 2719 
z
M 2575 2775 
Q 2594 2831 2647 2856 
Q 2700 2881 2756 2863 
Q 2806 2850 2828 2797 
Q 2850 2744 2831 2694 
Q 2731 2481 2625 2288 
Q 2600 2238 2550 2219 
Q 2500 2200 2450 2219 
Q 2406 2231 2387 2278 
Q 2369 2325 2394 2369 
Q 2494 2575 2575 2775 
z
M 5825 2400 
Q 5913 2400 5978 2334 
Q 6044 2269 6044 2175 
L 6044 756 
Q 6044 575 6006 478 
Q 5969 381 5856 325 
Q 5706 250 5331 244 
Q 5238 244 5166 303 
Q 5094 363 5063 463 
Q 5056 469 5056 475 
Q 5031 544 5075 609 
Q 5119 675 5200 669 
Q 5200 669 5375 669 
Q 5469 669 5519 675 
Q 5575 675 5590 690 
Q 5606 706 5606 756 
L 5606 1956 
Q 5606 1981 5581 1981 
L 4806 1981 
Q 4775 1981 4775 1956 
L 4775 -256 
Q 4775 -350 4709 -415 
Q 4644 -481 4556 -481 
L 4550 -481 
Q 4456 -481 4393 -415 
Q 4331 -350 4331 -256 
L 4331 1956 
Q 4331 1981 4300 1981 
L 3888 1981 
Q 3806 1981 3743 2043 
Q 3681 2106 3681 2193 
Q 3681 2281 3743 2340 
Q 3806 2400 3888 2400 
L 5825 2400 
z
M 5475 3431 
Q 5563 3431 5625 3368 
Q 5688 3306 5688 3222 
Q 5688 3138 5625 3075 
Q 5563 3013 5475 3013 
L 4238 3013 
Q 4150 3013 4087 3075 
Q 4025 3138 4025 3222 
Q 4025 3306 4087 3368 
Q 4150 3431 4238 3431 
L 5475 3431 
z
M 4525 5138 
Q 4563 5231 4644 5287 
Q 4725 5344 4825 5344 
Q 5044 5344 5138 5144 
Q 5613 4200 6225 3650 
Q 6294 3588 6306 3494 
Q 6313 3475 6313 3450 
Q 6313 3381 6275 3319 
Q 6256 3294 6238 3263 
Q 6200 3188 6119 3172 
Q 6038 3156 5975 3219 
Q 5650 3544 5347 3978 
Q 5044 4413 4844 4825 
Q 4844 4831 4834 4831 
Q 4825 4831 4825 4825 
Q 4644 4388 4347 3938 
Q 4050 3488 3706 3156 
Q 3663 3113 3606 3113 
Q 3588 3113 3569 3119 
Q 3488 3138 3444 3206 
Q 3413 3263 3375 3319 
Q 3363 3344 3331 3344 
L 656 3344 
Q 575 3344 515 3400 
Q 456 3456 456 3540 
Q 456 3625 515 3684 
Q 575 3744 656 3744 
L 881 3744 
Q 913 3744 913 3775 
L 913 4788 
Q 913 4875 972 4934 
Q 1031 4994 1115 4994 
Q 1200 4994 1259 4934 
Q 1319 4875 1319 4788 
L 1319 3775 
Q 1319 3744 1350 3744 
L 1900 3744 
Q 1931 3744 1931 3775 
L 1931 5131 
Q 1931 5225 1993 5287 
Q 2056 5350 2147 5350 
Q 2238 5350 2300 5287 
Q 2363 5225 2363 5131 
L 2363 4800 
Q 2363 4775 2394 4775 
L 3200 4775 
Q 3281 4775 3337 4719 
Q 3394 4663 3394 4581 
Q 3394 4500 3337 4440 
Q 3281 4381 3200 4381 
L 2394 4381 
Q 2363 4381 2363 4356 
L 2363 3775 
Q 2363 3744 2394 3744 
L 3413 3744 
Q 3463 3744 3497 3709 
Q 3531 3675 3531 3631 
Q 3531 3625 3538 3625 
Q 3838 3925 4097 4328 
Q 4356 4731 4525 5138 
z
" transform="scale(0.015625)"/>
      </defs>
      <use xlink:href="#HackGenConsoleNF-Regular-5e74"/>
      <use xlink:href="#HackGenConsoleNF-Regular-9f62" x="105.46875"/>
     </g>
    </g>
   </g>
   <g id="matplotlib.axis_2">
    <g id="ytick_1">
     <g id="line2d_19">
      <path d="M 90 379.700246 
L 648 379.700246 
" clip-path="url(#pee5f16f48e)" style="fill: none; stroke: #b0b0b0; stroke-width: 0.8; stroke-linecap: square"/>
     </g>
     <g id="line2d_20">
      <defs>
       <path id="m2e1dbedcd2" d="M 0 0 
L -3.5 0 
" style="stroke: #000000; stroke-width: 0.8"/>
      </defs>
      <g>
       <use xlink:href="#m2e1dbedcd2" x="90" y="379.700246" style="stroke: #000000; stroke-width: 0.8"/>
      </g>
     </g>
     <g id="text_11">
      <!-- 0 -->
      <g transform="translate(77.726562 383.386964) scale(0.1 -0.1)">
       <use xlink:href="#HackGenConsoleNF-Regular-30"/>
      </g>
     </g>
    </g>
    <g id="ytick_2">
     <g id="line2d_21">
      <path d="M 90 327.999017 
L 648 327.999017 
" clip-path="url(#pee5f16f48e)" style="fill: none; stroke: #b0b0b0; stroke-width: 0.8; stroke-linecap: square"/>
     </g>
     <g id="line2d_22">
      <g>
       <use xlink:href="#m2e1dbedcd2" x="90" y="327.999017" style="stroke: #000000; stroke-width: 0.8"/>
      </g>
     </g>
     <g id="text_12">
      <!-- 5000 -->
      <g transform="translate(61.90625 331.685736) scale(0.1 -0.1)">
       <use xlink:href="#HackGenConsoleNF-Regular-35"/>
       <use xlink:href="#HackGenConsoleNF-Regular-30" x="52.734375"/>
       <use xlink:href="#HackGenConsoleNF-Regular-30" x="105.46875"/>
       <use xlink:href="#HackGenConsoleNF-Regular-30" x="158.203125"/>
      </g>
     </g>
    </g>
    <g id="ytick_3">
     <g id="line2d_23">
      <path d="M 90 276.297789 
L 648 276.297789 
" clip-path="url(#pee5f16f48e)" style="fill: none; stroke: #b0b0b0; stroke-width: 0.8; stroke-linecap: square"/>
     </g>
     <g id="line2d_24">
      <g>
       <use xlink:href="#m2e1dbedcd2" x="90" y="276.297789" style="stroke: #000000; stroke-width: 0.8"/>
      </g>
     </g>
     <g id="text_13">
      <!-- 10000 -->
      <g transform="translate(56.632812 279.984507) scale(0.1 -0.1)">
       <use xlink:href="#HackGenConsoleNF-Regular-31"/>
       <use xlink:href="#HackGenConsoleNF-Regular-30" x="52.734375"/>
       <use xlink:href="#HackGenConsoleNF-Regular-30" x="105.46875"/>
       <use xlink:href="#HackGenConsoleNF-Regular-30" x="158.203125"/>
       <use xlink:href="#HackGenConsoleNF-Regular-30" x="210.9375"/>
      </g>
     </g>
    </g>
    <g id="ytick_4">
     <g id="line2d_25">
      <path d="M 90 224.59656 
L 648 224.59656 
" clip-path="url(#pee5f16f48e)" style="fill: none; stroke: #b0b0b0; stroke-width: 0.8; stroke-linecap: square"/>
     </g>
     <g id="line2d_26">
      <g>
       <use xlink:href="#m2e1dbedcd2" x="90" y="224.59656" style="stroke: #000000; stroke-width: 0.8"/>
      </g>
     </g>
     <g id="text_14">
      <!-- 15000 -->
      <g transform="translate(56.632812 228.283279) scale(0.1 -0.1)">
       <use xlink:href="#HackGenConsoleNF-Regular-31"/>
       <use xlink:href="#HackGenConsoleNF-Regular-35" x="52.734375"/>
       <use xlink:href="#HackGenConsoleNF-Regular-30" x="105.46875"/>
       <use xlink:href="#HackGenConsoleNF-Regular-30" x="158.203125"/>
       <use xlink:href="#HackGenConsoleNF-Regular-30" x="210.9375"/>
      </g>
     </g>
    </g>
    <g id="ytick_5">
     <g id="line2d_27">
      <path d="M 90 172.895332 
L 648 172.895332 
" clip-path="url(#pee5f16f48e)" style="fill: none; stroke: #b0b0b0; stroke-width: 0.8; stroke-linecap: square"/>
     </g>
     <g id="line2d_28">
      <g>
       <use xlink:href="#m2e1dbedcd2" x="90" y="172.895332" style="stroke: #000000; stroke-width: 0.8"/>
      </g>
     </g>
     <g id="text_15">
      <!-- 20000 -->
      <g transform="translate(56.632812 176.58205) scale(0.1 -0.1)">
       <use xlink:href="#HackGenConsoleNF-Regular-32"/>
       <use xlink:href="#HackGenConsoleNF-Regular-30" x="52.734375"/>
       <use xlink:href="#HackGenConsoleNF-Regular-30" x="105.46875"/>
       <use xlink:href="#HackGenConsoleNF-Regular-30" x="158.203125"/>
       <use xlink:href="#HackGenConsoleNF-Regular-30" x="210.9375"/>
      </g>
     </g>
    </g>
    <g id="ytick_6">
     <g id="line2d_29">
      <path d="M 90 121.194103 
L 648 121.194103 
" clip-path="url(#pee5f16f48e)" style="fill: none; stroke: #b0b0b0; stroke-width: 0.8; stroke-linecap: square"/>
     </g>
     <g id="line2d_30">
      <g>
       <use xlink:href="#m2e1dbedcd2" x="90" y="121.194103" style="stroke: #000000; stroke-width: 0.8"/>
      </g>
     </g>
     <g id="text_16">
      <!-- 25000 -->
      <g transform="translate(56.632812 124.880822) scale(0.1 -0.1)">
       <use xlink:href="#HackGenConsoleNF-Regular-32"/>
       <use xlink:href="#HackGenConsoleNF-Regular-35" x="52.734375"/>
       <use xlink:href="#HackGenConsoleNF-Regular-30" x="105.46875"/>
       <use xlink:href="#HackGenConsoleNF-Regular-30" x="158.203125"/>
       <use xlink:href="#HackGenConsoleNF-Regular-30" x="210.9375"/>
      </g>
     </g>
    </g>
    <g id="ytick_7">
     <g id="line2d_31">
      <path d="M 90 69.492875 
L 648 69.492875 
" clip-path="url(#pee5f16f48e)" style="fill: none; stroke: #b0b0b0; stroke-width: 0.8; stroke-linecap: square"/>
     </g>
     <g id="line2d_32">
      <g>
       <use xlink:href="#m2e1dbedcd2" x="90" y="69.492875" style="stroke: #000000; stroke-width: 0.8"/>
      </g>
     </g>
     <g id="text_17">
      <!-- 30000 -->
      <g transform="translate(56.632812 73.179593) scale(0.1 -0.1)">
       <defs>
        <path id="HackGenConsoleNF-Regular-33" d="M 1550 -88 
Q 1419 -88 1272 -75 
Q 1125 -63 981 -31 
Q 863 -6 706 38 
Q 550 75 400 131 
L 400 750 
Q 544 669 678 606 
Q 813 544 956 506 
Q 1094 469 1225 447 
Q 1356 425 1500 425 
Q 1963 425 2200 656 
Q 2450 888 2447 1300 
Q 2444 1713 2206 1938 
Q 1963 2169 1531 2169 
L 1119 2169 
L 1119 2669 
L 1531 2669 
Q 1919 2669 2138 2856 
Q 2344 3044 2350 3381 
Q 2350 3719 2150 3906 
Q 1956 4088 1575 4094 
Q 1338 4094 1072 4031 
Q 806 3969 525 3850 
L 525 4413 
Q 863 4513 1119 4556 
Q 1369 4606 1588 4606 
Q 1875 4606 2119 4525 
Q 2363 4450 2544 4281 
Q 2894 3956 2900 3400 
Q 2900 3206 2850 3053 
Q 2800 2900 2713 2775 
Q 2525 2531 2163 2425 
Q 2569 2306 2775 2000 
Q 2888 1844 2941 1656 
Q 2994 1469 2994 1250 
Q 2994 631 2619 269 
Q 2431 94 2165 3 
Q 1900 -88 1550 -88 
z
" transform="scale(0.015625)"/>
       </defs>
       <use xlink:href="#HackGenConsoleNF-Regular-33"/>
       <use xlink:href="#HackGenConsoleNF-Regular-30" x="52.734375"/>
       <use xlink:href="#HackGenConsoleNF-Regular-30" x="105.46875"/>
       <use xlink:href="#HackGenConsoleNF-Regular-30" x="158.203125"/>
       <use xlink:href="#HackGenConsoleNF-Regular-30" x="210.9375"/>
      </g>
     </g>
    </g>
    <g id="text_18">
     <!-- お年玉額(円) -->
     <g transform="translate(50.610937 249.800625) rotate(-90) scale(0.1 -0.1)">
      <defs>
       <path id="HackGenConsoleNF-Regular-304a" d="M 2056 363 
Q 2281 363 2281 675 
Q 2281 794 2272 1184 
Q 2263 1575 2263 1763 
Q 2263 1794 2238 1781 
Q 1856 1594 1612 1353 
Q 1369 1113 1369 900 
Q 1369 700 1609 531 
Q 1850 363 2056 363 
z
M 2725 2650 
L 2725 2469 
Q 2725 2438 2750 2444 
Q 3456 2669 4113 2669 
Q 4806 2669 5253 2319 
Q 5700 1969 5700 1406 
Q 5700 269 4350 -56 
Q 4106 -113 3788 -131 
Q 3694 -138 3609 -81 
Q 3525 -25 3494 69 
L 3463 156 
Q 3438 231 3484 297 
Q 3531 363 3613 363 
Q 3931 369 4131 413 
Q 4594 494 4894 741 
Q 5194 988 5194 1400 
Q 5194 1794 4884 2009 
Q 4575 2225 4106 2225 
Q 3450 2225 2756 1988 
Q 2731 1975 2731 1950 
Q 2756 900 2756 606 
Q 2756 188 2609 9 
Q 2463 -169 2194 -169 
Q 1938 -169 1631 -28 
Q 1325 113 1097 363 
Q 869 613 869 881 
Q 869 1250 1262 1625 
Q 1656 2000 2231 2256 
Q 2256 2269 2256 2294 
L 2256 2625 
Q 2256 3156 2263 3425 
Q 2263 3456 2231 3456 
Q 1988 3438 1794 3438 
Q 1450 3438 1206 3450 
Q 1113 3456 1050 3525 
Q 988 3594 981 3688 
L 981 3731 
Q 981 3819 1043 3878 
Q 1106 3938 1194 3931 
Q 1463 3906 1781 3906 
Q 1994 3906 2238 3919 
Q 2269 3925 2269 3950 
Q 2281 4581 2281 4644 
Q 2281 4750 2269 4875 
Q 2263 4963 2319 5028 
Q 2375 5094 2463 5094 
L 2575 5094 
Q 2669 5094 2728 5028 
Q 2788 4963 2781 4875 
Q 2769 4763 2769 4656 
Q 2756 4469 2750 4000 
Q 2750 3975 2775 3975 
Q 3369 4056 3831 4169 
Q 3913 4194 3981 4144 
Q 4050 4094 4050 4006 
L 4050 3944 
Q 4050 3850 3990 3775 
Q 3931 3700 3838 3681 
Q 3300 3569 2763 3513 
Q 2738 3506 2738 3481 
Q 2725 2906 2725 2650 
z
M 4738 3900 
Q 4663 3944 4638 4031 
Q 4631 4063 4631 4088 
Q 4631 4144 4656 4200 
L 4663 4206 
Q 4713 4288 4800 4313 
Q 4831 4319 4863 4319 
Q 4919 4319 4969 4288 
Q 5588 3944 6050 3606 
Q 6125 3550 6138 3456 
Q 6144 3431 6144 3413 
Q 6144 3344 6106 3281 
L 6088 3250 
Q 6038 3175 5950 3163 
Q 5950 3163 5919 3163 
Q 5856 3163 5800 3206 
Q 5406 3519 4738 3900 
z
" transform="scale(0.015625)"/>
       <path id="HackGenConsoleNF-Regular-7389" d="M 3588 400 
Q 3588 375 3613 375 
L 6013 375 
Q 6100 375 6165 309 
Q 6231 244 6231 150 
L 6231 125 
Q 6231 38 6165 -28 
Q 6100 -94 6013 -94 
L 750 -94 
Q 663 -94 597 -28 
Q 531 38 531 125 
L 531 150 
Q 531 244 597 309 
Q 663 375 750 375 
L 3063 375 
Q 3088 375 3088 400 
L 3088 2375 
Q 3088 2400 3063 2400 
L 1338 2400 
Q 1250 2400 1184 2465 
Q 1119 2531 1119 2625 
L 1119 2650 
Q 1119 2738 1184 2803 
Q 1250 2869 1338 2869 
L 3063 2869 
Q 3088 2869 3088 2900 
L 3088 4588 
Q 3088 4613 3063 4613 
L 1075 4613 
Q 981 4613 915 4678 
Q 850 4744 850 4838 
L 850 4863 
Q 850 4950 915 5015 
Q 981 5081 1075 5081 
L 5700 5081 
Q 5788 5081 5853 5015 
Q 5919 4950 5919 4863 
L 5919 4838 
Q 5919 4744 5853 4678 
Q 5788 4613 5700 4613 
L 3613 4613 
Q 3588 4613 3588 4588 
L 3588 2900 
Q 3588 2869 3613 2869 
L 5450 2869 
Q 5538 2869 5603 2803 
Q 5669 2738 5669 2650 
L 5669 2625 
Q 5669 2531 5603 2465 
Q 5538 2400 5450 2400 
L 3613 2400 
Q 3588 2400 3588 2375 
L 3588 400 
z
M 4325 1681 
Q 4269 1738 4269 1819 
Q 4269 1913 4337 1966 
Q 4406 2019 4494 2019 
Q 4494 2019 4506 2019 
Q 4600 2019 4669 1956 
Q 5238 1431 5544 1113 
Q 5600 1050 5600 969 
Q 5600 869 5525 806 
L 5500 781 
Q 5438 731 5356 731 
Q 5356 731 5338 731 
Q 5250 738 5188 806 
Q 4850 1188 4325 1681 
z
" transform="scale(0.015625)"/>
       <path id="HackGenConsoleNF-Regular-984d" d="M 5569 3038 
Q 5594 3038 5594 3069 
L 5594 3625 
Q 5594 3656 5569 3656 
L 3956 3656 
Q 3925 3656 3925 3625 
L 3925 3069 
Q 3925 3038 3956 3038 
L 5569 3038 
z
M 5569 2081 
Q 5594 2081 5594 2106 
L 5594 2669 
Q 5594 2694 5569 2694 
L 3956 2694 
Q 3925 2694 3925 2669 
L 3925 2106 
Q 3925 2081 3956 2081 
L 5569 2081 
z
M 5569 1100 
Q 5594 1100 5594 1131 
L 5594 1694 
Q 5594 1719 5569 1719 
L 3956 1719 
Q 3925 1719 3925 1694 
L 3925 1131 
Q 3925 1100 3956 1100 
L 5569 1100 
z
M 3494 3813 
Q 3494 3900 3559 3965 
Q 3625 4031 3719 4031 
L 4300 4031 
Q 4331 4031 4338 4056 
Q 4419 4369 4456 4613 
Q 4463 4638 4438 4638 
L 3463 4638 
Q 3375 4638 3315 4700 
Q 3256 4763 3256 4847 
Q 3256 4931 3315 4993 
Q 3375 5056 3463 5056 
L 6000 5056 
Q 6088 5056 6150 4993 
Q 6213 4931 6213 4847 
Q 6213 4763 6150 4700 
Q 6088 4638 6000 4638 
L 5000 4638 
Q 4975 4638 4969 4613 
Q 4819 4131 4794 4056 
Q 4781 4031 4813 4031 
L 5825 4031 
Q 5913 4031 5978 3965 
Q 6044 3900 6044 3813 
L 6044 944 
Q 6044 856 5978 790 
Q 5913 725 5825 725 
L 3719 725 
Q 3625 725 3559 790 
Q 3494 856 3494 944 
L 3494 3813 
z
M 981 4388 
Q 956 4388 956 4363 
L 956 4056 
Q 956 3975 897 3915 
Q 838 3856 756 3856 
Q 675 3856 615 3915 
Q 556 3975 556 4056 
L 556 4550 
Q 556 4644 622 4709 
Q 688 4775 781 4775 
L 1619 4775 
Q 1650 4775 1650 4800 
L 1650 5125 
Q 1650 5213 1712 5278 
Q 1775 5344 1865 5344 
Q 1956 5344 2022 5278 
Q 2088 5213 2088 5125 
L 2088 4800 
Q 2088 4775 2119 4775 
L 2956 4775 
Q 3044 4775 3109 4709 
Q 3175 4644 3175 4550 
L 3175 4063 
Q 3175 3981 3115 3918 
Q 3056 3856 2972 3856 
Q 2888 3856 2828 3918 
Q 2769 3981 2769 4063 
L 2769 4363 
Q 2769 4388 2738 4388 
L 981 4388 
z
M 1294 1606 
Q 1288 1606 1291 1600 
Q 1294 1594 1300 1594 
L 2738 1594 
Q 2744 1594 2747 1600 
Q 2750 1606 2744 1613 
Q 2519 1819 2044 2194 
Q 2025 2206 2006 2188 
Q 1700 1881 1294 1606 
z
M 2375 3388 
Q 2388 3413 2363 3413 
L 1569 3413 
Q 1538 3413 1519 3388 
Q 1419 3244 1375 3200 
Q 1356 3181 1381 3163 
Q 1463 3113 1556 3047 
Q 1650 2981 1765 2897 
Q 1881 2813 1950 2769 
Q 1975 2750 1994 2775 
Q 2231 3075 2375 3388 
z
M 2356 306 
Q 2381 306 2381 338 
L 2381 1188 
Q 2381 1219 2356 1219 
L 1350 1219 
Q 1319 1219 1319 1188 
L 1319 338 
Q 1319 306 1350 306 
L 2356 306 
z
M 2806 144 
Q 2806 56 2740 -9 
Q 2675 -75 2581 -75 
L 1350 -75 
Q 1319 -75 1319 -106 
L 1319 -175 
Q 1319 -256 1259 -315 
Q 1200 -375 1115 -375 
Q 1031 -375 972 -315 
Q 913 -256 913 -175 
L 913 1363 
Q 913 1388 888 1375 
Q 844 1350 800 1331 
Q 719 1294 634 1319 
Q 550 1344 494 1419 
Q 456 1463 456 1513 
Q 456 1538 463 1556 
Q 481 1631 550 1663 
Q 1175 1944 1688 2438 
Q 1706 2456 1681 2475 
Q 1313 2738 1131 2869 
Q 1113 2888 1088 2869 
Q 981 2756 869 2663 
Q 800 2600 709 2603 
Q 619 2606 550 2669 
Q 494 2719 494 2800 
Q 494 2881 556 2931 
Q 1131 3400 1456 4044 
Q 1500 4125 1581 4163 
Q 1631 4188 1688 4188 
Q 1713 4188 1744 4181 
Q 1825 4156 1859 4084 
Q 1894 4013 1856 3944 
Q 1819 3863 1769 3781 
Q 1756 3756 1781 3756 
L 2575 3756 
Q 2575 3756 2588 3756 
Q 2650 3775 2713 3750 
L 2788 3713 
Q 2850 3688 2875 3631 
Q 2900 3575 2875 3513 
Q 2669 2988 2313 2538 
Q 2294 2513 2313 2500 
Q 2813 2125 3088 1888 
Q 3156 1825 3162 1734 
Q 3169 1644 3106 1575 
L 3094 1556 
Q 3038 1494 2959 1491 
Q 2881 1488 2825 1544 
Q 2819 1550 2812 1547 
Q 2806 1544 2806 1538 
L 2806 144 
z
M 3869 444 
Q 3969 525 4075 525 
Q 4144 525 4219 481 
L 4244 469 
Q 4319 425 4328 344 
Q 4338 263 4275 206 
Q 3869 -131 3319 -388 
Q 3225 -425 3128 -406 
Q 3031 -388 2963 -313 
Q 2919 -269 2919 -213 
Q 2919 -119 3006 -75 
Q 3519 144 3869 444 
z
M 5131 219 
Q 5069 263 5069 338 
Q 5069 413 5138 456 
Q 5225 513 5315 513 
Q 5406 513 5494 456 
Q 5919 175 6231 -100 
Q 6294 -150 6294 -225 
Q 6294 -319 6213 -375 
Q 6144 -419 6063 -419 
Q 6063 -419 6038 -419 
Q 5944 -413 5869 -350 
Q 5544 -63 5131 219 
z
" transform="scale(0.015625)"/>
       <path id="HackGenConsoleNF-Regular-28" d="M 1631 -819 
Q 1213 -81 1013 588 
Q 806 1288 806 1953 
Q 806 2619 1013 3313 
Q 1119 3663 1269 4000 
Q 1425 4338 1631 4713 
L 2075 4713 
Q 1875 4350 1744 4012 
Q 1613 3675 1525 3338 
Q 1350 2644 1344 1950 
Q 1344 575 2075 -819 
L 1631 -819 
z
" transform="scale(0.015625)"/>
       <path id="HackGenConsoleNF-Regular-5186" d="M 3594 2606 
Q 3594 2581 3619 2581 
L 5513 2581 
Q 5538 2581 5538 2606 
L 5538 4425 
Q 5538 4456 5513 4456 
L 3619 4456 
Q 3594 4456 3594 4425 
L 3594 2606 
z
M 1281 4456 
Q 1250 4456 1250 4425 
L 1250 2606 
Q 1250 2581 1281 2581 
L 3100 2581 
Q 3125 2581 3125 2606 
L 3125 4425 
Q 3125 4456 3100 4456 
L 1281 4456 
z
M 5794 4913 
Q 5888 4913 5953 4850 
Q 6019 4788 6019 4694 
L 6019 150 
Q 6019 -88 5953 -213 
Q 5888 -338 5725 -394 
Q 5506 -475 4806 -481 
Q 4713 -481 4634 -422 
Q 4556 -363 4519 -269 
Q 4513 -238 4500 -206 
Q 4469 -138 4509 -75 
Q 4550 -13 4625 -13 
Q 4856 -19 5038 -19 
Q 5238 -19 5381 -13 
Q 5469 -13 5503 21 
Q 5538 56 5538 150 
L 5538 2075 
Q 5538 2106 5513 2106 
L 1281 2106 
Q 1250 2106 1250 2075 
L 1250 -269 
Q 1250 -363 1184 -428 
Q 1119 -494 1031 -494 
L 1000 -494 
Q 906 -494 840 -428 
Q 775 -363 775 -269 
L 775 4694 
Q 775 4788 840 4850 
Q 906 4913 1000 4913 
L 5794 4913 
z
" transform="scale(0.015625)"/>
       <path id="HackGenConsoleNF-Regular-29" d="M 1306 -819 
Q 1663 -131 1850 569 
Q 1938 894 1988 1250 
Q 2031 1600 2031 1950 
Q 2025 2650 1850 3331 
Q 1763 3656 1631 4003 
Q 1500 4350 1306 4713 
L 1750 4713 
Q 2175 4000 2369 3313 
Q 2569 2619 2569 1953 
Q 2569 1288 2369 581 
Q 2169 -106 1750 -819 
L 1306 -819 
z
" transform="scale(0.015625)"/>
      </defs>
      <use xlink:href="#HackGenConsoleNF-Regular-304a"/>
      <use xlink:href="#HackGenConsoleNF-Regular-5e74" x="105.46875"/>
      <use xlink:href="#HackGenConsoleNF-Regular-7389" x="210.9375"/>
      <use xlink:href="#HackGenConsoleNF-Regular-984d" x="316.40625"/>
      <use xlink:href="#HackGenConsoleNF-Regular-28" x="421.875"/>
      <use xlink:href="#HackGenConsoleNF-Regular-5186" x="474.609375"/>
      <use xlink:href="#HackGenConsoleNF-Regular-29" x="580.078125"/>
     </g>
    </g>
   </g>
   <g id="line2d_33">
    <path d="M 115.363636 364.548489 
L 120.487603 364.413687 
L 125.61157 364.272356 
L 130.735537 364.124183 
L 135.859504 363.968835 
L 140.983471 363.805966 
L 146.107438 363.63521 
L 151.231405 363.456186 
L 156.355372 363.268494 
L 161.479339 363.071714 
L 166.603306 362.865406 
L 171.727273 362.649109 
L 176.85124 362.422339 
L 181.975207 362.184588 
L 187.099174 361.935326 
L 192.22314 361.673994 
L 197.347107 361.400009 
L 202.471074 361.112757 
L 207.595041 360.811597 
L 212.719008 360.495855 
L 217.842975 360.164824 
L 222.966942 359.817766 
L 228.090909 359.453902 
L 233.214876 359.072421 
L 238.338843 358.672468 
L 243.46281 358.25315 
L 248.586777 357.813528 
L 253.710744 357.35262 
L 258.834711 356.869395 
L 263.958678 356.362773 
L 269.082645 355.83162 
L 274.206612 355.274748 
L 279.330579 354.690913 
L 284.454545 354.078809 
L 289.578512 353.437067 
L 294.702479 352.764252 
L 299.826446 352.05886 
L 304.950413 351.319312 
L 310.07438 350.543956 
L 315.198347 349.731058 
L 320.322314 348.878799 
L 325.446281 347.985274 
L 330.570248 347.048484 
L 335.694215 346.066336 
L 340.818182 345.036632 
L 345.942149 343.95707 
L 351.066116 342.825237 
L 356.190083 341.6386 
L 361.31405 340.394506 
L 366.438017 339.090174 
L 371.561983 337.722686 
L 376.68595 336.288985 
L 381.809917 334.785865 
L 386.933884 333.209964 
L 392.057851 331.557758 
L 397.181818 329.825553 
L 402.305785 328.009475 
L 407.429752 326.105463 
L 412.553719 324.10926 
L 417.677686 322.0164 
L 422.801653 319.822205 
L 427.92562 317.521768 
L 433.049587 315.109944 
L 438.173554 312.58134 
L 443.297521 309.930302 
L 448.421488 307.150902 
L 453.545455 304.236924 
L 458.669421 301.181851 
L 463.793388 297.978853 
L 468.917355 294.620767 
L 474.041322 291.100083 
L 479.165289 287.408928 
L 484.289256 283.539049 
L 489.413223 279.481791 
L 494.53719 275.228082 
L 499.661157 270.768409 
L 504.785124 266.092801 
L 509.909091 261.190801 
L 515.033058 256.051447 
L 520.157025 250.663247 
L 525.280992 245.014152 
L 530.404959 239.091529 
L 535.528926 232.882135 
L 540.652893 226.372083 
L 545.77686 219.546817 
L 550.900826 212.391073 
L 556.024793 204.888849 
L 561.14876 197.023371 
L 566.272727 188.777048 
L 571.396694 180.13144 
L 576.520661 171.067214 
L 581.644628 161.564101 
L 586.768595 151.60085 
L 591.892562 141.155181 
L 597.016529 130.203735 
L 602.140496 118.722024 
L 607.264463 106.684371 
L 612.38843 94.063859 
L 617.512397 80.832264 
L 622.636364 66.96 
" clip-path="url(#pee5f16f48e)" style="fill: none; stroke: #0000ff; stroke-width: 1.5; stroke-linecap: square"/>
   </g>
   <g id="patch_3">
    <path d="M 90 384.48 
L 90 51.84 
" style="fill: none; stroke: #000000; stroke-width: 0.8; stroke-linejoin: miter; stroke-linecap: square"/>
   </g>
   <g id="patch_4">
    <path d="M 648 384.48 
L 648 51.84 
" style="fill: none; stroke: #000000; stroke-width: 0.8; stroke-linejoin: miter; stroke-linecap: square"/>
   </g>
   <g id="patch_5">
    <path d="M 90 384.48 
L 648 384.48 
" style="fill: none; stroke: #000000; stroke-width: 0.8; stroke-linejoin: miter; stroke-linecap: square"/>
   </g>
   <g id="patch_6">
    <path d="M 90 51.84 
L 648 51.84 
" style="fill: none; stroke: #000000; stroke-width: 0.8; stroke-linejoin: miter; stroke-linecap: square"/>
   </g>
   <g id="text_19">
    <!-- 年齢に対するお年玉の金額 -->
    <g transform="translate(293.0625 45.84) scale(0.12 -0.12)">
     <defs>
      <path id="HackGenConsoleNF-Regular-306b" d="M 1306 4625 
Q 1319 4713 1381 4775 
Q 1444 4831 1525 4831 
Q 1531 4831 1544 4825 
L 1675 4819 
Q 1763 4813 1809 4741 
Q 1856 4669 1831 4588 
Q 1794 4456 1775 4369 
Q 1663 3831 1566 3128 
Q 1469 2425 1469 1944 
Q 1469 1500 1513 1100 
Q 1519 1100 1522 1097 
Q 1525 1094 1531 1100 
Q 1706 1575 1806 1825 
Q 1831 1888 1893 1903 
Q 1956 1919 2006 1881 
Q 2106 1813 2106 1706 
Q 2106 1663 2088 1619 
Q 1950 1225 1840 881 
Q 1731 538 1700 356 
Q 1669 206 1669 75 
Q 1675 -19 1615 -87 
Q 1556 -156 1463 -163 
L 1444 -163 
Q 1444 -163 1425 -163 
Q 1338 -163 1269 -113 
Q 1194 -56 1169 38 
Q 994 819 994 1856 
Q 994 2181 1031 2597 
Q 1069 3013 1103 3256 
Q 1138 3500 1203 3934 
Q 1269 4369 1275 4394 
Q 1306 4613 1306 4625 
z
M 2838 1556 
Q 2856 1650 2931 1706 
Q 3006 1763 3100 1750 
L 3125 1750 
Q 3206 1744 3259 1672 
Q 3313 1600 3294 1513 
Q 3263 1319 3263 1144 
Q 3263 575 4325 575 
Q 5044 575 5675 700 
Q 5756 713 5825 659 
Q 5894 606 5894 519 
L 5894 425 
Q 5894 331 5834 256 
Q 5775 181 5675 169 
Q 5088 75 4319 75 
Q 2781 75 2781 1025 
Q 2781 1244 2838 1556 
z
M 3319 3769 
Q 3225 3775 3162 3847 
Q 3100 3919 3100 4013 
L 3094 4094 
Q 3094 4181 3159 4237 
Q 3225 4294 3313 4281 
Q 3781 4238 4331 4238 
Q 4331 4238 4406 4238 
Q 5000 4238 5475 4288 
Q 5475 4288 5500 4288 
Q 5575 4288 5631 4238 
Q 5700 4181 5700 4094 
L 5700 4013 
Q 5700 3919 5634 3847 
Q 5569 3775 5475 3769 
Q 4944 3731 4406 3731 
Q 3863 3731 3319 3769 
z
" transform="scale(0.015625)"/>
      <path id="HackGenConsoleNF-Regular-5bfe" d="M 3288 4300 
Q 3381 4300 3447 4234 
Q 3513 4169 3513 4078 
Q 3513 3988 3447 3922 
Q 3381 3856 3288 3856 
L 775 3856 
Q 681 3856 615 3922 
Q 550 3988 550 4078 
Q 550 4169 615 4234 
Q 681 4300 775 4300 
L 1738 4300 
Q 1769 4300 1769 4331 
L 1769 5125 
Q 1769 5213 1834 5278 
Q 1900 5344 1988 5344 
L 2000 5344 
Q 2094 5344 2159 5278 
Q 2225 5213 2225 5125 
L 2225 4331 
Q 2225 4300 2250 4300 
L 3288 4300 
z
M 2456 3494 
Q 2475 3581 2547 3637 
Q 2619 3694 2713 3681 
L 2731 3681 
Q 2825 3669 2878 3594 
Q 2931 3519 2913 3431 
Q 2725 2413 2419 1681 
Q 2406 1656 2425 1638 
Q 2781 1163 3013 756 
Q 3063 675 3044 578 
Q 3025 481 2950 419 
L 2906 381 
Q 2838 325 2756 344 
Q 2675 363 2631 438 
Q 2463 750 2194 1150 
Q 2188 1156 2178 1156 
Q 2169 1156 2163 1144 
Q 1669 250 913 -306 
Q 838 -363 747 -347 
Q 656 -331 594 -263 
Q 594 -263 556 -225 
Q 506 -169 506 -100 
Q 506 -6 588 50 
Q 1388 594 1869 1563 
Q 1881 1588 1869 1613 
Q 1400 2238 894 2794 
Q 838 2856 844 2943 
Q 850 3031 919 3088 
Q 988 3144 1078 3137 
Q 1169 3131 1231 3063 
Q 1650 2613 2069 2094 
Q 2075 2088 2084 2091 
Q 2094 2094 2100 2100 
Q 2325 2725 2456 3494 
z
M 6063 3819 
Q 6156 3819 6222 3756 
Q 6288 3694 6288 3600 
L 6288 3588 
Q 6288 3494 6222 3431 
Q 6156 3369 6063 3369 
L 5556 3369 
Q 5525 3369 5525 3338 
L 5525 163 
Q 5525 -75 5462 -200 
Q 5400 -325 5256 -388 
Q 5038 -481 4413 -481 
Q 4319 -481 4244 -418 
Q 4169 -356 4144 -263 
Q 4131 -225 4125 -194 
Q 4100 -119 4144 -56 
Q 4188 6 4263 6 
Q 4506 0 4669 0 
Q 4825 0 4906 6 
Q 4988 13 5022 44 
Q 5056 75 5056 163 
L 5056 3338 
Q 5056 3369 5031 3369 
L 3531 3369 
Q 3444 3369 3378 3431 
Q 3313 3494 3313 3588 
L 3313 3600 
Q 3313 3694 3378 3756 
Q 3444 3819 3531 3819 
L 5031 3819 
Q 5056 3819 5056 3850 
L 5056 5138 
Q 5056 5225 5122 5290 
Q 5188 5356 5281 5356 
L 5306 5356 
Q 5394 5356 5459 5290 
Q 5525 5225 5525 5138 
L 5525 3850 
Q 5525 3819 5556 3819 
L 6063 3819 
z
M 4419 1506 
Q 4431 1463 4431 1425 
Q 4431 1375 4413 1325 
Q 4369 1238 4288 1194 
L 4275 1188 
Q 4238 1169 4194 1169 
Q 4156 1169 4119 1181 
Q 4044 1219 4013 1300 
Q 3825 1819 3506 2344 
Q 3475 2388 3475 2438 
Q 3475 2469 3481 2494 
Q 3506 2575 3581 2613 
Q 3638 2638 3688 2638 
Q 3725 2638 3756 2625 
Q 3850 2600 3900 2525 
Q 4244 1988 4419 1506 
z
" transform="scale(0.015625)"/>
      <path id="HackGenConsoleNF-Regular-3059" d="M 3250 1500 
Q 3531 1500 3688 1725 
Q 3813 1906 3813 2225 
Q 3813 2294 3806 2375 
Q 3806 2400 3794 2425 
Q 3644 2788 3238 2788 
Q 2981 2788 2790 2603 
Q 2600 2419 2600 2125 
Q 2600 1838 2787 1669 
Q 2975 1500 3250 1500 
z
M 4225 3788 
L 4169 3788 
Q 4144 3788 4144 3763 
Q 4144 3325 4156 2781 
Q 4156 2750 4169 2725 
Q 4363 2400 4363 1938 
Q 4363 1613 4278 1316 
Q 4194 1019 4012 722 
Q 3831 425 3490 175 
Q 3150 -75 2681 -244 
Q 2619 -269 2556 -269 
Q 2425 -269 2313 -156 
L 2188 -38 
Q 2138 13 2156 81 
Q 2175 150 2244 169 
Q 3356 481 3700 1188 
Q 3706 1194 3700 1197 
Q 3694 1200 3688 1200 
Q 3475 1056 3169 1056 
Q 2744 1056 2431 1343 
Q 2119 1631 2119 2119 
Q 2119 2581 2450 2903 
Q 2781 3225 3238 3225 
Q 3444 3225 3638 3163 
Q 3663 3156 3663 3181 
Q 3663 3550 3656 3756 
Q 3656 3781 3631 3781 
Q 2325 3775 1050 3688 
Q 956 3681 890 3743 
Q 825 3806 825 3894 
L 819 3950 
Q 819 4044 881 4109 
Q 944 4175 1038 4175 
Q 1119 4181 2119 4206 
Q 3119 4231 3619 4238 
Q 3650 4238 3650 4263 
Q 3650 4488 3638 4650 
Q 3631 4731 3625 4831 
Q 3619 4919 3675 4984 
Q 3731 5050 3819 5050 
L 3963 5050 
Q 4050 5050 4109 4984 
Q 4169 4919 4163 4831 
L 4150 4650 
Q 4150 4613 4147 4484 
Q 4144 4356 4144 4269 
Q 4144 4244 4169 4244 
L 4238 4244 
Q 4488 4244 5875 4238 
Q 5963 4238 6028 4172 
Q 6094 4106 6094 4013 
L 6094 3981 
Q 6088 3888 6022 3825 
Q 5956 3763 5869 3769 
Q 5281 3788 4225 3788 
z
" transform="scale(0.015625)"/>
      <path id="HackGenConsoleNF-Regular-308b" d="M 3369 213 
Q 3625 213 3850 244 
Q 3875 250 3869 275 
Q 3819 650 3600 872 
Q 3381 1094 3038 1094 
Q 2819 1094 2675 981 
Q 2531 869 2531 706 
Q 2531 475 2765 344 
Q 3000 213 3369 213 
z
M 4456 4775 
Q 4488 4781 4519 4781 
Q 4700 4781 4813 4638 
L 4831 4613 
Q 4888 4544 4872 4456 
Q 4856 4369 4788 4319 
Q 4681 4250 4619 4200 
Q 4481 4094 4197 3853 
Q 3913 3613 3531 3284 
Q 3150 2956 2988 2819 
Q 2981 2819 2984 2816 
Q 2988 2813 2994 2813 
Q 3381 2938 3825 2938 
Q 4613 2938 5125 2513 
Q 5638 2088 5638 1438 
Q 5638 931 5372 550 
Q 5106 169 4609 -40 
Q 4113 -250 3450 -250 
Q 2813 -250 2434 3 
Q 2056 256 2056 656 
Q 2056 1000 2331 1247 
Q 2606 1494 3038 1494 
Q 3588 1494 3925 1181 
Q 4263 869 4338 400 
Q 4344 369 4369 381 
Q 5131 688 5131 1444 
Q 5131 1906 4718 2212 
Q 4306 2519 3700 2519 
Q 3225 2519 2834 2387 
Q 2444 2256 2134 2031 
Q 1825 1806 1431 1419 
Q 1369 1356 1275 1356 
Q 1181 1356 1119 1419 
L 1063 1481 
Q 1000 1538 1000 1619 
Q 1000 1719 1075 1781 
Q 1288 1956 1859 2431 
Q 2431 2906 2613 3056 
Q 3594 3881 4044 4281 
Q 4050 4288 4047 4294 
Q 4044 4300 4038 4300 
Q 2881 4256 2156 4213 
Q 2019 4206 1950 4200 
Q 1863 4194 1794 4250 
Q 1725 4306 1725 4394 
L 1725 4481 
Q 1719 4569 1784 4628 
Q 1850 4688 1938 4688 
Q 1938 4688 2163 4688 
Q 2450 4688 3275 4713 
Q 4100 4738 4331 4763 
Q 4406 4769 4456 4775 
z
" transform="scale(0.015625)"/>
      <path id="HackGenConsoleNF-Regular-306e" d="M 1913 894 
Q 2138 894 2388 1259 
Q 2638 1625 2869 2388 
Q 3106 3163 3219 4069 
Q 3219 4081 3212 4087 
Q 3206 4094 3194 4094 
Q 2763 4031 2391 3822 
Q 2019 3613 1778 3325 
Q 1538 3038 1400 2703 
Q 1263 2369 1263 2050 
Q 1263 1500 1466 1197 
Q 1669 894 1913 894 
z
M 3800 -131 
Q 3769 -138 3744 -138 
Q 3675 -138 3606 -106 
Q 3519 -63 3463 25 
L 3400 125 
Q 3363 188 3397 256 
Q 3431 325 3506 338 
Q 3663 356 3831 388 
Q 4144 463 4425 609 
Q 4706 756 4937 981 
Q 5169 1206 5303 1537 
Q 5438 1869 5438 2263 
Q 5438 3000 4997 3512 
Q 4556 4025 3781 4100 
Q 3750 4100 3750 4075 
Q 3606 3069 3375 2281 
Q 2781 306 1888 306 
Q 1444 306 1100 781 
Q 756 1256 756 2006 
Q 756 2513 975 2984 
Q 1194 3456 1562 3809 
Q 1931 4163 2450 4372 
Q 2969 4581 3538 4581 
Q 4081 4581 4540 4397 
Q 5000 4213 5309 3897 
Q 5619 3581 5794 3156 
Q 5969 2731 5969 2250 
Q 5969 1306 5400 681 
Q 4831 56 3800 -131 
z
" transform="scale(0.015625)"/>
      <path id="HackGenConsoleNF-Regular-91d1" d="M 1875 3581 
Q 1869 3575 1869 3569 
Q 1869 3563 1875 3563 
L 4900 3563 
Q 4906 3563 4906 3569 
Q 4906 3575 4900 3581 
Q 3894 4319 3369 5019 
Q 3350 5044 3331 5019 
Q 2844 4325 1875 3581 
z
M 3625 1863 
Q 3594 1863 3594 1838 
L 3594 313 
Q 3594 288 3625 288 
L 5881 288 
Q 5969 288 6031 225 
Q 6094 163 6094 75 
Q 6094 -13 6031 -75 
Q 5969 -138 5881 -138 
L 881 -138 
Q 794 -138 731 -75 
Q 669 -13 669 75 
Q 669 163 731 225 
Q 794 288 881 288 
L 3075 288 
Q 3100 288 3100 313 
L 3100 1838 
Q 3100 1863 3075 1863 
L 1163 1863 
Q 1081 1863 1018 1925 
Q 956 1988 956 2072 
Q 956 2156 1018 2218 
Q 1081 2281 1163 2281 
L 3075 2281 
Q 3100 2281 3100 2313 
L 3100 3113 
Q 3100 3138 3075 3138 
L 2000 3138 
Q 1913 3138 1847 3203 
Q 1781 3269 1781 3363 
L 1781 3475 
Q 1781 3506 1756 3488 
Q 1344 3188 919 2944 
Q 838 2900 753 2925 
Q 669 2950 606 3025 
Q 600 3038 588 3044 
Q 550 3094 550 3156 
Q 550 3263 631 3306 
Q 1331 3694 1975 4250 
Q 2594 4800 2963 5319 
Q 3094 5506 3313 5506 
L 3338 5506 
Q 3556 5506 3700 5331 
Q 4169 4750 4825 4231 
Q 5481 3713 6138 3388 
Q 6213 3350 6225 3269 
Q 6231 3250 6231 3231 
Q 6231 3175 6194 3125 
Q 6169 3094 6144 3056 
Q 6094 2981 6006 2956 
Q 5919 2931 5838 2975 
Q 5413 3213 4988 3519 
Q 4963 3538 4963 3513 
L 4963 3363 
Q 4963 3269 4897 3203 
Q 4831 3138 4744 3138 
L 3625 3138 
Q 3594 3138 3594 3113 
L 3594 2313 
Q 3594 2281 3625 2281 
L 5581 2281 
Q 5663 2281 5725 2218 
Q 5788 2156 5788 2072 
Q 5788 1988 5725 1925 
Q 5663 1863 5575 1863 
L 3625 1863 
z
M 1600 1375 
Q 1575 1419 1575 1463 
Q 1575 1488 1581 1513 
Q 1606 1588 1675 1619 
Q 1725 1638 1775 1638 
Q 1813 1638 1850 1625 
Q 1938 1600 1988 1525 
Q 2269 1125 2413 769 
Q 2444 681 2406 593 
Q 2369 506 2281 463 
L 2269 463 
Q 2194 425 2112 462 
Q 2031 500 2006 581 
Q 1875 950 1600 1375 
z
M 4594 519 
Q 4544 450 4463 431 
Q 4431 425 4400 425 
Q 4350 425 4300 450 
Q 4231 475 4213 550 
Q 4206 569 4206 594 
Q 4206 638 4238 681 
Q 4488 1050 4713 1506 
Q 4750 1588 4838 1625 
Q 4881 1644 4925 1644 
Q 4969 1644 5013 1625 
L 5050 1613 
Q 5131 1581 5163 1500 
Q 5169 1469 5169 1438 
Q 5169 1388 5144 1344 
Q 4856 863 4594 519 
z
" transform="scale(0.015625)"/>
     </defs>
     <use xlink:href="#HackGenConsoleNF-Regular-5e74"/>
     <use xlink:href="#HackGenConsoleNF-Regular-9f62" x="105.46875"/>
     <use xlink:href="#HackGenConsoleNF-Regular-306b" x="210.9375"/>
     <use xlink:href="#HackGenConsoleNF-Regular-5bfe" x="316.40625"/>
     <use xlink:href="#HackGenConsoleNF-Regular-3059" x="421.875"/>
     <use xlink:href="#HackGenConsoleNF-Regular-308b" x="527.34375"/>
     <use xlink:href="#HackGenConsoleNF-Regular-304a" x="632.8125"/>
     <use xlink:href="#HackGenConsoleNF-Regular-5e74" x="738.28125"/>
     <use xlink:href="#HackGenConsoleNF-Regular-7389" x="843.75"/>
     <use xlink:href="#HackGenConsoleNF-Regular-306e" x="949.21875"/>
     <use xlink:href="#HackGenConsoleNF-Regular-91d1" x="1054.6875"/>
     <use xlink:href="#HackGenConsoleNF-Regular-984d" x="1160.15625"/>
    </g>
   </g>
   <g id="legend_1">
    <g id="patch_7">
     <path d="M 97 88.688437 
L 208.101562 88.688437 
Q 210.101562 88.688437 210.101562 86.688437 
L 210.101562 58.84 
Q 210.101562 56.84 208.101562 56.84 
L 97 56.84 
Q 95 56.84 95 58.84 
L 95 86.688437 
Q 95 88.688437 97 88.688437 
z
" style="fill: #ffffff; opacity: 0.8; stroke: #cccccc; stroke-linejoin: miter"/>
    </g>
    <g id="line2d_34">
     <path d="M 99 64.713437 
L 109 64.713437 
L 119 64.713437 
" style="fill: none; stroke: #0000ff; stroke-width: 1.5; stroke-linecap: square"/>
    </g>
    <g id="text_20">
     <!-- Fitted Function -->
     <g transform="translate(127 68.213437) scale(0.1 -0.1)">
      <defs>
       <path id="HackGenConsoleNF-Regular-46" d="M 631 4525 
L 3050 4525 
L 3050 4013 
L 1194 4013 
L 1194 2619 
L 2875 2619 
L 2875 2100 
L 1194 2100 
L 1194 0 
L 631 0 
L 631 4525 
z
" transform="scale(0.015625)"/>
       <path id="HackGenConsoleNF-Regular-69" d="M 1438 4013 
Q 1350 4013 1344 4100 
L 1344 4625 
Q 1344 4719 1438 4719 
L 1831 4719 
Q 1906 4719 1906 4625 
L 1906 4100 
Q 1906 4013 1831 4013 
L 1438 4013 
z
M 2356 -25 
Q 1906 -25 1653 297 
Q 1400 619 1400 1206 
L 1400 2956 
L 731 2956 
L 731 3394 
L 1906 3394 
L 1906 1206 
Q 1906 838 2034 644 
Q 2163 450 2400 450 
L 2994 450 
L 2994 -25 
L 2356 -25 
z
" transform="scale(0.015625)"/>
       <path id="HackGenConsoleNF-Regular-74" d="M 2219 -13 
Q 1650 -13 1412 243 
Q 1175 500 1175 1106 
L 1175 2956 
L 356 2956 
L 356 3394 
L 1175 3394 
L 1175 4281 
L 1681 4525 
L 1681 3394 
L 2831 3394 
L 2831 2956 
L 1681 2956 
L 1681 1106 
Q 1681 731 1812 584 
Q 1944 438 2263 438 
L 2831 438 
L 2831 -13 
L 2219 -13 
z
" transform="scale(0.015625)"/>
       <path id="HackGenConsoleNF-Regular-65" d="M 1850 -88 
Q 1138 -88 738 388 
Q 331 863 331 1675 
Q 331 2181 490 2587 
Q 650 2994 969 3237 
Q 1288 3481 1750 3481 
Q 2369 3481 2706 3043 
Q 3044 2606 3044 1838 
L 3044 1563 
L 856 1563 
L 856 1544 
Q 856 1013 1109 700 
Q 1363 388 1856 388 
Q 2144 388 2412 484 
Q 2681 581 2931 725 
L 2931 169 
Q 2669 50 2400 -19 
Q 2131 -88 1850 -88 
z
M 2538 2000 
Q 2538 2281 2463 2509 
Q 2388 2738 2219 2875 
Q 2044 3006 1769 3006 
Q 1488 3006 1300 2868 
Q 1113 2731 1006 2506 
Q 900 2281 881 2000 
L 2538 2000 
z
" transform="scale(0.015625)"/>
       <path id="HackGenConsoleNF-Regular-64" d="M 1519 -88 
Q 1181 -88 953 71 
Q 725 231 590 490 
Q 456 750 397 1072 
Q 338 1394 338 1719 
Q 338 2531 659 3006 
Q 981 3481 1531 3481 
Q 1800 3481 2012 3353 
Q 2225 3225 2356 2956 
L 2356 4719 
L 2856 4719 
L 2856 0 
L 2400 0 
L 2356 425 
Q 2081 -88 1519 -88 
z
M 1219 513 
Q 1369 388 1609 388 
Q 1850 388 1994 509 
Q 2138 631 2219 831 
Q 2300 1031 2328 1262 
Q 2356 1494 2356 1700 
Q 2356 1906 2328 2131 
Q 2300 2356 2219 2553 
Q 2138 2750 1994 2881 
Q 1850 3006 1609 3006 
Q 1369 3006 1219 2878 
Q 1069 2750 994 2553 
Q 919 2356 891 2131 
Q 863 1906 863 1700 
Q 863 1494 891 1262 
Q 919 1031 994 834 
Q 1069 638 1219 513 
z
" transform="scale(0.015625)"/>
       <path id="HackGenConsoleNF-Regular-20" transform="scale(0.015625)"/>
       <path id="HackGenConsoleNF-Regular-75" d="M 1469 -88 
Q 531 -88 531 1288 
L 531 3388 
L 1038 3388 
L 1038 1288 
Q 1038 400 1638 400 
Q 1988 400 2181 678 
Q 2375 956 2375 1469 
L 2375 3388 
L 2888 3388 
L 2888 0 
L 2425 0 
L 2375 506 
Q 2100 -88 1469 -88 
z
" transform="scale(0.015625)"/>
       <path id="HackGenConsoleNF-Regular-6e" d="M 531 3394 
L 981 3394 
L 1038 2888 
Q 1313 3481 1944 3481 
Q 2888 3481 2888 2106 
L 2888 0 
L 2375 0 
L 2375 2106 
Q 2375 2569 2228 2781 
Q 2081 2994 1788 2994 
Q 1425 2994 1231 2719 
Q 1038 2425 1038 1919 
L 1038 0 
L 531 0 
L 531 3394 
z
" transform="scale(0.015625)"/>
       <path id="HackGenConsoleNF-Regular-63" d="M 1931 -88 
Q 1450 -88 1119 137 
Q 788 363 613 763 
Q 444 1175 444 1700 
Q 444 2225 616 2622 
Q 788 3019 1119 3250 
Q 1450 3481 1944 3481 
Q 2194 3481 2403 3412 
Q 2613 3344 2825 3213 
L 2825 2631 
Q 2625 2825 2431 2915 
Q 2238 3006 1988 3006 
Q 1613 3006 1391 2831 
Q 1169 2656 1075 2359 
Q 981 2063 981 1697 
Q 981 1331 1078 1034 
Q 1175 738 1397 563 
Q 1619 388 1988 388 
Q 2231 388 2437 472 
Q 2644 556 2825 750 
L 2825 169 
Q 2431 -88 1931 -88 
z
" transform="scale(0.015625)"/>
       <path id="HackGenConsoleNF-Regular-6f" d="M 1688 -88 
Q 1044 -88 703 371 
Q 363 831 363 1690 
Q 363 2550 703 3015 
Q 1044 3481 1681 3481 
Q 2319 3481 2659 3018 
Q 3000 2556 3000 1688 
Q 3000 825 2662 368 
Q 2325 -88 1688 -88 
z
M 1681 388 
Q 2056 388 2259 728 
Q 2463 1069 2463 1697 
Q 2463 2325 2263 2669 
Q 2056 3006 1681 3006 
Q 1300 3006 1100 2665 
Q 900 2325 900 1697 
Q 900 1069 1103 728 
Q 1306 388 1681 388 
z
" transform="scale(0.015625)"/>
      </defs>
      <use xlink:href="#HackGenConsoleNF-Regular-46"/>
      <use xlink:href="#HackGenConsoleNF-Regular-69" x="52.734375"/>
      <use xlink:href="#HackGenConsoleNF-Regular-74" x="105.46875"/>
      <use xlink:href="#HackGenConsoleNF-Regular-74" x="158.203125"/>
      <use xlink:href="#HackGenConsoleNF-Regular-65" x="210.9375"/>
      <use xlink:href="#HackGenConsoleNF-Regular-64" x="263.671875"/>
      <use xlink:href="#HackGenConsoleNF-Regular-20" x="316.40625"/>
      <use xlink:href="#HackGenConsoleNF-Regular-46" x="369.140625"/>
      <use xlink:href="#HackGenConsoleNF-Regular-75" x="421.875"/>
      <use xlink:href="#HackGenConsoleNF-Regular-6e" x="474.609375"/>
      <use xlink:href="#HackGenConsoleNF-Regular-63" x="527.34375"/>
      <use xlink:href="#HackGenConsoleNF-Regular-74" x="580.078125"/>
      <use xlink:href="#HackGenConsoleNF-Regular-69" x="632.8125"/>
      <use xlink:href="#HackGenConsoleNF-Regular-6f" x="685.546875"/>
      <use xlink:href="#HackGenConsoleNF-Regular-6e" x="738.28125"/>
     </g>
    </g>
    <g id="PathCollection_2">
     <g>
      <use xlink:href="#m2db39b7037" x="109" y="79.98375" style="fill: #ff0000; stroke: #ff0000"/>
     </g>
    </g>
    <g id="text_21">
     <!-- Original Data -->
     <g transform="translate(127 82.60875) scale(0.1 -0.1)">
      <defs>
       <path id="HackGenConsoleNF-Regular-4f" d="M 1688 -88 
Q 994 -88 656 494 
Q 313 1069 313 2256 
Q 313 3444 656 4025 
Q 1000 4606 1688 4606 
Q 2031 4606 2287 4468 
Q 2544 4331 2719 4025 
Q 3063 3444 3063 2256 
Q 3063 1081 2719 500 
Q 2544 200 2287 56 
Q 2031 -88 1688 -88 
z
M 1688 413 
Q 2113 413 2300 838 
Q 2481 1250 2481 2256 
Q 2481 3263 2300 3688 
Q 2113 4113 1688 4113 
Q 1269 4113 1081 3688 
Q 894 3250 894 2256 
Q 894 1275 1081 838 
Q 1269 413 1688 413 
z
" transform="scale(0.015625)"/>
       <path id="HackGenConsoleNF-Regular-72" d="M 825 3394 
L 1281 3394 
L 1338 2725 
Q 1469 3088 1728 3284 
Q 1988 3481 2350 3481 
Q 2738 3481 3006 3263 
L 3006 2694 
Q 2706 2963 2306 2956 
Q 1838 2956 1588 2631 
Q 1338 2306 1338 1688 
L 1338 0 
L 825 0 
L 825 3394 
z
" transform="scale(0.015625)"/>
       <path id="HackGenConsoleNF-Regular-67" d="M 1644 -1331 
Q 1425 -1331 1200 -1288 
Q 975 -1238 750 -1163 
L 750 -619 
Q 956 -725 1190 -806 
Q 1425 -888 1669 -888 
Q 1969 -888 2131 -759 
Q 2294 -631 2356 -400 
Q 2425 -169 2431 131 
L 2431 538 
Q 2313 244 2100 109 
Q 1888 -25 1600 -25 
Q 1269 -25 1041 131 
Q 813 288 672 544 
Q 531 800 472 1109 
Q 413 1419 413 1725 
Q 413 2031 472 2343 
Q 531 2656 675 2909 
Q 819 3163 1047 3322 
Q 1275 3481 1606 3481 
Q 1881 3481 2087 3353 
Q 2294 3225 2431 2944 
L 2481 3381 
L 2938 3381 
L 2938 219 
Q 2938 -494 2631 -912 
Q 2325 -1331 1644 -1331 
z
M 1700 438 
Q 2063 438 2247 772 
Q 2431 1106 2431 1731 
Q 2431 1938 2403 2156 
Q 2375 2375 2300 2569 
Q 2225 2763 2078 2884 
Q 1931 3006 1700 3006 
Q 1338 3006 1138 2684 
Q 938 2363 938 1734 
Q 938 1106 1138 772 
Q 1338 438 1700 438 
z
" transform="scale(0.015625)"/>
       <path id="HackGenConsoleNF-Regular-61" d="M 1388 -88 
Q 938 -88 650 193 
Q 363 475 363 1006 
Q 363 1444 553 1691 
Q 744 1938 1056 2041 
Q 1369 2144 1719 2144 
L 2394 2144 
L 2394 2231 
Q 2394 2669 2197 2837 
Q 2000 3006 1638 3006 
Q 1356 3006 1090 2922 
Q 825 2838 588 2681 
L 588 3238 
Q 838 3338 1097 3409 
Q 1356 3481 1625 3481 
Q 1900 3481 2159 3397 
Q 2419 3313 2612 3122 
Q 2806 2931 2863 2613 
Q 2906 2388 2906 1938 
L 2906 1244 
Q 2906 956 2937 612 
Q 2969 269 3069 0 
L 2563 0 
Q 2519 119 2491 253 
Q 2463 388 2438 513 
Q 2275 213 1990 62 
Q 1706 -88 1388 -88 
z
M 1513 375 
Q 1825 375 2022 544 
Q 2219 713 2306 991 
Q 2394 1269 2394 1581 
L 2394 1713 
L 1756 1713 
Q 1544 1713 1337 1656 
Q 1131 1600 1000 1453 
Q 869 1306 869 1019 
Q 869 700 1047 537 
Q 1225 375 1513 375 
z
" transform="scale(0.015625)"/>
       <path id="HackGenConsoleNF-Regular-6c" d="M 2250 -25 
Q 1800 -25 1550 297 
Q 1300 619 1300 1206 
L 1300 4281 
L 488 4281 
L 488 4719 
L 1806 4719 
L 1806 1206 
Q 1806 838 1934 644 
Q 2063 450 2306 450 
L 2894 450 
L 2894 -25 
L 2250 -25 
z
" transform="scale(0.015625)"/>
       <path id="HackGenConsoleNF-Regular-44" d="M 369 4525 
L 1206 4525 
Q 2144 4525 2591 3972 
Q 3038 3419 3038 2256 
Q 3038 1106 2588 550 
Q 2144 0 1206 0 
L 369 0 
L 369 4525 
z
M 1194 506 
Q 1900 506 2169 888 
Q 2444 1263 2444 2269 
Q 2444 3275 2169 3644 
Q 2025 3838 1778 3931 
Q 1531 4025 1194 4025 
L 931 4025 
L 931 506 
L 1194 506 
z
" transform="scale(0.015625)"/>
      </defs>
      <use xlink:href="#HackGenConsoleNF-Regular-4f"/>
      <use xlink:href="#HackGenConsoleNF-Regular-72" x="52.734375"/>
      <use xlink:href="#HackGenConsoleNF-Regular-69" x="105.46875"/>
      <use xlink:href="#HackGenConsoleNF-Regular-67" x="158.203125"/>
      <use xlink:href="#HackGenConsoleNF-Regular-69" x="210.9375"/>
      <use xlink:href="#HackGenConsoleNF-Regular-6e" x="263.671875"/>
      <use xlink:href="#HackGenConsoleNF-Regular-61" x="316.40625"/>
      <use xlink:href="#HackGenConsoleNF-Regular-6c" x="369.140625"/>
      <use xlink:href="#HackGenConsoleNF-Regular-20" x="421.875"/>
      <use xlink:href="#HackGenConsoleNF-Regular-44" x="474.609375"/>
      <use xlink:href="#HackGenConsoleNF-Regular-61" x="527.34375"/>
      <use xlink:href="#HackGenConsoleNF-Regular-74" x="580.078125"/>
      <use xlink:href="#HackGenConsoleNF-Regular-61" x="632.8125"/>
     </g>
    </g>
   </g>
  </g>
 </g>
 <defs>
  <clipPath id="pee5f16f48e">
   <rect x="90" y="51.84" width="558" height="332.64"/>
  </clipPath>
 </defs>
</svg>
