<?xml version="1.0" encoding="UTF-8" standalone="yes"?><svg xmlns="http://www.w3.org/2000/svg" xmlns:xlink="http://www.w3.org/1999/xlink" height="602px" style="width:140px;height:602px;" version="1.1" viewBox="0 0 140 602" width="140px"><defs><filter height="300%" id="f7anbce" width="300%" x="-1" y="-1"><feGaussianBlur result="blurOut" stdDeviation="2.0"/><feColorMatrix in="blurOut" result="blurOut2" type="matrix" values="0 0 0 0 0 0 0 0 0 0 0 0 0 0 0 0 0 0 .4 0"/><feOffset dx="4.0" dy="4.0" in="blurOut2" result="blurOut3"/><feBlend in="SourceGraphic" in2="blurOut3" mode="normal"/></filter></defs><g><ellipse cx="31" cy="18" fill="#000000" filter="url(#f7anbce)" rx="10" ry="10" style="stroke: none; stroke-width: 1.0;"/><rect fill="#FEFECE" filter="url(#f7anbce)" height="50" rx="12.5" ry="12.5" style="stroke: #A80036; stroke-width: 1.5;" width="50" x="6" y="89"/><line style="stroke: #A80036; stroke-width: 1.5;" x1="6" x2="56" y1="113.6999" y2="113.6999"/><text fill="#000000" font-family="sans-serif" font-size="14" lengthAdjust="spacingAndGlyphs" textLength="7" x="27.5" y="105.6899">p</text><rect fill="#FEFECE" filter="url(#f7anbce)" height="50" rx="12.5" ry="12.5" style="stroke: #A80036; stroke-width: 1.5;" width="50" x="6" y="214"/><line style="stroke: #A80036; stroke-width: 1.5;" x1="6" x2="56" y1="238.6999" y2="238.6999"/><text fill="#000000" font-family="sans-serif" font-size="14" lengthAdjust="spacingAndGlyphs" textLength="7" x="27.5" y="230.6899">q</text><rect fill="#FEFECE" filter="url(#f7anbce)" height="50" rx="12.5" ry="12.5" style="stroke: #A80036; stroke-width: 1.5;" width="50" x="6" y="339"/><line style="stroke: #A80036; stroke-width: 1.5;" x1="6" x2="56" y1="363.6999" y2="363.6999"/><text fill="#000000" font-family="sans-serif" font-size="14" lengthAdjust="spacingAndGlyphs" textLength="7" x="27.5" y="355.6899">r</text><rect fill="#FEFECE" filter="url(#f7anbce)" height="50" rx="12.5" ry="12.5" style="stroke: #A80036; stroke-width: 1.5;" width="50" x="6" y="464"/><line style="stroke: #A80036; stroke-width: 1.5;" x1="6" x2="56" y1="488.6999" y2="488.6999"/><text fill="#000000" font-family="sans-serif" font-size="14" lengthAdjust="spacingAndGlyphs" textLength="7" x="27.5" y="480.6899">s</text><ellipse cx="31" cy="585" fill="none" filter="url(#f7anbce)" rx="10" ry="10" style="stroke: #000000; stroke-width: 1.0;"/><ellipse cx="31.5" cy="585.5" fill="#000000" rx="6" ry="6" style="stroke: none; stroke-width: 1.0;"/><path d="M31,28.2737 C31,41.3608 31,64.5555 31,83.5207 " fill="none" style="stroke: #A80036; stroke-width: 1.0;"/><polygon fill="#A80036" points="31,88.7458,35,79.7458,31,83.7458,27,79.7458,31,88.7458" style="stroke: #A80036; stroke-width: 1.0;"/><path d="M18.0553,139.0749 C13.9913,148.2403 10.0363,158.8524 8,169 C5.3115,182.3973 8.8713,196.802 13.9329,209.0406 " fill="none" style="stroke: #A80036; stroke-width: 1.0;"/><polygon fill="#A80036" points="16.0169,213.7925,16.0652,203.9438,14.0086,209.2135,8.7389,207.157,16.0169,213.7925" style="stroke: #A80036; stroke-width: 1.0;"/><text fill="#000000" font-family="sans-serif" font-size="13" lengthAdjust="spacingAndGlyphs" textLength="7" x="9" y="180.855">0</text><path d="M31,213.742 C31,193.7594 31,165.7819 31,144.5416 " fill="none" style="stroke: #A80036; stroke-width: 1.0;"/><polygon fill="#A80036" points="31,139.2956,27,148.2956,31,144.2956,35,148.2956,31,139.2956" style="stroke: #A80036; stroke-width: 1.0;"/><text fill="#000000" font-family="sans-serif" font-size="13" lengthAdjust="spacingAndGlyphs" textLength="7" x="32" y="180.855">1</text><path d="M56.2777,104.8638 C73.7734,102.0952 91,105.1406 91,114 C91,121.9596 77.0949,125.2262 61.5823,123.7999 " fill="none" style="stroke: #A80036; stroke-width: 1.0;"/><polygon fill="#A80036" points="56.2777,123.1362,64.7115,128.2225,61.239,123.7569,65.7046,120.2844,56.2777,123.1362" style="stroke: #A80036; stroke-width: 1.0;"/><text fill="#000000" font-family="sans-serif" font-size="13" lengthAdjust="spacingAndGlyphs" textLength="7" x="97" y="118.355">1</text><path d="M31,264.2956 C31,284.2883 31,312.2665 31,333.4984 " fill="none" style="stroke: #A80036; stroke-width: 1.0;"/><polygon fill="#A80036" points="31,338.742,35,329.742,31,333.742,27,329.742,31,338.742" style="stroke: #A80036; stroke-width: 1.0;"/><text fill="#000000" font-family="sans-serif" font-size="13" lengthAdjust="spacingAndGlyphs" textLength="7" x="32" y="305.855">0</text><path d="M56.2777,353.5103 C73.7734,350.3315 91,353.8281 91,364 C91,373.1388 77.0949,376.8894 61.5823,375.2517 " fill="none" style="stroke: #A80036; stroke-width: 1.0;"/><polygon fill="#A80036" points="56.2777,374.4897,64.6174,379.7289,61.2269,375.2007,65.755,371.8102,56.2777,374.4897" style="stroke: #A80036; stroke-width: 1.0;"/><text fill="#000000" font-family="sans-serif" font-size="13" lengthAdjust="spacingAndGlyphs" textLength="7" x="97" y="368.355">0</text><path d="M31,389.2956 C31,409.2883 31,437.2665 31,458.4984 " fill="none" style="stroke: #A80036; stroke-width: 1.0;"/><polygon fill="#A80036" points="31,463.742,35,454.742,31,458.742,27,454.742,31,463.742" style="stroke: #A80036; stroke-width: 1.0;"/><text fill="#000000" font-family="sans-serif" font-size="13" lengthAdjust="spacingAndGlyphs" textLength="7" x="32" y="430.855">1</text><path d="M56.2777,484.4319 C73.7734,483.0476 91,484.5703 91,489 C91,492.9798 77.0949,494.6131 61.5823,493.8999 " fill="none" style="stroke: #A80036; stroke-width: 1.0;"/><polygon fill="#A80036" points="56.2777,493.5681,65.0104,498.1222,61.2679,493.8802,65.5099,490.1378,56.2777,493.5681" style="stroke: #A80036; stroke-width: 1.0;"/><text fill="#000000" font-family="sans-serif" font-size="13" lengthAdjust="spacingAndGlyphs" textLength="7" x="97" y="493.355">0</text><path d="M56.295,481.9031 C88.1136,476.193 126,478.5586 126,489 C126,498.8704 92.1442,501.5241 61.5625,496.9613 " fill="none" style="stroke: #A80036; stroke-width: 1.0;"/><polygon fill="#A80036" points="56.295,496.0969,64.5284,501.5016,61.229,496.9066,65.824,493.6072,56.295,496.0969" style="stroke: #A80036; stroke-width: 1.0;"/><text fill="#000000" font-family="sans-serif" font-size="13" lengthAdjust="spacingAndGlyphs" textLength="7" x="132" y="493.355">1</text><path d="M31,514.2229 C31,531.8366 31,554.7774 31,569.6928 " fill="none" style="stroke: #A80036; stroke-width: 1.0;"/><polygon fill="#A80036" points="31,574.8002,35,565.8002,31,569.8002,27,565.8002,31,574.8002" style="stroke: #A80036; stroke-width: 1.0;"/></g></svg>