<?xml version="1.0" encoding="UTF-8" standalone="yes"?><svg xmlns="http://www.w3.org/2000/svg" xmlns:xlink="http://www.w3.org/1999/xlink" height="2045px" style="width:2131px;height:2045px;" version="1.1" viewBox="0 0 2131 2045" width="2131px"><defs><filter height="300%" id="fbxmle5" width="300%" x="-1" y="-1"><feGaussianBlur result="blurOut" stdDeviation="2.0"/><feColorMatrix in="blurOut" result="blurOut2" type="matrix" values="0 0 0 0 0 0 0 0 0 0 0 0 0 0 0 0 0 0 .4 0"/><feOffset dx="4.0" dy="4.0" in="blurOut2" result="blurOut3"/><feBlend in="SourceGraphic" in2="blurOut3" mode="normal"/></filter></defs><g><text fill="#000000" font-family="sans-serif" font-size="18" lengthAdjust="spacingAndGlyphs" textLength="378" x="885.5" y="15.0299">3lと5lのバケツを状態とする有限オートマトン</text><polygon fill="#FBFB77" filter="url(#fbxmle5)" points="1341.5,26.8999,1341.5,50.5499,1632.5,50.5499,1632.5,36.8999,1622.5,26.8999,1341.5,26.8999" style="stroke: #A80036; stroke-width: 1.0;"/><line style="stroke: #A80036; stroke-width: 1.0;" x1="1622.5" x2="1622.5" y1="26.8999" y2="36.8999"/><line style="stroke: #A80036; stroke-width: 1.0;" x1="1632.5" x2="1622.5" y1="36.8999" y2="36.8999"/><text fill="#000000" font-family="sans-serif" font-size="13" lengthAdjust="spacingAndGlyphs" textLength="270" x="1347.5" y="42.7549">入力 4, 2, 5, 2, 4, 2 によって4lが集まる</text><ellipse cx="1677" cy="38.8999" fill="#000000" filter="url(#fbxmle5)" rx="10" ry="10" style="stroke: none; stroke-width: 1.0;"/><rect fill="#FEFECE" filter="url(#fbxmle5)" height="50" rx="12.5" ry="12.5" style="stroke: #A80036; stroke-width: 1.5;" width="50" x="1652" y="111.8999"/><line style="stroke: #A80036; stroke-width: 1.5;" x1="1652" x2="1702" y1="136.5998" y2="136.5998"/><text fill="#000000" font-family="sans-serif" font-size="14" lengthAdjust="spacingAndGlyphs" textLength="14" x="1670" y="128.5898">00</text><rect fill="#FEFECE" filter="url(#fbxmle5)" height="50" rx="12.5" ry="12.5" style="stroke: #A80036; stroke-width: 1.5;" width="50" x="743" y="236.8999"/><line style="stroke: #A80036; stroke-width: 1.5;" x1="743" x2="793" y1="261.5998" y2="261.5998"/><text fill="#000000" font-family="sans-serif" font-size="14" lengthAdjust="spacingAndGlyphs" textLength="14" x="761" y="253.5898">30</text><rect fill="#FEFECE" filter="url(#fbxmle5)" height="50" rx="12.5" ry="12.5" style="stroke: #A80036; stroke-width: 1.5;" width="50" x="1591" y="486.8999"/><line style="stroke: #A80036; stroke-width: 1.5;" x1="1591" x2="1641" y1="511.5998" y2="511.5998"/><text fill="#000000" font-family="sans-serif" font-size="14" lengthAdjust="spacingAndGlyphs" textLength="14" x="1609" y="503.5898">05</text><rect fill="#FEFECE" filter="url(#fbxmle5)" height="50" rx="12.5" ry="12.5" style="stroke: #A80036; stroke-width: 1.5;" width="50" x="824" y="1486.8999"/><line style="stroke: #A80036; stroke-width: 1.5;" x1="824" x2="874" y1="1511.5998" y2="1511.5998"/><text fill="#000000" font-family="sans-serif" font-size="14" lengthAdjust="spacingAndGlyphs" textLength="14" x="842" y="1503.5898">01</text><rect fill="#FEFECE" filter="url(#fbxmle5)" height="50" rx="12.5" ry="12.5" style="stroke: #A80036; stroke-width: 1.5;" width="50" x="773" y="1611.8999"/><line style="stroke: #A80036; stroke-width: 1.5;" x1="773" x2="823" y1="1636.5998" y2="1636.5998"/><text fill="#000000" font-family="sans-serif" font-size="14" lengthAdjust="spacingAndGlyphs" textLength="14" x="791" y="1628.5898">10</text><rect fill="#FEFECE" filter="url(#fbxmle5)" height="50" rx="12.5" ry="12.5" style="stroke: #A80036; stroke-width: 1.5;" width="50" x="775" y="1361.8999"/><line style="stroke: #A80036; stroke-width: 1.5;" x1="775" x2="825" y1="1386.5998" y2="1386.5998"/><text fill="#000000" font-family="sans-serif" font-size="14" lengthAdjust="spacingAndGlyphs" textLength="14" x="793" y="1378.5898">31</text><rect fill="#FEFECE" filter="url(#fbxmle5)" height="50" rx="12.5" ry="12.5" style="stroke: #A80036; stroke-width: 1.5;" width="50" x="1276" y="736.8999"/><line style="stroke: #A80036; stroke-width: 1.5;" x1="1276" x2="1326" y1="761.5998" y2="761.5998"/><text fill="#000000" font-family="sans-serif" font-size="14" lengthAdjust="spacingAndGlyphs" textLength="14" x="1294" y="753.5898">02</text><rect fill="#FEFECE" filter="url(#fbxmle5)" height="50" rx="12.5" ry="12.5" style="stroke: #A80036; stroke-width: 1.5;" width="50" x="1248" y="861.8999"/><line style="stroke: #A80036; stroke-width: 1.5;" x1="1248" x2="1298" y1="886.5998" y2="886.5998"/><text fill="#000000" font-family="sans-serif" font-size="14" lengthAdjust="spacingAndGlyphs" textLength="14" x="1266" y="878.5898">20</text><rect fill="#FEFECE" filter="url(#fbxmle5)" height="50" rx="12.5" ry="12.5" style="stroke: #A80036; stroke-width: 1.5;" width="50" x="1219" y="611.8999"/><line style="stroke: #A80036; stroke-width: 1.5;" x1="1219" x2="1269" y1="636.5998" y2="636.5998"/><text fill="#000000" font-family="sans-serif" font-size="14" lengthAdjust="spacingAndGlyphs" textLength="14" x="1237" y="628.5898">32</text><rect fill="#FEFECE" filter="url(#fbxmle5)" height="50" rx="12.5" ry="12.5" style="stroke: #A80036; stroke-width: 1.5;" width="50" x="332" y="1986.8999"/><line style="stroke: #A80036; stroke-width: 1.5;" x1="332" x2="382" y1="2011.5998" y2="2011.5998"/><text fill="#000000" font-family="sans-serif" font-size="14" lengthAdjust="spacingAndGlyphs" textLength="14" x="350" y="2003.5898">03</text><rect fill="#FEFECE" filter="url(#fbxmle5)" height="50" rx="12.5" ry="12.5" style="stroke: #A80036; stroke-width: 1.5;" width="50" x="381" y="1861.8999"/><line style="stroke: #A80036; stroke-width: 1.5;" x1="381" x2="431" y1="1886.5998" y2="1886.5998"/><text fill="#000000" font-family="sans-serif" font-size="14" lengthAdjust="spacingAndGlyphs" textLength="14" x="399" y="1878.5898">33</text><rect fill="#FEFECE" filter="url(#fbxmle5)" height="50" rx="12.5" ry="12.5" style="stroke: #A80036; stroke-width: 1.5;" width="50" x="694" y="361.8999"/><line style="stroke: #A80036; stroke-width: 1.5;" x1="694" x2="744" y1="386.5998" y2="386.5998"/><text fill="#000000" font-family="sans-serif" font-size="14" lengthAdjust="spacingAndGlyphs" textLength="14" x="712" y="378.5898">35</text><rect fill="#FEFECE" filter="url(#fbxmle5)" height="50" rx="12.5" ry="12.5" style="stroke: #A80036; stroke-width: 1.5;" width="50" x="879" y="1236.8999"/><line style="stroke: #A80036; stroke-width: 1.5;" x1="879" x2="929" y1="1261.5998" y2="1261.5998"/><text fill="#000000" font-family="sans-serif" font-size="14" lengthAdjust="spacingAndGlyphs" textLength="14" x="897" y="1253.5898">04</text><rect fill="#FEFECE" filter="url(#fbxmle5)" height="50" rx="12.5" ry="12.5" style="stroke: #A80036; stroke-width: 1.5;" width="50" x="928" y="1111.8999"/><line style="stroke: #A80036; stroke-width: 1.5;" x1="928" x2="978" y1="1136.5998" y2="1136.5998"/><text fill="#000000" font-family="sans-serif" font-size="14" lengthAdjust="spacingAndGlyphs" textLength="14" x="946" y="1128.5898">34</text><ellipse cx="944" cy="1386.8999" fill="none" filter="url(#fbxmle5)" rx="10" ry="10" style="stroke: #000000; stroke-width: 1.0;"/><ellipse cx="944.5" cy="1387.3999" fill="#000000" rx="6" ry="6" style="stroke: none; stroke-width: 1.0;"/><rect fill="#FEFECE" filter="url(#fbxmle5)" height="50" rx="12.5" ry="12.5" style="stroke: #A80036; stroke-width: 1.5;" width="50" x="633" y="1736.8999"/><line style="stroke: #A80036; stroke-width: 1.5;" x1="633" x2="683" y1="1761.5998" y2="1761.5998"/><text fill="#000000" font-family="sans-serif" font-size="14" lengthAdjust="spacingAndGlyphs" textLength="14" x="651" y="1753.5898">15</text><rect fill="#FEFECE" filter="url(#fbxmle5)" height="50" rx="12.5" ry="12.5" style="stroke: #A80036; stroke-width: 1.5;" width="50" x="1141" y="986.8999"/><line style="stroke: #A80036; stroke-width: 1.5;" x1="1141" x2="1191" y1="1011.5998" y2="1011.5998"/><text fill="#000000" font-family="sans-serif" font-size="14" lengthAdjust="spacingAndGlyphs" textLength="14" x="1159" y="1003.5898">25</text><rect fill="#FEFECE" filter="url(#fbxmle5)" height="50" rx="12.5" ry="12.5" style="stroke: #A80036; stroke-width: 1.5;" width="50" x="1392" y="361.8999"/><line style="stroke: #A80036; stroke-width: 1.5;" x1="1392" x2="1442" y1="386.5998" y2="386.5998"/><text fill="#000000" font-family="sans-serif" font-size="14" lengthAdjust="spacingAndGlyphs" textLength="14" x="1410" y="378.5898">23</text><path d="M1677,49.0185 C1677,62.4862 1677,86.8908 1677,106.5706 " fill="none" style="stroke: #A80036; stroke-width: 1.0;"/><polygon fill="#A80036" points="1677,111.7221,1681,102.7221,1677,106.7221,1673,102.7221,1677,111.7221" style="stroke: #A80036; stroke-width: 1.0;"/><path d="M1702.2777,134.6158 C1719.7734,133.9237 1737,134.6851 1737,136.8999 C1737,138.8898 1723.0949,139.7065 1707.5823,139.3499 " fill="none" style="stroke: #A80036; stroke-width: 1.0;"/><polygon fill="#A80036" points="1702.2777,139.184,1711.1482,143.4636,1707.2753,139.3404,1711.3984,135.4675,1702.2777,139.184" style="stroke: #A80036; stroke-width: 1.0;"/><text fill="#000000" font-family="sans-serif" font-size="13" lengthAdjust="spacingAndGlyphs" textLength="7" x="1743" y="141.2549">1</text><path d="M1702.295,133.3515 C1734.1136,130.4964 1772,131.6792 1772,136.8999 C1772,141.8351 1738.1442,143.162 1707.5625,140.8805 " fill="none" style="stroke: #A80036; stroke-width: 1.0;"/><polygon fill="#A80036" points="1702.295,140.4483,1710.9378,145.1708,1707.2783,140.8571,1711.592,137.1976,1702.295,140.4483" style="stroke: #A80036; stroke-width: 1.0;"/><text fill="#000000" font-family="sans-serif" font-size="13" lengthAdjust="spacingAndGlyphs" textLength="7" x="1778" y="141.2549">2</text><path d="M1702.2056,132.6156 C1747.2841,127.0672 1807,128.4954 1807,136.8999 C1807,144.9926 1751.6339,146.617 1707.2808,141.7731 " fill="none" style="stroke: #A80036; stroke-width: 1.0;"/><polygon fill="#A80036" points="1702.2056,141.1842,1710.6844,146.1951,1707.1723,141.7606,1711.6067,138.2484,1702.2056,141.1842" style="stroke: #A80036; stroke-width: 1.0;"/><text fill="#000000" font-family="sans-serif" font-size="13" lengthAdjust="spacingAndGlyphs" textLength="7" x="1813" y="141.2549">5</text><path d="M1702.2211,132.1198 C1760.022,123.6522 1842,125.2456 1842,136.8999 C1842,148.2128 1764.755,150.0456 1707.3609,142.3983 " fill="none" style="stroke: #A80036; stroke-width: 1.0;"/><polygon fill="#A80036" points="1702.2211,141.68,1710.5807,146.8873,1707.173,142.3721,1711.6882,138.9644,1702.2211,141.68" style="stroke: #A80036; stroke-width: 1.0;"/><text fill="#000000" font-family="sans-serif" font-size="13" lengthAdjust="spacingAndGlyphs" textLength="7" x="1848" y="141.2549">6</text><path d="M1651.7239,144.4948 C1602.3168,159.0298 1489.2588,190.7669 1392,206.8999 C1165.8375,244.415 889.0318,257.4402 798.3367,260.8702 " fill="none" style="stroke: #A80036; stroke-width: 1.0;"/><polygon fill="#A80036" points="793.1401,261.0638,802.2829,264.7257,798.1366,260.8775,801.9848,256.7312,793.1401,261.0638" style="stroke: #A80036; stroke-width: 1.0;"/><text fill="#000000" font-family="sans-serif" font-size="13" lengthAdjust="spacingAndGlyphs" textLength="7" x="1464" y="203.7549">3</text><path d="M793.1385,258.443 C921.802,240.75 1506.03,160.4106 1646.5411,141.0884 " fill="none" style="stroke: #A80036; stroke-width: 1.0;"/><polygon fill="#A80036" points="1651.7394,140.3736,1642.2783,137.6372,1646.786,141.0549,1643.3684,145.5626,1651.7394,140.3736" style="stroke: #A80036; stroke-width: 1.0;"/><text fill="#000000" font-family="sans-serif" font-size="13" lengthAdjust="spacingAndGlyphs" textLength="7" x="1277" y="203.7549">5</text><path d="M793.2194,259.942 C869.0542,253.9077 1101.5856,234.3326 1293,206.8999 C1297.4343,206.2644 1556.733,158.8836 1646.6728,142.4439 " fill="none" style="stroke: #A80036; stroke-width: 1.0;"/><polygon fill="#A80036" points="1651.8427,141.4989,1642.2701,139.1826,1646.9242,142.398,1643.7087,147.0521,1651.8427,141.4989" style="stroke: #A80036; stroke-width: 1.0;"/><text fill="#000000" font-family="sans-serif" font-size="13" lengthAdjust="spacingAndGlyphs" textLength="7" x="1369" y="203.7549">6</text><path d="M1702.0281,139.1259 C1733.3796,143.4089 1785.9045,155.861 1810,191.8999 C1875.4622,289.8096 1881.0213,362.9447 1810,456.8999 C1790.243,483.0367 1695.663,500.3562 1646.2391,507.7792 " fill="none" style="stroke: #A80036; stroke-width: 1.0;"/><polygon fill="#A80036" points="1641.0222,508.5512,1650.5108,511.1905,1645.9683,507.8192,1649.3396,503.2767,1641.0222,508.5512" style="stroke: #A80036; stroke-width: 1.0;"/><text fill="#000000" font-family="sans-serif" font-size="13" lengthAdjust="spacingAndGlyphs" textLength="7" x="1862" y="328.7549">4</text><path d="M1637.5852,486.7446 C1644.8551,477.6595 1652.7108,467.1189 1659,456.8999 C1702.7671,385.7854 1720.7835,368.3922 1739,286.8999 C1748.2109,245.6946 1756.3159,230.408 1739,191.8999 C1732.1608,176.6905 1718.8065,163.9795 1706.238,154.6222 " fill="none" style="stroke: #A80036; stroke-width: 1.0;"/><polygon fill="#A80036" points="1702.0163,151.5787,1706.9775,160.0867,1706.0721,154.5028,1711.656,153.5974,1702.0163,151.5787" style="stroke: #A80036; stroke-width: 1.0;"/><text fill="#000000" font-family="sans-serif" font-size="13" lengthAdjust="spacingAndGlyphs" textLength="7" x="1732" y="328.7549">6</text><path d="M874.2777,1506.655 C891.7734,1505.0657 909,1506.814 909,1511.8999 C909,1516.4693 895.0949,1518.3446 879.5823,1517.5257 " fill="none" style="stroke: #A80036; stroke-width: 1.0;"/><polygon fill="#A80036" points="874.2777,1517.1448,882.9679,1521.7794,879.2648,1517.5031,883.5412,1513.8,874.2777,1517.1448" style="stroke: #A80036; stroke-width: 1.0;"/><text fill="#000000" font-family="sans-serif" font-size="13" lengthAdjust="spacingAndGlyphs" textLength="7" x="915" y="1516.2549">1</text><path d="M874.295,1503.7516 C906.1136,1497.1955 944,1499.9116 944,1511.8999 C944,1523.2326 910.1442,1526.2795 879.5625,1521.0406 " fill="none" style="stroke: #A80036; stroke-width: 1.0;"/><polygon fill="#A80036" points="874.295,1520.0482,882.3988,1525.6453,879.2086,1520.9739,883.88,1517.7836,874.295,1520.0482" style="stroke: #A80036; stroke-width: 1.0;"/><text fill="#000000" font-family="sans-serif" font-size="13" lengthAdjust="spacingAndGlyphs" textLength="7" x="950" y="1516.2549">5</text><path d="M823.8481,1532.2792 C814.1778,1541.6854 804.2131,1553.6968 799,1566.8999 C794.118,1579.2644 793.2251,1593.8413 793.8038,1606.4831 " fill="none" style="stroke: #A80036; stroke-width: 1.0;"/><polygon fill="#A80036" points="794.1345,1611.7704,797.5646,1602.5381,793.8222,1606.7801,789.5802,1603.0378,794.1345,1611.7704" style="stroke: #A80036; stroke-width: 1.0;"/><text fill="#000000" font-family="sans-serif" font-size="13" lengthAdjust="spacingAndGlyphs" textLength="7" x="800" y="1578.7549">2</text><path d="M808.3053,1611.6419 C816.5273,1591.4899 828.0667,1563.207 836.7588,1541.9029 " fill="none" style="stroke: #A80036; stroke-width: 1.0;"/><polygon fill="#A80036" points="838.6794,1537.1955,831.5758,1544.0175,836.7905,1541.825,838.983,1547.0397,838.6794,1537.1955" style="stroke: #A80036; stroke-width: 1.0;"/><text fill="#000000" font-family="sans-serif" font-size="13" lengthAdjust="spacingAndGlyphs" textLength="7" x="827" y="1578.7549">1</text><path d="M839.0989,1486.6419 C831.1993,1466.4899 820.1124,1438.207 811.7612,1416.9029 " fill="none" style="stroke: #A80036; stroke-width: 1.0;"/><polygon fill="#A80036" points="809.9159,1412.1955,809.4766,1422.0345,811.7408,1416.8506,816.9248,1419.1147,809.9159,1412.1955" style="stroke: #A80036; stroke-width: 1.0;"/><text fill="#000000" font-family="sans-serif" font-size="13" lengthAdjust="spacingAndGlyphs" textLength="7" x="828" y="1453.7549">3</text><path d="M797.7323,1411.9921 C797.3947,1425.7 798.4778,1442.7216 804,1456.8999 C807.8094,1466.6807 814.057,1476.035 820.7013,1484.1661 " fill="none" style="stroke: #A80036; stroke-width: 1.0;"/><polygon fill="#A80036" points="823.986,1488.056,821.2356,1478.599,820.7601,1484.2358,815.1233,1483.7604,823.986,1488.056" style="stroke: #A80036; stroke-width: 1.0;"/><text fill="#000000" font-family="sans-serif" font-size="13" lengthAdjust="spacingAndGlyphs" textLength="7" x="805" y="1453.7549">5</text><path d="M874.2934,1510.8263 C1013.3946,1504.5954 1679,1470.4169 1679,1386.8999 C1679,1199.3999 1679,1199.3999 1679,1199.3999 C1679,917.4465 1675.8342,845.103 1630,566.8999 C1628.6603,558.7683 1626.7016,550.0792 1624.6713,542.0649 " fill="none" style="stroke: #A80036; stroke-width: 1.0;"/><polygon fill="#A80036" points="1623.4029,537.173,1621.79,546.8889,1624.6579,542.0129,1629.5339,544.8808,1623.4029,537.173" style="stroke: #A80036; stroke-width: 1.0;"/><text fill="#000000" font-family="sans-serif" font-size="13" lengthAdjust="spacingAndGlyphs" textLength="7" x="1679" y="1016.2549">4</text><path d="M874.0383,1511.135 C1019.5563,1506.3672 1750,1477.9023 1750,1386.8999 C1750,1199.3999 1750,1199.3999 1750,1199.3999 C1750,1062.582 1695.0387,765.2507 1667,611.8999 C1663.3151,591.7461 1665.5339,585.5259 1657,566.8999 C1652.9399,558.0383 1647.2852,549.2214 1641.4706,541.3262 " fill="none" style="stroke: #A80036; stroke-width: 1.0;"/><polygon fill="#A80036" points="1638.2329,537.0404,1640.4664,546.6326,1641.2468,541.0299,1646.8496,541.8103,1638.2329,537.0404" style="stroke: #A80036; stroke-width: 1.0;"/><text fill="#000000" font-family="sans-serif" font-size="13" lengthAdjust="spacingAndGlyphs" textLength="7" x="1737" y="1016.2549">6</text><path d="M1326.2777,756.655 C1343.7734,755.0657 1361,756.814 1361,761.8999 C1361,766.4693 1347.0949,768.3446 1331.5823,767.5257 " fill="none" style="stroke: #A80036; stroke-width: 1.0;"/><polygon fill="#A80036" points="1326.2777,767.1448,1334.9679,771.7794,1331.2648,767.5031,1335.5412,763.8,1326.2777,767.1448" style="stroke: #A80036; stroke-width: 1.0;"/><text fill="#000000" font-family="sans-serif" font-size="13" lengthAdjust="spacingAndGlyphs" textLength="7" x="1367" y="766.2549">1</text><path d="M1326.295,753.7516 C1358.1136,747.1955 1396,749.9116 1396,761.8999 C1396,773.2326 1362.1442,776.2795 1331.5625,771.0406 " fill="none" style="stroke: #A80036; stroke-width: 1.0;"/><polygon fill="#A80036" points="1326.295,770.0482,1334.3988,775.6453,1331.2086,770.9739,1335.88,767.7836,1326.295,770.0482" style="stroke: #A80036; stroke-width: 1.0;"/><text fill="#000000" font-family="sans-serif" font-size="13" lengthAdjust="spacingAndGlyphs" textLength="7" x="1402" y="766.2549">5</text><path d="M1295.3338,787.1955 C1290.8365,807.2729 1284.5352,835.4037 1279.772,856.6678 " fill="none" style="stroke: #A80036; stroke-width: 1.0;"/><polygon fill="#A80036" points="1278.6578,861.6419,1284.5284,853.7339,1279.7508,856.7628,1276.7219,851.9852,1278.6578,861.6419" style="stroke: #A80036; stroke-width: 1.0;"/><text fill="#000000" font-family="sans-serif" font-size="13" lengthAdjust="spacingAndGlyphs" textLength="7" x="1289" y="828.7549">2</text><path d="M1267.1663,861.8727 C1265.0143,848.3379 1263.9672,831.4595 1268,816.8999 C1270.4328,808.1169 1274.6829,799.3282 1279.3398,791.4353 " fill="none" style="stroke: #A80036; stroke-width: 1.0;"/><polygon fill="#A80036" points="1281.9598,787.1482,1273.8535,792.7418,1279.3525,791.4145,1280.6797,796.9135,1281.9598,787.1482" style="stroke: #A80036; stroke-width: 1.0;"/><text fill="#000000" font-family="sans-serif" font-size="13" lengthAdjust="spacingAndGlyphs" textLength="7" x="1269" y="828.7549">1</text><path d="M1275.7597,743.3196 C1264.8476,733.7666 1253.1807,721.1389 1247,706.8999 C1241.7025,694.6957 1240.3841,680.1422 1240.6116,667.4745 " fill="none" style="stroke: #A80036; stroke-width: 1.0;"/><polygon fill="#A80036" points="1240.7967,662.1733,1236.4849,671.0281,1240.6221,667.1702,1244.48,671.3075,1240.7967,662.1733" style="stroke: #A80036; stroke-width: 1.0;"/><text fill="#000000" font-family="sans-serif" font-size="13" lengthAdjust="spacingAndGlyphs" textLength="7" x="1248" y="703.7549">3</text><path d="M1255.5348,662.1955 C1264.7287,682.3576 1277.626,710.6412 1287.3367,731.9366 " fill="none" style="stroke: #A80036; stroke-width: 1.0;"/><polygon fill="#A80036" points="1289.4824,736.6419,1289.3877,726.7935,1287.4079,732.0926,1282.1088,730.1127,1289.4824,736.6419" style="stroke: #A80036; stroke-width: 1.0;"/><text fill="#000000" font-family="sans-serif" font-size="13" lengthAdjust="spacingAndGlyphs" textLength="7" x="1276" y="703.7549">5</text><path d="M1326.0997,753.9504 C1366.4615,740.2272 1446.7495,708.9608 1501,661.8999 C1542.1584,626.196 1578.3054,573.7033 1598.6267,541.2213 " fill="none" style="stroke: #A80036; stroke-width: 1.0;"/><polygon fill="#A80036" points="1601.2671,536.9705,1593.1204,542.5051,1598.6289,541.2178,1599.9162,546.7262,1601.2671,536.9705" style="stroke: #A80036; stroke-width: 1.0;"/><text fill="#000000" font-family="sans-serif" font-size="13" lengthAdjust="spacingAndGlyphs" textLength="7" x="1549" y="641.2549">4</text><path d="M1321.2667,736.8382 C1352.1985,698.983 1413.5559,625.4271 1470,566.8999 C1519.7711,515.2919 1550.7773,518.1781 1588,456.8999 C1646.1201,361.2192 1667.2731,226.6236 1674.1023,167.1635 " fill="none" style="stroke: #A80036; stroke-width: 1.0;"/><polygon fill="#A80036" points="1674.6821,161.9882,1669.7049,170.4868,1674.1254,166.9571,1677.6551,171.3776,1674.6821,161.9882" style="stroke: #A80036; stroke-width: 1.0;"/><text fill="#000000" font-family="sans-serif" font-size="13" lengthAdjust="spacingAndGlyphs" textLength="7" x="1597" y="453.7549">6</text><path d="M382.2777,2006.655 C399.7734,2005.0657 417,2006.814 417,2011.8999 C417,2016.4693 403.0949,2018.3446 387.5823,2017.5257 " fill="none" style="stroke: #A80036; stroke-width: 1.0;"/><polygon fill="#A80036" points="382.2777,2017.1448,390.9679,2021.7794,387.2648,2017.5031,391.5412,2013.8,382.2777,2017.1448" style="stroke: #A80036; stroke-width: 1.0;"/><text fill="#000000" font-family="sans-serif" font-size="13" lengthAdjust="spacingAndGlyphs" textLength="7" x="423" y="2016.2549">1</text><path d="M382.295,2003.7516 C414.1136,1997.1955 452,1999.9116 452,2011.8999 C452,2023.2326 418.1442,2026.2795 387.5625,2021.0406 " fill="none" style="stroke: #A80036; stroke-width: 1.0;"/><polygon fill="#A80036" points="382.295,2020.0482,390.3988,2025.6453,387.2086,2020.9739,391.88,2017.7836,382.295,2020.0482" style="stroke: #A80036; stroke-width: 1.0;"/><text fill="#000000" font-family="sans-serif" font-size="13" lengthAdjust="spacingAndGlyphs" textLength="7" x="458" y="2016.2549">5</text><path d="M331.696,2009.5914 C268.3803,2003.4471 104.8984,1985.2064 59,1956.8999 C25.7859,1936.416 6,1925.9225 6,1886.8999 C6,386.8999 6,386.8999 6,386.8999 C6,347.8773 24.7559,335.6111 59,316.8999 C119.2426,283.983 609.9886,266.7473 737.7075,262.7917 " fill="none" style="stroke: #A80036; stroke-width: 1.0;"/><polygon fill="#A80036" points="742.8073,262.6348,733.6885,258.9136,737.8097,262.7886,733.9346,266.9098,742.8073,262.6348" style="stroke: #A80036; stroke-width: 1.0;"/><text fill="#000000" font-family="sans-serif" font-size="13" lengthAdjust="spacingAndGlyphs" textLength="7" x="7" y="1141.2549">2</text><path d="M742.8817,263.7777 C619.6594,273.317 85,318.6408 85,386.8999 C85,386.8999 85,386.8999 85,1886.8999 C85,1939.682 256.2441,1987.4002 326.9827,2004.8602 " fill="none" style="stroke: #A80036; stroke-width: 1.0;"/><polygon fill="#A80036" points="331.8984,2006.0647,324.109,2000.0376,327.0421,2004.8747,322.205,2007.8077,331.8984,2006.0647" style="stroke: #A80036; stroke-width: 1.0;"/><text fill="#000000" font-family="sans-serif" font-size="13" lengthAdjust="spacingAndGlyphs" textLength="7" x="86" y="1141.2549">1</text><path d="M353.2473,1986.8143 C352.1983,1973.1084 352.5641,1956.0866 358,1941.8999 C362.1308,1931.1193 369.3995,1921.047 377.0499,1912.5438 " fill="none" style="stroke: #A80036; stroke-width: 1.0;"/><polygon fill="#A80036" points="380.8242,1908.4993,371.7594,1912.3501,377.4128,1912.1548,377.6082,1917.8083,380.8242,1908.4993" style="stroke: #A80036; stroke-width: 1.0;"/><text fill="#000000" font-family="sans-serif" font-size="13" lengthAdjust="spacingAndGlyphs" textLength="7" x="359" y="1953.7549">3</text><path d="M396.0841,1912.1955 C388.1806,1932.3576 377.0934,1960.6412 368.7456,1981.9366 " fill="none" style="stroke: #A80036; stroke-width: 1.0;"/><polygon fill="#A80036" points="366.9011,1986.6419,373.9099,1979.7226,368.7259,1981.9868,366.4617,1976.8028,366.9011,1986.6419" style="stroke: #A80036; stroke-width: 1.0;"/><text fill="#000000" font-family="sans-serif" font-size="13" lengthAdjust="spacingAndGlyphs" textLength="7" x="386" y="1953.7549">5</text><path d="M331.9347,2001.47 C294.1582,1983.8812 227,1944.5107 227,1886.8999 C227,511.8999 227,511.8999 227,511.8999 C227,416.1326 581.5918,392.8791 688.7144,388.0392 " fill="none" style="stroke: #A80036; stroke-width: 1.0;"/><polygon fill="#A80036" points="693.9252,387.8096,684.7577,384.21,688.9301,388.0299,685.1102,392.2022,693.9252,387.8096" style="stroke: #A80036; stroke-width: 1.0;"/><text fill="#000000" font-family="sans-serif" font-size="13" lengthAdjust="spacingAndGlyphs" textLength="7" x="228" y="1203.7549">4</text><path d="M382.2897,2011.4825 C598.0793,2007.7604 2122,1978.2413 2122,1886.8999 C2122,261.8999 2122,261.8999 2122,261.8999 C2122,175.574 1807.6855,146.0595 1707.376,138.8383 " fill="none" style="stroke: #A80036; stroke-width: 1.0;"/><polygon fill="#A80036" points="1702.2001,138.4719,1710.8951,143.0976,1707.1876,138.825,1711.4601,135.1175,1702.2001,138.4719" style="stroke: #A80036; stroke-width: 1.0;"/><text fill="#000000" font-family="sans-serif" font-size="13" lengthAdjust="spacingAndGlyphs" textLength="7" x="2123" y="1078.7549">6</text><path d="M882.954,1287.1955 C865.9678,1307.6117 842.0529,1336.3555 824.2622,1357.7385 " fill="none" style="stroke: #A80036; stroke-width: 1.0;"/><polygon fill="#A80036" points="821.0147,1361.6419,829.8457,1357.2815,824.2125,1357.7982,823.6958,1352.165,821.0147,1361.6419" style="stroke: #A80036; stroke-width: 1.0;"/><text fill="#000000" font-family="sans-serif" font-size="13" lengthAdjust="spacingAndGlyphs" textLength="7" x="859" y="1328.7549">1</text><path d="M825.2746,1372.4576 C840.6867,1362.6285 859.8778,1348.429 873,1331.8999 C882.421,1320.0329 889.5989,1304.8537 894.6631,1291.6656 " fill="none" style="stroke: #A80036; stroke-width: 1.0;"/><polygon fill="#A80036" points="896.4335,1286.9067,889.5464,1293.9471,894.6901,1291.5929,897.0443,1296.7366,896.4335,1286.9067" style="stroke: #A80036; stroke-width: 1.0;"/><text fill="#000000" font-family="sans-serif" font-size="13" lengthAdjust="spacingAndGlyphs" textLength="7" x="883" y="1328.7549">1</text><path d="M929.2777,1256.655 C946.7734,1255.0657 964,1256.814 964,1261.8999 C964,1266.4693 950.0949,1268.3446 934.5823,1267.5257 " fill="none" style="stroke: #A80036; stroke-width: 1.0;"/><polygon fill="#A80036" points="929.2777,1267.1448,937.9679,1271.7794,934.2648,1267.5031,938.5412,1263.8,929.2777,1267.1448" style="stroke: #A80036; stroke-width: 1.0;"/><text fill="#000000" font-family="sans-serif" font-size="13" lengthAdjust="spacingAndGlyphs" textLength="7" x="970" y="1266.2549">2</text><path d="M929.295,1253.7516 C961.1136,1247.1955 999,1249.9116 999,1261.8999 C999,1273.2326 965.1442,1276.2795 934.5625,1271.0406 " fill="none" style="stroke: #A80036; stroke-width: 1.0;"/><polygon fill="#A80036" points="929.295,1270.0482,937.3988,1275.6453,934.2086,1270.9739,938.88,1267.7836,929.295,1270.0482" style="stroke: #A80036; stroke-width: 1.0;"/><text fill="#000000" font-family="sans-serif" font-size="13" lengthAdjust="spacingAndGlyphs" textLength="7" x="1005" y="1266.2549">5</text><path d="M900.2473,1236.8143 C899.1983,1223.1084 899.5641,1206.0866 905,1191.8999 C909.1308,1181.1193 916.3995,1171.047 924.0499,1162.5438 " fill="none" style="stroke: #A80036; stroke-width: 1.0;"/><polygon fill="#A80036" points="927.8242,1158.4993,918.7594,1162.3501,924.4128,1162.1548,924.6082,1167.8083,927.8242,1158.4993" style="stroke: #A80036; stroke-width: 1.0;"/><text fill="#000000" font-family="sans-serif" font-size="13" lengthAdjust="spacingAndGlyphs" textLength="7" x="906" y="1203.7549">3</text><path d="M943.0841,1162.1955 C935.1806,1182.3576 924.0934,1210.6412 915.7456,1231.9366 " fill="none" style="stroke: #A80036; stroke-width: 1.0;"/><polygon fill="#A80036" points="913.9011,1236.6419,920.9099,1229.7226,915.7259,1231.9868,913.4617,1226.8028,913.9011,1236.6419" style="stroke: #A80036; stroke-width: 1.0;"/><text fill="#000000" font-family="sans-serif" font-size="13" lengthAdjust="spacingAndGlyphs" textLength="7" x="932" y="1203.7549">5</text><path d="M890.3597,1236.6734 C849.678,1159.0024 732,915.6383 732,699.3999 C732,511.8999 732,511.8999 732,511.8999 C732,479.5123 727.6291,442.6564 723.9562,417.4036 " fill="none" style="stroke: #A80036; stroke-width: 1.0;"/><polygon fill="#A80036" points="723.1848,412.1969,720.5471,421.686,723.9177,417.1429,728.4607,420.5134,723.1848,412.1969" style="stroke: #A80036; stroke-width: 1.0;"/><text fill="#000000" font-family="sans-serif" font-size="13" lengthAdjust="spacingAndGlyphs" textLength="7" x="745" y="828.7549">4</text><path d="M878.7923,1253.7206 C840.4669,1240.1598 767.2303,1209.6842 722,1161.8999 C628.8027,1063.4402 590,1022.4729 590,886.8999 C590,574.3999 590,574.3999 590,574.3999 C590,412.6794 596.8911,334.2879 726,236.8999 C801.3157,180.0886 1492.636,145.3256 1646.6713,138.2462 " fill="none" style="stroke: #A80036; stroke-width: 1.0;"/><polygon fill="#A80036" points="1651.9223,138.006,1642.7488,134.4216,1646.9275,138.2346,1643.1146,142.4132,1651.9223,138.006" style="stroke: #A80036; stroke-width: 1.0;"/><text fill="#000000" font-family="sans-serif" font-size="13" lengthAdjust="spacingAndGlyphs" textLength="7" x="591" y="703.7549">6</text><path d="M912.3063,1287.0698 C915.3766,1296.4282 918.8699,1307.1417 922,1316.8999 C928.099,1335.9138 934.9773,1357.8873 939.3939,1372.0674 " fill="none" style="stroke: #A80036; stroke-width: 1.0;"/><polygon fill="#A80036" points="940.9037,1376.9191,942.0488,1367.137,939.418,1372.1449,934.4101,1369.5141,940.9037,1376.9191" style="stroke: #A80036; stroke-width: 1.0;"/><path d="M1641.2777,508.4033 C1658.7734,507.3437 1676,508.5093 1676,511.8999 C1676,514.9462 1662.0949,516.1964 1646.5823,515.6505 " fill="none" style="stroke: #A80036; stroke-width: 1.0;"/><polygon fill="#A80036" points="1641.2777,515.3965,1650.0761,519.8224,1646.272,515.6356,1650.4587,511.8315,1641.2777,515.3965" style="stroke: #A80036; stroke-width: 1.0;"/><text fill="#000000" font-family="sans-serif" font-size="13" lengthAdjust="spacingAndGlyphs" textLength="7" x="1682" y="516.2549">1</text><path d="M1641.295,506.4677 C1673.1136,502.097 1711,503.9077 1711,511.8999 C1711,519.455 1677.1442,521.4863 1646.5625,517.9937 " fill="none" style="stroke: #A80036; stroke-width: 1.0;"/><polygon fill="#A80036" points="1641.295,517.3321,1649.7262,522.4228,1646.256,517.9554,1650.7234,514.4852,1641.295,517.3321" style="stroke: #A80036; stroke-width: 1.0;"/><text fill="#000000" font-family="sans-serif" font-size="13" lengthAdjust="spacingAndGlyphs" textLength="7" x="1717" y="516.2549">4</text><path d="M1641.2056,505.3411 C1686.2841,496.8474 1746,499.0337 1746,511.8999 C1746,524.2887 1690.6339,526.7754 1646.2808,519.3601 " fill="none" style="stroke: #A80036; stroke-width: 1.0;"/><polygon fill="#A80036" points="1641.2056,518.4587,1649.3672,523.9712,1646.1285,519.3332,1650.7665,516.0945,1641.2056,518.4587" style="stroke: #A80036; stroke-width: 1.0;"/><text fill="#000000" font-family="sans-serif" font-size="13" lengthAdjust="spacingAndGlyphs" textLength="7" x="1752" y="516.2549">5</text><path d="M1590.7789,522.3036 C1555.7049,536.5975 1490.0703,562.717 1433,581.8999 C1377.5085,600.5521 1311.6509,618.8698 1274.1494,628.9484 " fill="none" style="stroke: #A80036; stroke-width: 1.0;"/><polygon fill="#A80036" points="1269.2732,630.2554,1279.002,631.7888,1274.1027,628.9608,1276.9307,624.0616,1269.2732,630.2554" style="stroke: #A80036; stroke-width: 1.0;"/><text fill="#000000" font-family="sans-serif" font-size="13" lengthAdjust="spacingAndGlyphs" textLength="7" x="1474" y="578.7549">2</text><path d="M1269.0027,626.3697 C1309.6477,609.3217 1388.3884,576.6064 1417,566.8999 C1475.9606,546.8973 1546.5268,528.7176 1585.8045,519.0961 " fill="none" style="stroke: #A80036; stroke-width: 1.0;"/><polygon fill="#A80036" points="1590.9019,517.8525,1581.2103,516.0997,1586.0444,519.0376,1583.1065,523.8717,1590.9019,517.8525" style="stroke: #A80036; stroke-width: 1.0;"/><text fill="#000000" font-family="sans-serif" font-size="13" lengthAdjust="spacingAndGlyphs" textLength="7" x="1418" y="578.7549">1</text><path d="M1590.678,507.4217 C1524.0615,495.7244 1338.3524,463.6546 1183,441.8999 C1019.8182,419.0488 823.4695,397.8338 749.322,390.0451 " fill="none" style="stroke: #A80036; stroke-width: 1.0;"/><polygon fill="#A80036" points="744.1967,389.5077,752.7305,394.4244,749.1694,390.0291,753.5648,386.4681,744.1967,389.5077" style="stroke: #A80036; stroke-width: 1.0;"/><text fill="#000000" font-family="sans-serif" font-size="13" lengthAdjust="spacingAndGlyphs" textLength="7" x="1279" y="453.7549">3</text><path d="M744.1163,388.223 C824.6235,392.6934 1083.3466,408.8387 1295,441.8999 C1403.0412,458.7764 1529.2869,489.6336 1585.8788,504.067 " fill="none" style="stroke: #A80036; stroke-width: 1.0;"/><polygon fill="#A80036" points="1590.8101,505.3281,1583.082,499.2227,1585.966,504.0891,1581.0996,506.9732,1590.8101,505.3281" style="stroke: #A80036; stroke-width: 1.0;"/><text fill="#000000" font-family="sans-serif" font-size="13" lengthAdjust="spacingAndGlyphs" textLength="7" x="1375" y="453.7549">5</text><path d="M823.2777,1631.655 C840.7734,1630.0657 858,1631.814 858,1636.8999 C858,1641.4693 844.0949,1643.3446 828.5823,1642.5257 " fill="none" style="stroke: #A80036; stroke-width: 1.0;"/><polygon fill="#A80036" points="823.2777,1642.1448,831.9679,1646.7794,828.2648,1642.5031,832.5412,1638.8,823.2777,1642.1448" style="stroke: #A80036; stroke-width: 1.0;"/><text fill="#000000" font-family="sans-serif" font-size="13" lengthAdjust="spacingAndGlyphs" textLength="7" x="864" y="1641.2549">2</text><path d="M823.295,1628.7516 C855.1136,1622.1955 893,1624.9116 893,1636.8999 C893,1648.2326 859.1442,1651.2795 828.5625,1646.0406 " fill="none" style="stroke: #A80036; stroke-width: 1.0;"/><polygon fill="#A80036" points="823.295,1645.0482,831.3988,1650.6453,828.2086,1645.9739,832.88,1642.7836,823.295,1645.0482" style="stroke: #A80036; stroke-width: 1.0;"/><text fill="#000000" font-family="sans-serif" font-size="13" lengthAdjust="spacingAndGlyphs" textLength="7" x="899" y="1641.2549">6</text><path d="M772.8478,1634.7843 C683.3965,1626.5793 386,1593.1877 386,1511.8999 C386,1324.3999 386,1324.3999 386,1324.3999 C386,1213.2168 377,1185.583 377,1074.3999 C377,386.8999 377,386.8999 377,386.8999 C377,226.8283 571.1053,337.4065 723,286.8999 C728.0645,285.2159 733.215,282.9571 738.1357,280.4834 " fill="none" style="stroke: #A80036; stroke-width: 1.0;"/><polygon fill="#A80036" points="742.5811,278.1614,732.7519,278.7826,738.1492,280.4762,736.4556,285.8736,742.5811,278.1614" style="stroke: #A80036; stroke-width: 1.0;"/><text fill="#000000" font-family="sans-serif" font-size="13" lengthAdjust="spacingAndGlyphs" textLength="7" x="378" y="953.7549">3</text><path d="M772.9708,1659.2474 C748.9315,1680.7111 712.6212,1713.131 687.2577,1735.777 " fill="none" style="stroke: #A80036; stroke-width: 1.0;"/><polygon fill="#A80036" points="683.2845,1739.3244,692.662,1736.3139,687.0142,1735.9943,687.3338,1730.3465,683.2845,1739.3244" style="stroke: #A80036; stroke-width: 1.0;"/><text fill="#000000" font-family="sans-serif" font-size="13" lengthAdjust="spacingAndGlyphs" textLength="7" x="737" y="1703.7549">4</text><path d="M669.8793,1736.7776 C677.5734,1722.3972 688.6416,1704.7229 702,1691.8999 C721.243,1673.4282 747.8574,1658.8126 768.1838,1649.305 " fill="none" style="stroke: #A80036; stroke-width: 1.0;"/><polygon fill="#A80036" points="772.9441,1647.1174,763.096,1647.2409,768.4009,1649.2052,766.4365,1654.5101,772.9441,1647.1174" style="stroke: #A80036; stroke-width: 1.0;"/><text fill="#000000" font-family="sans-serif" font-size="13" lengthAdjust="spacingAndGlyphs" textLength="7" x="703" y="1703.7549">6</text><path d="M823.319,1636.1764 C943.6507,1632.0187 1468.3082,1605.7709 1864,1456.8999 C2088.9842,1372.2542 2051,1189.7804 2051,949.3999 C2051,261.8999 2051,261.8999 2051,261.8999 C2051,189.5738 1796.2268,151.4857 1707.2373,140.388 " fill="none" style="stroke: #A80036; stroke-width: 1.0;"/><polygon fill="#A80036" points="1702.1199,139.7568,1710.5625,144.8285,1707.0823,140.3689,1711.5419,136.8887,1702.1199,139.7568" style="stroke: #A80036; stroke-width: 1.0;"/><text fill="#000000" font-family="sans-serif" font-size="13" lengthAdjust="spacingAndGlyphs" textLength="7" x="2052" y="891.2549">5</text><path d="M683.2777,1756.655 C700.7734,1755.0657 718,1756.814 718,1761.8999 C718,1766.4693 704.0949,1768.3446 688.5823,1767.5257 " fill="none" style="stroke: #A80036; stroke-width: 1.0;"/><polygon fill="#A80036" points="683.2777,1767.1448,691.9679,1771.7794,688.2648,1767.5031,692.5412,1763.8,683.2777,1767.1448" style="stroke: #A80036; stroke-width: 1.0;"/><text fill="#000000" font-family="sans-serif" font-size="13" lengthAdjust="spacingAndGlyphs" textLength="7" x="724" y="1766.2549">1</text><path d="M683.295,1753.7516 C715.1136,1747.1955 753,1749.9116 753,1761.8999 C753,1773.2326 719.1442,1776.2795 688.5625,1771.0406 " fill="none" style="stroke: #A80036; stroke-width: 1.0;"/><polygon fill="#A80036" points="683.295,1770.0482,691.3988,1775.6453,688.2086,1770.9739,692.88,1767.7836,683.295,1770.0482" style="stroke: #A80036; stroke-width: 1.0;"/><text fill="#000000" font-family="sans-serif" font-size="13" lengthAdjust="spacingAndGlyphs" textLength="7" x="759" y="1766.2549">4</text><path d="M632.916,1774.3424 C586.2428,1797.4938 486.2551,1847.0908 436.0557,1871.9913 " fill="none" style="stroke: #A80036; stroke-width: 1.0;"/><polygon fill="#A80036" points="431.3566,1874.3222,441.1967,1873.906,435.8358,1872.1002,437.6416,1866.7393,431.3566,1874.3222" style="stroke: #A80036; stroke-width: 1.0;"/><text fill="#000000" font-family="sans-serif" font-size="13" lengthAdjust="spacingAndGlyphs" textLength="7" x="549" y="1828.7549">2</text><path d="M431.2366,1880.7916 C463.4633,1872.4128 520.3935,1855.6423 565,1831.8999 C587.8867,1819.7182 611.1916,1802.1652 628.7472,1787.6842 " fill="none" style="stroke: #A80036; stroke-width: 1.0;"/><polygon fill="#A80036" points="632.6291,1784.4549,623.152,1787.1354,628.7852,1787.6525,628.2682,1793.2856,632.6291,1784.4549" style="stroke: #A80036; stroke-width: 1.0;"/><text fill="#000000" font-family="sans-serif" font-size="13" lengthAdjust="spacingAndGlyphs" textLength="7" x="591" y="1828.7549">1</text><path d="M632.8281,1744.655 C592.7722,1714.9462 519,1649.9724 519,1574.3999 C519,511.8999 519,511.8999 519,511.8999 C519,432.9635 632.4174,402.0276 688.4338,391.5623 " fill="none" style="stroke: #A80036; stroke-width: 1.0;"/><polygon fill="#A80036" points="693.6699,390.6125,684.1005,388.2831,688.7502,391.5049,685.5284,396.1546,693.6699,390.6125" style="stroke: #A80036; stroke-width: 1.0;"/><text fill="#000000" font-family="sans-serif" font-size="13" lengthAdjust="spacingAndGlyphs" textLength="7" x="520" y="1078.7549">3</text><path d="M683.1919,1760.5954 C854.2034,1751.5788 1838,1697.0927 1838,1636.8999 C1838,636.8999 1838,636.8999 1838,636.8999 C1838,549.9555 1707.1132,522.8326 1646.3401,514.925 " fill="none" style="stroke: #A80036; stroke-width: 1.0;"/><polygon fill="#A80036" points="1641.0347,514.2604,1649.4676,519.3482,1645.9959,514.882,1650.4621,511.4103,1641.0347,514.2604" style="stroke: #A80036; stroke-width: 1.0;"/><text fill="#000000" font-family="sans-serif" font-size="13" lengthAdjust="spacingAndGlyphs" textLength="7" x="1839" y="1141.2549">5</text><path d="M1298.2777,881.655 C1315.7734,880.0657 1333,881.814 1333,886.8999 C1333,891.4693 1319.0949,893.3446 1303.5823,892.5257 " fill="none" style="stroke: #A80036; stroke-width: 1.0;"/><polygon fill="#A80036" points="1298.2777,892.1448,1306.9679,896.7794,1303.2648,892.5031,1307.5412,888.8,1298.2777,892.1448" style="stroke: #A80036; stroke-width: 1.0;"/><text fill="#000000" font-family="sans-serif" font-size="13" lengthAdjust="spacingAndGlyphs" textLength="7" x="1339" y="891.2549">2</text><path d="M1298.295,878.7516 C1330.1136,872.1955 1368,874.9116 1368,886.8999 C1368,898.2326 1334.1442,901.2795 1303.5625,896.0406 " fill="none" style="stroke: #A80036; stroke-width: 1.0;"/><polygon fill="#A80036" points="1298.295,895.0482,1306.3988,900.6453,1303.2086,895.9739,1307.88,892.7836,1298.295,895.0482" style="stroke: #A80036; stroke-width: 1.0;"/><text fill="#000000" font-family="sans-serif" font-size="13" lengthAdjust="spacingAndGlyphs" textLength="7" x="1374" y="891.2549">6</text><path d="M1247.9354,872.0327 C1204.4961,844.9195 1115.4315,783.1438 1069,706.8999 C976.0417,554.2556 1096.2076,444.4326 971,316.8999 C946.949,292.4023 848.7026,274.2184 798.2363,266.2906 " fill="none" style="stroke: #A80036; stroke-width: 1.0;"/><polygon fill="#A80036" points="793.2108,265.5102,801.4904,270.8439,798.1516,266.2775,802.718,262.9387,793.2108,265.5102" style="stroke: #A80036; stroke-width: 1.0;"/><text fill="#000000" font-family="sans-serif" font-size="13" lengthAdjust="spacingAndGlyphs" textLength="7" x="1031" y="578.7549">3</text><path d="M1261.9367,912.012 C1255.0623,926.0479 1245.3752,943.3812 1234,956.8999 C1222.9334,970.0519 1208.3573,982.327 1195.5395,991.929 " fill="none" style="stroke: #A80036; stroke-width: 1.0;"/><polygon fill="#A80036" points="1191.2676,995.0802,1200.8848,992.9565,1195.2913,992.112,1196.1358,986.5186,1191.2676,995.0802" style="stroke: #A80036; stroke-width: 1.0;"/><text fill="#000000" font-family="sans-serif" font-size="13" lengthAdjust="spacingAndGlyphs" textLength="7" x="1245" y="953.7549">4</text><path d="M1186.922,986.8658 C1198.1556,973.478 1212.2729,956.7389 1225,941.8999 C1232.2324,933.4674 1240.1396,924.3613 1247.4115,916.0314 " fill="none" style="stroke: #A80036; stroke-width: 1.0;"/><polygon fill="#A80036" points="1250.9246,912.011,1241.9906,916.1562,1247.6346,915.7761,1248.0147,921.4202,1250.9246,912.011" style="stroke: #A80036; stroke-width: 1.0;"/><text fill="#000000" font-family="sans-serif" font-size="13" lengthAdjust="spacingAndGlyphs" textLength="7" x="1226" y="953.7549">6</text><path d="M1298.1059,882.3435 C1409.3623,861.5972 1855.9193,772.3013 1935,661.8999 C1992.108,582.1737 1970.4764,524.748 1918,441.8999 C1867.2216,361.7326 1793.1327,406.9054 1735,331.8999 C1724.7761,318.7086 1698.0328,218.6996 1684.7363,167.2613 " fill="none" style="stroke: #A80036; stroke-width: 1.0;"/><polygon fill="#A80036" points="1683.4151,162.1389,1681.7896,171.8527,1684.6638,166.9804,1689.5361,169.8547,1683.4151,162.1389" style="stroke: #A80036; stroke-width: 1.0;"/><text fill="#000000" font-family="sans-serif" font-size="13" lengthAdjust="spacingAndGlyphs" textLength="7" x="1965" y="516.2549">5</text><path d="M1442.2167,393.2086 C1471.0864,401.2568 1518.9074,417.1715 1554,441.8999 C1569.7546,453.0015 1584.2306,468.8607 1595.2258,482.6773 " fill="none" style="stroke: #A80036; stroke-width: 1.0;"/><polygon fill="#A80036" points="1598.5239,486.8921,1596.1278,477.3392,1595.4426,482.9544,1589.8274,482.2692,1598.5239,486.8921" style="stroke: #A80036; stroke-width: 1.0;"/><text fill="#000000" font-family="sans-serif" font-size="13" lengthAdjust="spacingAndGlyphs" textLength="7" x="1572" y="453.7549">1</text><path d="M1408.6729,412.186 C1394.7779,451.6373 1363.8896,528.8072 1319,581.8999 C1306.34,596.8734 1288.8142,610.0173 1273.8878,619.6981 " fill="none" style="stroke: #A80036; stroke-width: 1.0;"/><polygon fill="#A80036" points="1269.3472,622.5895,1279.0872,621.1293,1273.5647,619.9038,1274.7902,614.3813,1269.3472,622.5895" style="stroke: #A80036; stroke-width: 1.0;"/><text fill="#000000" font-family="sans-serif" font-size="13" lengthAdjust="spacingAndGlyphs" textLength="7" x="1378" y="516.2549">2</text><path d="M1391.8669,404.2837 C1342.8308,439.1513 1232.9976,522.0198 1162,611.8999 C1065.1893,734.4583 1069.361,784.5116 979,911.8999 C900.0637,1023.1819 590,1250.4645 590,1386.8999 C590,1386.8999 590,1386.8999 590,1574.3999 C590,1695.2156 486.6137,1810.4955 434.8353,1860.6545 " fill="none" style="stroke: #A80036; stroke-width: 1.0;"/><polygon fill="#A80036" points="431.1986,1864.1526,440.4579,1860.7962,434.8021,1860.6864,434.9119,1855.0306,431.1986,1864.1526" style="stroke: #A80036; stroke-width: 1.0;"/><text fill="#000000" font-family="sans-serif" font-size="13" lengthAdjust="spacingAndGlyphs" textLength="7" x="783" y="1141.2549">3</text><path d="M1398.9196,411.9584 C1369.9202,451.1015 1309.9491,527.8612 1248,581.8999 C1229.6066,597.9447 1217.5669,593.1003 1202,611.8999 C1175.1804,644.2891 1166,657.3482 1166,699.3999 C1166,699.3999 1166,699.3999 1166,886.8999 C1166,919.1137 1166,955.9974 1166,981.3042 " fill="none" style="stroke: #A80036; stroke-width: 1.0;"/><polygon fill="#A80036" points="1166,986.5228,1170,977.5228,1166,981.5228,1162,977.5228,1166,986.5228" style="stroke: #A80036; stroke-width: 1.0;"/><text fill="#000000" font-family="sans-serif" font-size="13" lengthAdjust="spacingAndGlyphs" textLength="7" x="1167" y="703.7549">4</text><path d="M1442.3235,388.7136 C1503.5881,394.1688 1662.6595,414.8066 1770,486.8999 C1863.6858,549.8223 1909,586.5449 1909,699.3999 C1909,699.3999 1909,699.3999 1909,1011.8999 C1909,1289.7207 1920,1359.0791 1920,1636.8999 C1920,1636.8999 1920,1636.8999 1920,1886.8999 C1920,1966.7915 605.3233,2005.2819 387.4238,2011.1128 " fill="none" style="stroke: #A80036; stroke-width: 1.0;"/><polygon fill="#A80036" points="382.1841,2011.2524,391.2874,2015.0113,387.1823,2011.1192,391.0744,2007.0141,382.1841,2011.2524" style="stroke: #A80036; stroke-width: 1.0;"/><text fill="#000000" font-family="sans-serif" font-size="13" lengthAdjust="spacingAndGlyphs" textLength="7" x="1912" y="1203.7549">5</text><path d="M1425.1243,412.0431 C1445.0234,478.574 1489.5613,662.6281 1418,786.8999 C1392.256,831.6063 1337.4723,860.8176 1303.1031,875.5413 " fill="none" style="stroke: #A80036; stroke-width: 1.0;"/><polygon fill="#A80036" points="1298.1862,877.6087,1308.033,877.8076,1302.7953,875.6707,1304.9323,870.433,1298.1862,877.6087" style="stroke: #A80036; stroke-width: 1.0;"/><text fill="#000000" font-family="sans-serif" font-size="13" lengthAdjust="spacingAndGlyphs" textLength="7" x="1458" y="641.2549">6</text><path d="M1191.2777,1006.655 C1208.7734,1005.0657 1226,1006.814 1226,1011.8999 C1226,1016.4693 1212.0949,1018.3446 1196.5823,1017.5257 " fill="none" style="stroke: #A80036; stroke-width: 1.0;"/><polygon fill="#A80036" points="1191.2777,1017.1448,1199.9679,1021.7794,1196.2648,1017.5031,1200.5412,1013.8,1191.2777,1017.1448" style="stroke: #A80036; stroke-width: 1.0;"/><text fill="#000000" font-family="sans-serif" font-size="13" lengthAdjust="spacingAndGlyphs" textLength="7" x="1232" y="1016.2549">1</text><path d="M1191.295,1003.7516 C1223.1136,997.1955 1261,999.9116 1261,1011.8999 C1261,1023.2326 1227.1442,1026.2795 1196.5625,1021.0406 " fill="none" style="stroke: #A80036; stroke-width: 1.0;"/><polygon fill="#A80036" points="1191.295,1020.0482,1199.3988,1025.6453,1196.2086,1020.9739,1200.88,1017.7836,1191.295,1020.0482" style="stroke: #A80036; stroke-width: 1.0;"/><text fill="#000000" font-family="sans-serif" font-size="13" lengthAdjust="spacingAndGlyphs" textLength="7" x="1267" y="1016.2549">4</text><path d="M1140.6101,1024.3702 C1119.12,1035.1211 1087.6519,1051.3273 1061,1066.8999 C1033.8704,1082.7516 1003.9574,1102.3105 982.5053,1116.7205 " fill="none" style="stroke: #A80036; stroke-width: 1.0;"/><polygon fill="#A80036" points="978.331,1119.5313,988.0305,1117.8224,982.4784,1116.7386,983.5622,1111.1865,978.331,1119.5313" style="stroke: #A80036; stroke-width: 1.0;"/><text fill="#000000" font-family="sans-serif" font-size="13" lengthAdjust="spacingAndGlyphs" textLength="7" x="1062" y="1078.7549">2</text><path d="M978.3852,1127.2995 C1003.4546,1117.3763 1042.5032,1100.7169 1074,1081.8999 C1096.2649,1068.5983 1119.4945,1050.8887 1137.0414,1036.6109 " fill="none" style="stroke: #A80036; stroke-width: 1.0;"/><polygon fill="#A80036" points="1140.9222,1033.4337,1131.4244,1036.0399,1137.0534,1036.6011,1136.4923,1042.23,1140.9222,1033.4337" style="stroke: #A80036; stroke-width: 1.0;"/><text fill="#000000" font-family="sans-serif" font-size="13" lengthAdjust="spacingAndGlyphs" textLength="7" x="1096" y="1078.7549">1</text><path d="M1140.9174,1000.3029 C1091.7964,976.2547 982.852,916.0905 927,831.8999 C828.2,682.9701 940.9153,581.243 829,441.8999 C808.8194,416.7735 774.1967,402.1566 749.1774,394.3911 " fill="none" style="stroke: #A80036; stroke-width: 1.0;"/><polygon fill="#A80036" points="744.3087,392.9282,751.7769,399.3489,749.0972,394.3671,754.0791,391.6874,744.3087,392.9282" style="stroke: #A80036; stroke-width: 1.0;"/><text fill="#000000" font-family="sans-serif" font-size="13" lengthAdjust="spacingAndGlyphs" textLength="7" x="884" y="703.7549">3</text><path d="M1191.2417,1005.4644 C1235.4117,993.2238 1327.9198,963.1343 1390,911.8999 C1494.605,825.57 1497.378,779.4683 1565,661.8999 C1584.5316,627.9421 1589.8521,619.143 1602,581.8999 C1606.1362,569.219 1609.2691,554.8283 1611.5111,542.4068 " fill="none" style="stroke: #A80036; stroke-width: 1.0;"/><polygon fill="#A80036" points="1612.4178,537.2145,1606.9289,545.392,1611.5575,542.1399,1614.8096,546.7685,1612.4178,537.2145" style="stroke: #A80036; stroke-width: 1.0;"/><text fill="#000000" font-family="sans-serif" font-size="13" lengthAdjust="spacingAndGlyphs" textLength="7" x="1525" y="766.2549">5</text><path d="M793.2777,256.655 C810.7734,255.0657 828,256.814 828,261.8999 C828,266.4693 814.0949,268.3446 798.5823,267.5257 " fill="none" style="stroke: #A80036; stroke-width: 1.0;"/><polygon fill="#A80036" points="793.2777,267.1448,801.9679,271.7794,798.2648,267.5031,802.5412,263.8,793.2777,267.1448" style="stroke: #A80036; stroke-width: 1.0;"/><text fill="#000000" font-family="sans-serif" font-size="13" lengthAdjust="spacingAndGlyphs" textLength="7" x="834" y="266.2549">2</text><path d="M793.295,253.7516 C825.1136,247.1955 863,249.9116 863,261.8999 C863,273.2326 829.1442,276.2795 798.5625,271.0406 " fill="none" style="stroke: #A80036; stroke-width: 1.0;"/><polygon fill="#A80036" points="793.295,270.0482,801.3988,275.6453,798.2086,270.9739,802.88,267.7836,793.295,270.0482" style="stroke: #A80036; stroke-width: 1.0;"/><text fill="#000000" font-family="sans-serif" font-size="13" lengthAdjust="spacingAndGlyphs" textLength="7" x="869" y="266.2549">3</text><path d="M758.0841,287.1955 C750.1806,307.3576 739.0934,335.6412 730.7456,356.9366 " fill="none" style="stroke: #A80036; stroke-width: 1.0;"/><polygon fill="#A80036" points="728.9011,361.6419,735.9099,354.7226,730.7259,356.9868,728.4617,351.8028,728.9011,361.6419" style="stroke: #A80036; stroke-width: 1.0;"/><text fill="#000000" font-family="sans-serif" font-size="13" lengthAdjust="spacingAndGlyphs" textLength="7" x="747" y="328.7549">4</text><path d="M716.7323,361.8077 C716.3947,348.0998 717.4778,331.0782 723,316.8999 C726.8094,307.1191 733.057,297.7648 739.7013,289.6337 " fill="none" style="stroke: #A80036; stroke-width: 1.0;"/><polygon fill="#A80036" points="742.986,285.7438,734.1233,290.0394,739.7601,289.564,740.2356,295.2008,742.986,285.7438" style="stroke: #A80036; stroke-width: 1.0;"/><text fill="#000000" font-family="sans-serif" font-size="13" lengthAdjust="spacingAndGlyphs" textLength="7" x="724" y="328.7549">6</text><path d="M825.2777,1381.655 C842.7734,1380.0657 860,1381.814 860,1386.8999 C860,1391.4693 846.0949,1393.3446 830.5823,1392.5257 " fill="none" style="stroke: #A80036; stroke-width: 1.0;"/><polygon fill="#A80036" points="825.2777,1392.1448,833.9679,1396.7794,830.2648,1392.5031,834.5412,1388.8,825.2777,1392.1448" style="stroke: #A80036; stroke-width: 1.0;"/><text fill="#000000" font-family="sans-serif" font-size="13" lengthAdjust="spacingAndGlyphs" textLength="7" x="866" y="1391.2549">2</text><path d="M825.295,1378.7516 C857.1136,1372.1955 895,1374.9116 895,1386.8999 C895,1398.2326 861.1442,1401.2795 830.5625,1396.0406 " fill="none" style="stroke: #A80036; stroke-width: 1.0;"/><polygon fill="#A80036" points="825.295,1395.0482,833.3988,1400.6453,830.2086,1395.9739,834.88,1392.7836,825.295,1395.0482" style="stroke: #A80036; stroke-width: 1.0;"/><text fill="#000000" font-family="sans-serif" font-size="13" lengthAdjust="spacingAndGlyphs" textLength="7" x="901" y="1391.2549">3</text><path d="M789.394,1361.7541 C772.506,1320.6866 739.6169,1236.3282 722,1161.8999 C674.244,960.139 661,906.7356 661,699.3999 C661,511.8999 661,511.8999 661,511.8999 C661,476.7657 680.0876,440.8052 696.3629,416.5291 " fill="none" style="stroke: #A80036; stroke-width: 1.0;"/><polygon fill="#A80036" points="699.3638,412.135,690.9848,417.3111,696.5439,416.2639,697.5911,421.823,699.3638,412.135" style="stroke: #A80036; stroke-width: 1.0;"/><text fill="#000000" font-family="sans-serif" font-size="13" lengthAdjust="spacingAndGlyphs" textLength="7" x="672" y="891.2549">4</text><path d="M774.9672,1378.6463 C694.5497,1350.3899 448,1249.483 448,1074.3999 C448,386.8999 448,386.8999 448,386.8999 C448,325.0359 658.1248,281.3528 737.8322,267.0078 " fill="none" style="stroke: #A80036; stroke-width: 1.0;"/><polygon fill="#A80036" points="742.8901,266.1055,733.3275,263.7483,737.9678,266.9836,734.7325,271.624,742.8901,266.1055" style="stroke: #A80036; stroke-width: 1.0;"/><text fill="#000000" font-family="sans-serif" font-size="13" lengthAdjust="spacingAndGlyphs" textLength="7" x="449" y="828.7549">6</text><path d="M1269.2777,631.655 C1286.7734,630.0657 1304,631.814 1304,636.8999 C1304,641.4693 1290.0949,643.3446 1274.5823,642.5257 " fill="none" style="stroke: #A80036; stroke-width: 1.0;"/><polygon fill="#A80036" points="1269.2777,642.1448,1277.9679,646.7794,1274.2648,642.5031,1278.5412,638.8,1269.2777,642.1448" style="stroke: #A80036; stroke-width: 1.0;"/><text fill="#000000" font-family="sans-serif" font-size="13" lengthAdjust="spacingAndGlyphs" textLength="7" x="1310" y="641.2549">2</text><path d="M1269.295,628.7516 C1301.1136,622.1955 1339,624.9116 1339,636.8999 C1339,648.2326 1305.1442,651.2795 1274.5625,646.0406 " fill="none" style="stroke: #A80036; stroke-width: 1.0;"/><polygon fill="#A80036" points="1269.295,645.0482,1277.3988,650.6453,1274.2086,645.9739,1278.88,642.7836,1269.295,645.0482" style="stroke: #A80036; stroke-width: 1.0;"/><text fill="#000000" font-family="sans-serif" font-size="13" lengthAdjust="spacingAndGlyphs" textLength="7" x="1345" y="641.2549">3</text><path d="M1218.6234,623.855 C1197.4678,612.8903 1166.6009,596.684 1140,581.8999 C1032.0618,521.9106 1013.1779,491.2976 900,441.8999 C848.9331,419.6112 786.0575,402.709 749.4534,393.8429 " fill="none" style="stroke: #A80036; stroke-width: 1.0;"/><polygon fill="#A80036" points="744.248,392.5934,752.0657,398.5837,749.1099,393.7605,753.9331,390.8047,744.248,392.5934" style="stroke: #A80036; stroke-width: 1.0;"/><text fill="#000000" font-family="sans-serif" font-size="13" lengthAdjust="spacingAndGlyphs" textLength="7" x="1065" y="516.2549">4</text><path d="M1235.8925,611.6103 C1214.8122,550.2025 1152.1245,392.7109 1042,316.8999 C1002.5456,289.739 860.9547,271.7572 798.251,264.9527 " fill="none" style="stroke: #A80036; stroke-width: 1.0;"/><polygon fill="#A80036" points="793.1538,264.4053,801.6751,269.3436,798.1252,264.9393,802.5295,261.3894,793.1538,264.4053" style="stroke: #A80036; stroke-width: 1.0;"/><text fill="#000000" font-family="sans-serif" font-size="13" lengthAdjust="spacingAndGlyphs" textLength="7" x="1164" y="453.7549">6</text><path d="M431.2777,1881.655 C448.7734,1880.0657 466,1881.814 466,1886.8999 C466,1891.4693 452.0949,1893.3446 436.5823,1892.5257 " fill="none" style="stroke: #A80036; stroke-width: 1.0;"/><polygon fill="#A80036" points="431.2777,1892.1448,439.9679,1896.7794,436.2648,1892.5031,440.5412,1888.8,431.2777,1892.1448" style="stroke: #A80036; stroke-width: 1.0;"/><text fill="#000000" font-family="sans-serif" font-size="13" lengthAdjust="spacingAndGlyphs" textLength="7" x="472" y="1891.2549">2</text><path d="M431.295,1878.7516 C463.1136,1872.1955 501,1874.9116 501,1886.8999 C501,1898.2326 467.1442,1901.2795 436.5625,1896.0406 " fill="none" style="stroke: #A80036; stroke-width: 1.0;"/><polygon fill="#A80036" points="431.295,1895.0482,439.3988,1900.6453,436.2086,1895.9739,440.88,1892.7836,431.295,1895.0482" style="stroke: #A80036; stroke-width: 1.0;"/><text fill="#000000" font-family="sans-serif" font-size="13" lengthAdjust="spacingAndGlyphs" textLength="7" x="507" y="1891.2549">3</text><path d="M380.6514,1868.3348 C353.7253,1846.2633 315,1806.7277 315,1761.8999 C315,1199.3999 315,1199.3999 315,1199.3999 C315,1088.2168 306,1060.583 306,949.3999 C306,511.8999 306,511.8999 306,511.8999 C306,431.943 593.158,398.4172 688.5833,389.4837 " fill="none" style="stroke: #A80036; stroke-width: 1.0;"/><polygon fill="#A80036" points="693.7867,389.0032,684.457,385.8479,688.8079,389.463,685.1927,393.814,693.7867,389.0032" style="stroke: #A80036; stroke-width: 1.0;"/><text fill="#000000" font-family="sans-serif" font-size="13" lengthAdjust="spacingAndGlyphs" textLength="7" x="316" y="1141.2549">4</text><path d="M380.6529,1885.8678 C317.0956,1881.7906 156,1861.6204 156,1761.8999 C156,386.8999 156,386.8999 156,386.8999 C156,326.8607 613.9872,277.1545 737.5801,264.8338 " fill="none" style="stroke: #A80036; stroke-width: 1.0;"/><polygon fill="#A80036" points="742.8679,264.3092,733.5169,261.2174,737.8923,264.8029,734.3069,269.1783,742.8679,264.3092" style="stroke: #A80036; stroke-width: 1.0;"/><text fill="#000000" font-family="sans-serif" font-size="13" lengthAdjust="spacingAndGlyphs" textLength="7" x="157" y="1078.7549">6</text><path d="M978.2777,1131.655 C995.7734,1130.0657 1013,1131.814 1013,1136.8999 C1013,1141.4693 999.0949,1143.3446 983.5823,1142.5257 " fill="none" style="stroke: #A80036; stroke-width: 1.0;"/><polygon fill="#A80036" points="978.2777,1142.1448,986.9679,1146.7794,983.2648,1142.5031,987.5412,1138.8,978.2777,1142.1448" style="stroke: #A80036; stroke-width: 1.0;"/><text fill="#000000" font-family="sans-serif" font-size="13" lengthAdjust="spacingAndGlyphs" textLength="7" x="1019" y="1141.2549">2</text><path d="M978.295,1128.7516 C1010.1136,1122.1955 1048,1124.9116 1048,1136.8999 C1048,1148.2326 1014.1442,1151.2795 983.5625,1146.0406 " fill="none" style="stroke: #A80036; stroke-width: 1.0;"/><polygon fill="#A80036" points="978.295,1145.0482,986.3988,1150.6453,983.2086,1145.9739,987.88,1142.7836,978.295,1145.0482" style="stroke: #A80036; stroke-width: 1.0;"/><text fill="#000000" font-family="sans-serif" font-size="13" lengthAdjust="spacingAndGlyphs" textLength="7" x="1054" y="1141.2549">3</text><path d="M939.9692,1111.8488 C935.475,1102.5958 930.6566,1091.921 927,1081.8999 C826.1543,805.5297 882.6393,708.387 758,441.8999 C753.8994,433.1324 748.3789,424.2907 742.7837,416.3373 " fill="none" style="stroke: #A80036; stroke-width: 1.0;"/><polygon fill="#A80036" points="739.6761,412.0163,741.6836,421.6584,742.5955,416.0755,748.1784,416.9874,739.6761,412.0163" style="stroke: #A80036; stroke-width: 1.0;"/><text fill="#000000" font-family="sans-serif" font-size="13" lengthAdjust="spacingAndGlyphs" textLength="7" x="856" y="766.2549">4</text><path d="M953,1111.5228 C953,1086.2681 953,1046.4051 953,1011.8999 C953,824.3999 953,824.3999 953,824.3999 C953,617.9578 1013.4667,540.5419 910,361.8999 C884.6495,318.1306 831.5496,288.7847 797.9523,273.7534 " fill="none" style="stroke: #A80036; stroke-width: 1.0;"/><polygon fill="#A80036" points="793.1424,271.6396,799.7723,278.9227,797.7198,273.6514,802.9912,271.5989,793.1424,271.6396" style="stroke: #A80036; stroke-width: 1.0;"/><text fill="#000000" font-family="sans-serif" font-size="13" lengthAdjust="spacingAndGlyphs" textLength="7" x="961" y="703.7549">6</text><path d="M927.8581,1157.676 C916.6289,1167.511 903.5741,1179.7469 893,1191.8999 C853.0409,1237.8254 846.184,1256.7207 837,1316.8999 C835.9942,1323.4903 833.2027,1326.4204 837,1331.8999 C858.6294,1363.1112 884.6837,1341.9591 917,1361.8999 C922.9463,1365.5691 928.7401,1370.6664 933.4263,1375.3019 " fill="none" style="stroke: #A80036; stroke-width: 1.0;"/><polygon fill="#A80036" points="937.0812,1379.0455,933.6562,1369.8113,933.5883,1375.4678,927.9319,1375.3999,937.0812,1379.0455" style="stroke: #A80036; stroke-width: 1.0;"/><path d="M744.2777,384.2775 C761.7734,383.4828 779,384.3569 779,386.8999 C779,389.1846 765.0949,390.1222 749.5823,389.7128 " fill="none" style="stroke: #A80036; stroke-width: 1.0;"/><polygon fill="#A80036" points="744.2777,389.5223,753.1284,393.8427,749.2745,389.7017,753.4154,385.8478,744.2777,389.5223" style="stroke: #A80036; stroke-width: 1.0;"/><text fill="#000000" font-family="sans-serif" font-size="13" lengthAdjust="spacingAndGlyphs" textLength="7" x="785" y="391.2549">1</text><path d="M744.295,382.8258 C776.1136,379.5477 814,380.9058 814,386.8999 C814,392.5662 780.1442,394.0897 749.5625,391.4703 " fill="none" style="stroke: #A80036; stroke-width: 1.0;"/><polygon fill="#A80036" points="744.295,390.974,752.8801,395.8006,749.273,391.443,753.6305,387.8358,744.295,390.974" style="stroke: #A80036; stroke-width: 1.0;"/><text fill="#000000" font-family="sans-serif" font-size="13" lengthAdjust="spacingAndGlyphs" textLength="7" x="820" y="391.2549">2</text><path d="M744.2056,381.9808 C789.2841,375.6106 849,377.2502 849,386.8999 C849,396.1915 793.6339,398.0565 749.2808,392.4951 " fill="none" style="stroke: #A80036; stroke-width: 1.0;"/><polygon fill="#A80036" points="744.2056,391.819,752.5986,396.9724,749.1618,392.4793,753.655,389.0425,744.2056,391.819" style="stroke: #A80036; stroke-width: 1.0;"/><text fill="#000000" font-family="sans-serif" font-size="13" lengthAdjust="spacingAndGlyphs" textLength="7" x="855" y="391.2549">3</text><path d="M744.2211,381.4117 C802.022,371.6896 884,373.519 884,386.8999 C884,399.8887 806.755,401.9931 749.3609,393.2129 " fill="none" style="stroke: #A80036; stroke-width: 1.0;"/><polygon fill="#A80036" points="744.2211,392.3881,752.4737,397.7634,749.158,393.1802,753.7411,389.8645,744.2211,392.3881" style="stroke: #A80036; stroke-width: 1.0;"/><text fill="#000000" font-family="sans-serif" font-size="13" lengthAdjust="spacingAndGlyphs" textLength="7" x="890" y="391.2549">4</text></g></svg>