<svg xmlns="http://www.w3.org/2000/svg" height="602" style="width:140px;height:602px" width="140"><defs><filter height="300%" id="a" width="300%" x="-1" y="-1"><feGaussianBlur result="blurOut" stdDeviation="2"/><feColorMatrix in="blurOut" result="blurOut2" values="0 0 0 0 0 0 0 0 0 0 0 0 0 0 0 0 0 0 .4 0"/><feOffset dx="4" dy="4" in="blurOut2" result="blurOut3"/><feBlend in="SourceGraphic" in2="blurOut3"/></filter></defs><ellipse cx="31" cy="18" filter="url(#a)" rx="10" ry="10"/><rect fill="#FEFECE" filter="url(#a)" height="50" rx="12.5" ry="12.5" width="50" x="6" y="89" stroke="#a80036" stroke-width="1.5"/><path stroke="#a80036" stroke-width="1.5" d="M6 113.7h50"/><text font-family="sans-serif" font-size="14" lengthAdjust="spacingAndGlyphs" textLength="7" x="27.5" y="105.69">p</text><rect fill="#FEFECE" filter="url(#a)" height="50" rx="12.5" ry="12.5" width="50" x="6" y="214" stroke="#a80036" stroke-width="1.5"/><path stroke="#a80036" stroke-width="1.5" d="M6 238.7h50"/><text font-family="sans-serif" font-size="14" lengthAdjust="spacingAndGlyphs" textLength="7" x="27.5" y="230.69">q</text><rect fill="#FEFECE" filter="url(#a)" height="50" rx="12.5" ry="12.5" width="50" x="6" y="339" stroke="#a80036" stroke-width="1.5"/><path stroke="#a80036" stroke-width="1.5" d="M6 363.7h50"/><text font-family="sans-serif" font-size="14" lengthAdjust="spacingAndGlyphs" textLength="7" x="27.5" y="355.69">r</text><rect fill="#FEFECE" filter="url(#a)" height="50" rx="12.5" ry="12.5" width="50" x="6" y="464" stroke="#a80036" stroke-width="1.5"/><path stroke="#a80036" stroke-width="1.5" d="M6 488.7h50"/><text font-family="sans-serif" font-size="14" lengthAdjust="spacingAndGlyphs" textLength="7" x="27.5" y="480.69">s</text><ellipse cx="31" cy="585" fill="none" filter="url(#a)" rx="10" ry="10" stroke="#000"/><ellipse cx="31.5" cy="585.5" rx="6" ry="6"/><path d="M31 28.274V83.52" fill="none" stroke="#a80036"/><path fill="#A80036" stroke="#a80036" d="M31 88.746l4-9-4 4-4-4 4 9z"/><path d="M18.055 139.075C13.991 148.24 10.036 158.852 8 169c-2.689 13.397.871 27.802 5.933 40.04" fill="none" stroke="#a80036"/><path fill="#A80036" stroke="#a80036" d="M16.017 213.792l.048-9.848-2.056 5.27-5.27-2.057 7.278 6.635z"/><text font-family="sans-serif" font-size="13" lengthAdjust="spacingAndGlyphs" textLength="7" x="9" y="180.855">0</text><path d="M31 213.742v-69.2" fill="none" stroke="#a80036"/><path fill="#A80036" stroke="#a80036" d="M31 139.296l-4 9 4-4 4 4-4-9z"/><text font-family="sans-serif" font-size="13" lengthAdjust="spacingAndGlyphs" textLength="7" x="32" y="180.855">1</text><path d="M56.278 104.864C73.773 102.095 91 105.14 91 114c0 7.96-13.905 11.226-29.418 9.8" fill="none" stroke="#a80036"/><path fill="#A80036" stroke="#a80036" d="M56.278 123.136l8.434 5.087-3.473-4.466 4.466-3.473-9.427 2.852z"/><text font-family="sans-serif" font-size="13" lengthAdjust="spacingAndGlyphs" textLength="7" x="97" y="118.355">1</text><path d="M31 264.296v69.202" fill="none" stroke="#a80036"/><path fill="#A80036" stroke="#a80036" d="M31 338.742l4-9-4 4-4-4 4 9z"/><text font-family="sans-serif" font-size="13" lengthAdjust="spacingAndGlyphs" textLength="7" x="32" y="305.855">0</text><path d="M56.278 353.51C73.773 350.332 91 353.828 91 364c0 9.139-13.905 12.89-29.418 11.252" fill="none" stroke="#a80036"/><path fill="#A80036" stroke="#a80036" d="M56.278 374.49l8.34 5.239-3.391-4.528 4.528-3.39-9.477 2.679z"/><text font-family="sans-serif" font-size="13" lengthAdjust="spacingAndGlyphs" textLength="7" x="97" y="368.355">0</text><path d="M31 389.296v69.202" fill="none" stroke="#a80036"/><path fill="#A80036" stroke="#a80036" d="M31 463.742l4-9-4 4-4-4 4 9z"/><text font-family="sans-serif" font-size="13" lengthAdjust="spacingAndGlyphs" textLength="7" x="32" y="430.855">1</text><path d="M56.278 484.432C73.773 483.048 91 484.57 91 489c0 3.98-13.905 5.613-29.418 4.9" fill="none" stroke="#a80036"/><path fill="#A80036" stroke="#a80036" d="M56.278 493.568l8.732 4.554-3.742-4.242 4.242-3.742-9.232 3.43z"/><text font-family="sans-serif" font-size="13" lengthAdjust="spacingAndGlyphs" textLength="7" x="97" y="493.355">0</text><path d="M56.295 481.903C88.114 476.193 126 478.56 126 489c0 9.87-33.856 12.524-64.438 7.961" fill="none" stroke="#a80036"/><path fill="#A80036" stroke="#a80036" d="M56.295 496.097l8.233 5.405-3.299-4.595 4.595-3.3-9.529 2.49z"/><text font-family="sans-serif" font-size="13" lengthAdjust="spacingAndGlyphs" textLength="7" x="132" y="493.355">1</text><path d="M31 514.223v55.47" fill="none" stroke="#a80036"/><path fill="#A80036" stroke="#a80036" d="M31 574.8l4-9-4 4-4-4 4 9z"/></svg>